<?xml version="1.0" encoding="UTF-8" standalone="no"?>
<svg
   viewBox="0 0 375 375"
   version="1.1"
   id="svg18"
   sodipodi:docname="bgRzB.svg"
   width="375"
   height="375"
   inkscape:version="1.1.2 (b8e25be833, 2022-02-05)"
   xmlns:inkscape="http://www.inkscape.org/namespaces/inkscape"
   xmlns:sodipodi="http://sodipodi.sourceforge.net/DTD/sodipodi-0.dtd"
   xmlns="http://www.w3.org/2000/svg"
   xmlns:svg="http://www.w3.org/2000/svg"
   xmlns:rdf="http://www.w3.org/1999/02/22-rdf-syntax-ns#"
   xmlns:cc="http://creativecommons.org/ns#"
   xmlns:dc="http://purl.org/dc/elements/1.1/">
  <sodipodi:namedview
     id="namedview20"
     pagecolor="#505050"
     bordercolor="#eeeeee"
     borderopacity="1"
     inkscape:pageshadow="0"
     inkscape:pageopacity="0"
     inkscape:pagecheckerboard="0"
     showgrid="false"
     fit-margin-top="0"
     fit-margin-left="0"
     fit-margin-right="0"
     fit-margin-bottom="0"
     inkscape:zoom="1.9866667"
     inkscape:cx="187.75168"
     inkscape:cy="187.75168"
     inkscape:window-width="1920"
     inkscape:window-height="1017"
     inkscape:window-x="-8"
     inkscape:window-y="-8"
     inkscape:window-maximized="1"
     inkscape:current-layer="svg18" />
  <defs
     id="defs4">
    <style
       id="style2">.cls-1{fill:#2c4c9b;}.cls-2{fill:#edb21f;}</style>
  </defs>
  <title
     id="title6">Asset 4</title>
  <g
     id="Layer_2"
     data-name="Layer 2">
    <g
       id="Layer_1-2"
       data-name="Layer 1">
      <path
         class="cls-1"
         d="M 187.5,22.62 A 164.88,164.88 0 1 1 22.62,187.5 164.88,164.88 0 0 1 187.5,22.62 M 187.5,0 C 84.11,0 0,84.11 0,187.5 0,290.89 84.11,375 187.5,375 290.89,375 375,290.89 375,187.5 375,84.11 290.89,0 187.5,0"
         id="path8" />
      <polygon
         class="cls-2"
         points="187.5,68.72 187.5,68.68 165.25,137.2 209.74,137.2 "
         id="polygon10" />
      <polygon
         class="cls-2"
         points="176.25,239.98 140.35,213.8 118.13,282.21 "
         id="polygon12" />
      <path
         class="cls-1"
         d="m 232.71,196.89 67,-46.62 H 75.26 l 181.6,131.94 -25.57,-81 a 3.89,3.89 0 0 1 1.41,-4.34 m -41.4,2.81 a 14.55,14.55 0 1 1 14.55,-14.55 14.55,14.55 0 0 1 -14.55,14.55"
         id="path14" />
    </g>
  </g>
  <metadata
     id="metadata837">
    <rdf:RDF>
      <cc:Work
         rdf:about="">
        <dc:title>Asset 4</dc:title>
      </cc:Work>
    </rdf:RDF>
  </metadata>
</svg>
