<?xml version="1.0" encoding="UTF-8" standalone="no"?>
<svg
   width="300"
   height="300"
   viewBox="0 0 88.345497 88.345497"
   version="1.1"
   id="svg11"
   sodipodi:docname="mtPP1.svg"
   inkscape:version="1.1.2 (b8e25be833, 2022-02-05)"
   xmlns:inkscape="http://www.inkscape.org/namespaces/inkscape"
   xmlns:sodipodi="http://sodipodi.sourceforge.net/DTD/sodipodi-0.dtd"
   xmlns="http://www.w3.org/2000/svg"
   xmlns:svg="http://www.w3.org/2000/svg">
  <defs
     id="defs15" />
  <sodipodi:namedview
     id="namedview13"
     pagecolor="#505050"
     bordercolor="#eeeeee"
     borderopacity="1"
     inkscape:pageshadow="0"
     inkscape:pageopacity="0"
     inkscape:pagecheckerboard="0"
     showgrid="false"
     fit-margin-top="0"
     fit-margin-left="0"
     fit-margin-right="0"
     fit-margin-bottom="0"
     inkscape:zoom="2.4833333"
     inkscape:cx="149.79866"
     inkscape:cy="149.79866"
     inkscape:window-width="1920"
     inkscape:window-height="1017"
     inkscape:window-x="-8"
     inkscape:window-y="-8"
     inkscape:window-maximized="1"
     inkscape:current-layer="svg11" />
  <g
     transform="translate(-56.887638,-70.195988)"
     id="g9">
    <circle
       style="fill:none;stroke:#142896;stroke-width:6;stroke-miterlimit:31.8;stroke-dasharray:none;stroke-dashoffset:0.83716;stroke-opacity:1;paint-order:markers stroke fill"
       id="path234"
       cx="101.06039"
       cy="114.36874"
       r="41.172749" />
    <g
       style="fill:#000080;stroke-width:3;stroke-miterlimit:31.8;stroke-dashoffset:0.83716;paint-order:markers stroke fill"
       id="g7">
      <path
         d="m 75.013012,95.337228 h 14.358017 q 3.401267,0 5.841866,0.337532 2.466568,0.337532 4.569638,1.765538 2.103067,1.40205 3.167587,3.842652 1.09049,2.41464 1.09049,5.06295 0,5.27067 -3.40127,8.46421 -3.375295,3.16761 -10.852894,3.16761 h -9.736443 v 15.42252 h -5.036991 z m 5.036991,18.122782 h 9.78837 q 8.983498,0 8.983498,-6.95833 0,-2.28482 -1.168366,-4.02439 -1.168378,-1.76555 -2.881996,-2.18097 -1.68765,-0.441382 -5.03699,-0.441382 h -9.684516 z"
         style="font-weight:bold;stroke:#000080;stroke-width:4.71029;stroke-dasharray:none"
         id="path3" />
      <path
         d="m 103.8427,95.337228 h 14.35803 q 3.40125,0 5.84187,0.337532 2.46655,0.337532 4.56963,1.765548 2.10308,1.40204 3.1676,3.842652 1.09048,2.41464 1.09048,5.06295 0,5.27066 -3.40127,8.4642 -3.3753,3.16761 -10.85289,3.16761 h -9.73645 v 15.42252 h -5.037 z m 5.037,18.122782 h 9.78839 q 8.98348,0 8.98348,-6.95833 0,-2.28482 -1.16836,-4.0244 -1.16839,-1.76554 -2.882,-2.18096 -1.68765,-0.441372 -5.03699,-0.441372 h -9.68452 z"
         style="fill:#000080;stroke:#000080;stroke-width:4.71029;stroke-miterlimit:31.8;stroke-dasharray:none;stroke-dashoffset:0.83716;paint-order:markers stroke fill"
         id="path5" />
    </g>
  </g>
</svg>
