<?xml version="1.0" encoding="UTF-8" standalone="no"?>
<svg
   width="114.70987mm"
   height="158.24405mm"
   viewBox="0 0 114.70987 158.24405"
   version="1.1"
   id="svg8"
   inkscape:version="1.1.2 (b8e25be833, 2022-02-05)"
   sodipodi:docname="ptFSP.svg"
   xmlns:inkscape="http://www.inkscape.org/namespaces/inkscape"
   xmlns:sodipodi="http://sodipodi.sourceforge.net/DTD/sodipodi-0.dtd"
   xmlns="http://www.w3.org/2000/svg"
   xmlns:svg="http://www.w3.org/2000/svg"
   xmlns:rdf="http://www.w3.org/1999/02/22-rdf-syntax-ns#"
   xmlns:cc="http://creativecommons.org/ns#"
   xmlns:dc="http://purl.org/dc/elements/1.1/">
  <defs
     id="defs2" />
  <sodipodi:namedview
     id="base"
     pagecolor="#ffffff"
     bordercolor="#666666"
     borderopacity="1.0"
     inkscape:pageopacity="0.0"
     inkscape:pageshadow="2"
     inkscape:zoom="0.61364061"
     inkscape:cx="439.99696"
     inkscape:cy="361.77527"
     inkscape:document-units="mm"
     inkscape:current-layer="layer1"
     showgrid="false"
     fit-margin-top="0"
     fit-margin-left="0"
     fit-margin-right="0"
     fit-margin-bottom="0"
     inkscape:window-width="1920"
     inkscape:window-height="1017"
     inkscape:window-x="-8"
     inkscape:window-y="-8"
     inkscape:window-maximized="1"
     inkscape:pagecheckerboard="0" />
  <metadata
     id="metadata5">
    <rdf:RDF>
      <cc:Work
         rdf:about="">
        <dc:format>image/svg+xml</dc:format>
        <dc:type
           rdf:resource="http://purl.org/dc/dcmitype/StillImage" />
      </cc:Work>
    </rdf:RDF>
  </metadata>
  <g
     inkscape:label="Layer 1"
     inkscape:groupmode="layer"
     id="layer1"
     transform="translate(-32.325226,-42.252186)">
    <rect
       style="fill:#d92c3a;fill-opacity:1;stroke-width:0.424672"
       y="42.252186"
       x="32.325226"
       height="158.24405"
       width="114.70987"
       id="rect961" />
    <path
       inkscape:connector-curvature="0"
       id="path963"
       d="m 146.01516,105.01973 c -18.34127,-2.30965 -24.04744,-1.7662 -27.03639,-2.85309 -2.98894,-1.08689 -8.28753,-3.532391 -12.77095,-7.200641 -4.48342,-3.66826 -8.151676,-5.70618 -11.004756,-5.70618 -2.85309,0 -2.09559,0.65116 -9.782011,1.35862 -7.68642,0.70745 -10.32546,3.66825 -10.32546,3.66825 0,0 -2.4455,1.7662 -2.4455,4.34756 0,2.581361 -7.20065,-2.4455 -8.01581,-2.17378 -0.81517,0.27172 -3.39653,3.53239 -3.80412,5.026861 -0.40758,1.49448 -1.08689,5.9779 0.27172,7.87996 1.35862,1.90205 -1.35861,5.84203 -1.35861,7.47236 0,1.63034 1.35861,3.39654 2.44551,4.48343 1.08688,1.08688 2.17377,3.53239 2.58136,6.79306 0.40758,3.26067 0.95103,4.07583 3.26067,5.43445 2.30964,1.35861 6.76178,1.02617 4.48342,2.71722 -2.27836,1.69105 -1.49448,4.89101 -0.27172,6.24962 1.22275,1.35861 5.57031,7.20064 7.74409,5.43445 2.17378,-1.7662 10.325451,-8.28754 12.363371,-8.28754 2.03792,0 4.07584,6.38548 7.33651,5.84204 3.260666,-0.54345 11.412336,-4.34756 15.624036,-6.92893 4.2117,-2.58136 31.51981,6.38548 31.51981,6.38548 l 0.13586,-39.67148 z"
       style="fill:#f1debb;fill-opacity:1;stroke:none;stroke-width:0.264583px;stroke-linecap:butt;stroke-linejoin:miter;stroke-opacity:1" />
    <path
       inkscape:connector-curvature="0"
       id="path967"
       d="m 90.515514,141.74589 c 2.50782,6.90833 1.75074,5.11027 3.07562,7.6654 1.32489,2.55514 5.82003,8.99028 6.529786,8.94297 0.70976,-0.0473 2.7444,-0.33123 3.21757,-1.18294 0.47317,-0.85171 0.14195,-1.56147 -1.13561,-3.21757 -1.27757,-1.65611 -4.731726,-6.2932 -5.536116,-8.61174 -0.8044,-2.31855 -2.4605,-5.67808 -3.17026,-5.25222 -0.70976,0.42586 -2.98099,1.6561 -2.98099,1.6561 z"
       style="fill:#ecd02a;fill-opacity:1;stroke:none;stroke-width:0.264583px;stroke-linecap:butt;stroke-linejoin:miter;stroke-opacity:1" />
    <path
       sodipodi:nodetypes="ccccsccsccsscscccccscscccccscc"
       inkscape:connector-curvature="0"
       id="path969"
       d="m 71.327063,97.668979 c 0.70756,-0.054 4.24926,-4.88191 6.96334,-5.96189 1.94532,-2.4047 1.02028,-5.97929 -0.88662,-8.11471 -3.64155,-6.228352 -5.74767,-13.542083 -11.38501,-18.42338 -1.8718,-1.743018 -3.67971,-5.562643 -5.35556,-9.438095 -1.67455,-3.872448 -2.92688,-8.018407 -3.79182,-10.344673 0,0 -2.27864,-1.016039 -0.46084,3.135974 0.87447,1.400955 3.01539,6.27785 3.26,9.404457 0.0726,0.92783 -0.26849,1.636611 -0.55076,2.135854 -1.85014,2.434153 -7.47486,-5.920573 -8.32969,-8.219627 0,0 -2.85756,-6.722992 -3.84738,-6.574682 -0.29117,0.04363 -0.68036,0.233659 -0.68036,0.233659 0.57935,3.395535 4.92046,8.956459 5.63499,11.413433 0.44448,1.316979 1.55861,5.472475 1.34988,6.669584 -0.1785,1.023807 -2.05468,-0.472151 -3.03348,-0.502636 -1.54214,-1.397114 -4.52012,-5.913055 -6.36444,-8.768108 -1.15636,-2.121466 -4.59409,-2.915926 0.58123,3.394433 0.94065,1.444229 2.47898,3.072465 4.3332,5.728121 1.04838,2.130963 4.03258,7.090425 5.63807,9.231572 0.56801,1.029973 -3.12875,-0.673059 -3.27612,-0.136034 -0.14645,0.53368 4.88734,6.032788 5.93992,6.826068 1.90756,1.82436 2.10337,3.48669 -0.34577,2.16054 -3.39429,-1.83793 -7.64815,-7.431422 -9.22821,-7.590325 -1.4328,0.19293 3.19372,3.807037 4.55038,4.703435 2.38365,1.95431 7.09175,6.80865 9.00933,8.98814 1.31035,1.38456 3.41669,2.46771 3.15769,3.73473 -0.96299,1.79437 -8.96213,-7.33715 -9.84547,-6.47648 -0.82782,1.00663 2.3888,2.98047 5.35806,5.36828 2.3808,1.91458 4.23162,3.79955 4.83927,5.06342 1.76367,2.55917 3.7744,3.39816 6.76617,2.35894 z"
       style="fill:#ecd02a;fill-opacity:1;stroke:none;stroke-width:0.265;stroke-linecap:butt;stroke-linejoin:miter;stroke-miterlimit:4;stroke-dasharray:none;stroke-opacity:1" />
    <path
       style="fill:#313536;fill-opacity:1;stroke-width:0.264583"
       d="m 56.102519,44.811735 c -0.793533,0.0338 -1.2006,0.535112 -1.040765,1.334286 0.08084,0.404172 0.673926,1.898769 1.318265,3.321759 2.009162,4.437174 3.159665,7.891034 2.968295,8.911084 -0.310021,1.652554 -0.725885,1.689823 -2.827735,0.254765 -1.036619,-0.70776 -2.19852,-1.648269 -2.582269,-2.089795 -0.7404,-0.851861 -2.26295,-3.610433 -4.740281,-8.589656 -1.40793,-2.829814 -1.567539,-3.042708 -2.27893,-3.042708 -0.427829,0 -0.888,0.195469 -1.044379,0.443383 -0.32589,0.516639 -0.206058,0.778317 2.764171,6.038908 2.975181,5.269341 3.136553,5.641145 3.418914,7.874455 0.14238,1.126183 0.331311,2.434373 0.41961,2.907316 0.146011,0.781876 0.100711,0.859896 -0.495059,0.859896 -1.2099,0 -1.907879,-0.794806 -7.960238,-9.061979 -0.82564,-1.127787 -1.627235,-2.050521 -1.781286,-2.050521 -0.643139,0 -1.303795,0.589359 -1.303795,1.163235 0,0.656358 0.633491,1.556629 5.063773,7.19491 1.55158,1.974654 3.023555,4.138565 3.279386,4.821928 0.961408,2.568072 2.268984,4.98225 3.305225,6.101953 0.589629,0.637112 1.007742,1.223129 0.929142,1.301732 -0.463729,0.46373 -2.447131,-1.571546 -7.378361,-7.5706 -1.679292,-2.042932 -2.551557,-2.958991 -2.817915,-2.958991 -0.138632,0 -0.450186,0.302548 -0.692465,0.672311 -0.33868,0.51689 -0.376875,0.8074 -0.163814,1.256771 0.15241,0.321461 1.856557,2.251334 3.786849,4.288626 1.930288,2.037281 4.84732,5.311492 6.482291,7.276041 1.634969,1.964532 3.519794,4.024032 4.188375,4.576982 0.668589,0.55294 1.21543,1.118492 1.21543,1.256771 0,0.782511 -1.330174,-0.06008 -3.883485,-2.460315 -4.758349,-4.47307 -6.253067,-5.754688 -6.711217,-5.754688 -0.64343,0 -1.387533,0.936125 -1.194242,1.502236 0.09051,0.265099 1.602152,1.613231 3.359483,2.995681 5.574361,4.385231 7.263847,5.898351 9.032007,8.088913 0.948169,1.174668 2.450584,2.793397 3.338814,3.597196 1.70316,1.541269 1.878619,1.807641 1.190109,1.807641 -0.602281,0 -2.20319,-1.290704 -5.31337,-4.284493 -1.482482,-1.426991 -2.87473,-2.594674 -3.093868,-2.594674 -0.219131,0 -0.577757,0.25645 -0.79737,0.569992 -0.558868,0.797899 -0.243374,1.263931 2.139405,3.157429 4.996961,3.970912 7.489984,6.356599 7.489984,7.168039 0,0.305088 -0.637212,1.34217 -1.416452,2.304251 -2.36156,2.915685 -2.893137,4.035985 -3.011186,6.348445 -0.07811,1.53018 0.0335,2.46121 0.463021,3.86747 0.91731,3.00325 0.916466,3.07395 -0.03307,4.92063 -0.77842,1.51386 -0.871966,1.93297 -0.883666,3.94291 -0.01445,2.49444 -0.161187,2.14925 2.698544,6.3655 l 1.653645,2.4381 0.0031,2.01435 c 0.0037,2.88928 0.610023,4.00623 4.157885,7.65999 l 2.912999,2.99982 0.1695,1.63039 c 0.25546,2.4541 1.190728,4.07175 3.924308,6.78718 1.31981,1.31105 2.499407,2.38384 2.621028,2.38384 0.121621,0 0.383582,0.32742 0.582393,0.7276 0.264261,0.53191 0.37573,2.18646 0.41393,6.15156 0.02872,2.98317 0.12042,5.8117 0.204121,6.28592 0.233246,1.32189 2.321909,3.05088 4.662765,3.85972 h 5.21e-4 c 4.655169,1.60803 9.979351,0.30555 11.643733,-2.84841 0.510691,-0.9678 0.571259,-1.50229 0.57826,-5.15679 0.0049,-2.47558 0.111686,-4.11245 0.272336,-4.16615 0.145518,-0.0486 0.740836,0.63873 1.322917,1.52704 0.582088,0.88831 1.653648,2.26276 2.38125,3.05459 l 1.322915,1.4397 1.70171,-0.5829 c 0.93582,-0.32073 2.10583,-0.85746 2.59984,-1.1927 0.494,-0.33523 1.12711,-0.68211 1.40715,-0.77101 0.95308,-0.3025 0.51155,-1.02673 -2.16111,-3.54604 -1.46855,-1.38429 -2.89229,-2.95321 -3.16415,-3.48609 -0.46565,-0.91274 -0.46804,-0.99215 -0.0419,-1.36839 0.24882,-0.21965 2.22967,-0.76725 4.4018,-1.21698 3.01674,-0.6246 4.485,-1.07935 6.21771,-1.92598 1.30902,-0.6396 2.77163,-1.15105 3.45871,-1.20975 1.3755,-0.11747 6.11641,0.95641 15.98868,3.622 1.15384,0.31156 2.82073,0.72934 3.70417,0.92863 2.1262,0.47963 9.72316,2.51789 9.98285,2.67839 0.11218,0.0693 0.74355,0.28869 1.40353,0.48731 l 1.19993,0.36122 v -5.08806 -5.08755 l -2.57969,-0.32918 c -5.89868,-0.75198 -12.79267,-2.57723 -18.45468,-4.88652 -3.03293,-1.237 -4.78724,-2.7476 -5.56917,-4.79506 -0.55493,-1.45306 -0.39772,-4.73271 0.25838,-5.38882 0.69343,-0.69343 5.74543,-0.35274 10.00094,0.67438 1.79895,0.4342 2.2761,0.38592 1.91719,-0.19482 -0.40846,-0.66092 -3.25023,-1.6228 -7.87652,-2.66598 -7.62544,-1.71949 -8.15664,-2.14323 -7.48636,-5.9676 0.21218,-1.21052 0.26543,-2.17463 0.12815,-2.32131 -0.29587,-0.31613 -1.63165,0.94995 -3.69227,3.49902 -3.27182,4.04733 -3.5551,5.23772 -1.45935,6.13606 1.36113,0.58344 1.41522,0.65512 1.72186,2.29649 0.47785,2.5578 -0.90871,6.92303 -2.93057,9.2258 -1.7787,2.02583 -5.27915,3.67632 -9.80664,4.62401 -2.574235,0.53884 -3.155332,0.45799 -4.078302,-0.56534 -1.14037,-1.26437 -1.221314,-1.69608 -0.513664,-2.73885 0.870569,-1.28285 1.308311,-3.55628 1.119311,-5.81309 -0.124089,-1.48176 -0.313563,-2.06912 -0.967382,-2.99671 l -0.813388,-1.15394 0.537951,-0.87074 c 0.329602,-0.53333 0.537954,-1.32619 0.537954,-2.04587 0,-0.64625 0.148828,-1.37481 0.330729,-1.61903 0.302699,-0.40641 0.454096,-0.41046 1.785937,-0.0522 2.818384,0.75816 5.612394,1.18603 6.653344,1.01958 1.36142,-0.21771 2.91764,-1.28093 3.8163,-2.60812 2.09224,-3.08988 4.07777,-9.3947 2.95796,-9.3927 -0.18191,2.6e-4 -1.14201,0.96074 -2.13372,2.13372 -3.2114,3.7984 -5.22795,4.57773 -10.04641,3.88296 -2.524231,-0.36397 -3.074025,-0.54411 -4.762506,-1.55752 -2.29117,-1.37514 -6.415606,-5.33051 -6.687447,-6.41356 -0.269009,-1.07184 0.774031,-5.50504 1.376659,-5.85133 0.839851,-0.4826 1.722922,-1.46573 1.611273,-1.79369 -0.07015,-0.20611 -0.532757,-0.29453 -1.276408,-0.24442 -1.648669,0.11114 -3.937503,0.11615 -4.870503,0.0108 -0.79212,-0.0894 -0.793901,-0.0861 -0.95033,1.54875 -0.194361,2.0311 -1.323719,4.013 -3.435451,6.03012 -1.471649,1.40571 -2.725642,1.98447 -4.308263,1.98747 -0.72912,0.001 -0.750009,-0.0344 -0.581359,-0.99063 0.363419,-2.06053 0.462183,-5.56351 0.172083,-6.10557 -0.195691,-0.36565 -0.669806,-0.59988 -1.452626,-0.71727 -1.02779,-0.15412 -1.180709,-0.2667 -1.322401,-0.97514 -0.280397,-1.40203 -0.133583,-6.648953 0.212908,-7.614002 0.412422,-1.148699 2.02285,-2.413198 4.0504,-3.180167 3.858178,-1.45946 12.301606,-2.957722 16.578315,-2.941423 2.14266,0.0081 2.513854,0.09069 4.233334,0.938961 2.348082,1.15837 5.105102,2.899066 8.513182,5.374865 1.44759,1.05161 3.94156,2.864157 5.54229,4.028176 4.34831,3.162 4.45084,3.18953 12.96459,3.45354 4.6005,0.14266 8.57266,0.41772 11.15746,0.77308 3.90113,0.53633 8.47518,1.38635 9.41389,1.74925 0.41957,0.16221 0.46324,-0.0405 0.46302,-2.16421 l -5.3e-4,-2.34353 -2.97604,-0.0336 c -3.55941,-0.0403 -12.36981,-0.52604 -15.8378,-0.87281 -1.36644,-0.13664 -3.97288,-0.32447 -5.79189,-0.41807 -3.26639,-0.16798 -3.33674,-0.18538 -5.68854,-1.383893 -2.24033,-1.141708 -6.25868,-3.664111 -7.84862,-4.92683 -3.85692,-3.063131 -9.209941,-5.84432 -11.816851,-6.139161 -1.46113,-0.165259 -1.706383,-0.273899 -1.927013,-0.85421 -0.355399,-0.934781 0.0042,-3.65715 0.57981,-4.388879 0.264239,-0.33592 1.409306,-1.008031 2.544548,-1.493449 4.474716,-1.913389 6.546746,-3.501408 8.159196,-6.25285 2.99947,-5.118213 0.90874,-13.106146 -5.0369,-19.244302 -2.899924,-2.993805 -7.220557,-5.896811 -7.830538,-5.261178 -0.107939,0.112482 -0.235503,3.014242 -0.283702,6.448187 -0.07028,5.007557 -0.164626,6.336278 -0.476456,6.711733 -0.52732,0.63492 -6.043237,3.316594 -6.821808,3.316594 -0.739409,0 -5.483108,-2.423488 -6.364467,-3.251481 -0.61223,-0.575132 -0.614622,-0.601223 -0.549323,-6.596496 0.03607,-3.310377 -0.01508,-6.099482 -0.113686,-6.198071 -0.301791,-0.301786 -2.263206,0.48096 -3.947046,1.575097 -3.118562,2.026398 -6.427044,5.863314 -8.184515,9.491411 -0.410218,0.846846 -0.863483,1.539957 -1.007173,1.539957 -0.14369,0 -0.518663,-0.504151 -0.833022,-1.120344 -0.314362,-0.616196 -1.124181,-1.955647 -1.799892,-2.976563 -1.566799,-2.367232 -3.020811,-5.897604 -5.123201,-12.439552 -0.791411,-2.462601 -0.902118,-2.651738 -1.594218,-2.731097 -0.128609,-0.01474 -0.249407,-0.01929 -0.362767,-0.01447 z m -9.078515,0.783413 c 0.0695,0.0084 0.156194,0.04357 0.260448,0.108005 0.23546,0.145524 3.1781,5.830316 3.1781,6.139678 0,0.04399 -0.102089,0.0801 -0.226859,0.0801 -0.236521,0 -2.295466,-3.37512 -3.105237,-5.090128 -0.380087,-0.804982 -0.407612,-1.274196 -0.106452,-1.237652 z m 9.502261,0.242363 c 0.262991,0 0.552188,0.73283 2.018999,5.118034 1.18011,3.528036 2.828678,7.539101 3.823538,9.301758 1.156351,2.048772 1.935957,4.936754 1.794206,6.646106 -0.245779,2.963727 -1.467773,2.740231 -2.342494,-0.428398 -0.301299,-1.091406 -0.91218,-2.621473 -1.35754,-3.400308 -0.754629,-1.319713 -0.795967,-1.526755 -0.607197,-3.042709 0.11136,-0.894654 0.186933,-2.01468 0.167433,-2.488737 -0.03168,-0.771575 -1.331992,-4.652293 -3.103171,-9.261451 -0.677119,-1.762109 -0.787035,-2.444295 -0.393774,-2.444295 z m -14.411007,7.423836 c 0.230153,-0.04575 0.769154,0.497559 1.401982,1.457793 0.473009,0.717717 1.008785,1.490337 1.190625,1.717207 0.18184,0.226869 0.609066,0.80165 0.949296,1.277442 0.340241,0.475795 0.577599,0.906529 0.5271,0.957048 -0.15022,0.15022 -4.188375,-4.825581 -4.188375,-5.160925 0,-0.152437 0.04266,-0.233315 0.119372,-0.248565 z m 9.912056,1.836581 c 0.13303,0 0.62484,0.621887 1.092441,1.381829 0.467601,0.759939 1.830001,2.337517 3.027722,3.505729 1.5939,1.554639 2.408881,2.600044 3.040639,3.900535 0.983663,2.024904 0.942782,2.730833 -0.134358,2.321306 -1.32679,-0.504447 -1.69156,-0.349242 -1.874819,0.796851 -0.0971,0.607179 -0.31624,1.058333 -0.51418,1.058333 -0.953313,0 -2.757453,-4.271978 -3.289724,-7.789706 -0.174868,-1.155734 -0.604337,-2.748277 -0.953947,-3.538802 -0.72114,-1.630651 -0.722463,-1.636075 -0.393774,-1.636075 z m -2.116667,8.254794 c 0.269034,-7.94e-4 0.814412,0.273409 1.674318,0.740005 1.732788,0.940234 2.012969,1.210762 2.927469,2.822567 0.556199,0.980299 1.403977,2.216748 1.883606,2.747637 0.836631,0.926052 1.412338,2.621521 1.075386,3.166731 -0.22556,0.364969 -0.388263,0.329542 -1.574065,-0.342098 -1.527468,-0.86515 -4.030197,-3.965032 -5.206915,-6.448703 -0.908775,-1.918125 -1.228185,-2.684621 -0.779799,-2.686139 z m 16.689938,2.923852 c 0.02997,-0.006 0.05754,-0.0055 0.08217,0.0026 0.44522,0.145454 1.983383,3.813611 2.300635,5.486484 0.411149,2.16798 0.31443,4.2315 -0.25735,5.491139 -0.55486,1.222401 -1.245963,1.475547 -1.444871,0.529166 -0.06882,-0.327419 -0.254865,-1.248227 -0.412896,-2.046385 -0.15803,-0.798161 -0.769117,-2.344613 -1.358056,-3.436485 -1.014261,-1.880365 -1.054033,-2.039956 -0.759645,-3.022552 0.389147,-1.298848 1.40044,-2.913293 1.850017,-3.003952 z m -8.164359,0.914156 c 0.05797,0.0011 0.123428,0.0069 0.197403,0.01498 1.15888,0.127264 3.229713,1.935078 4.571815,3.990969 1.257228,1.925892 2.267479,4.540097 1.951818,5.050856 -0.08762,0.14178 -0.724448,0.187654 -1.436087,0.103352 -1.21239,-0.143589 -1.287494,-0.115356 -1.452626,0.542602 -0.23423,0.93322 -0.79561,0.87416 -1.576131,-0.16588 -1.719019,-2.290601 -2.890993,-5.69866 -2.768822,-8.052221 0.06562,-1.264399 0.106868,-1.491319 0.51263,-1.484664 z m -5.931421,6.06733 c 0.161803,-0.01233 0.465741,0.06619 0.93431,0.210838 0.618469,0.190921 1.831493,0.55384 2.695443,0.80667 1.73483,0.50768 2.25689,0.962181 4.249869,3.70055 1.739429,2.38992 1.964984,2.793473 1.800924,3.220992 -0.181571,0.473181 -0.528294,0.446061 -1.800924,-0.14056 -1.95748,-0.9023 -6.187463,-4.724455 -7.604704,-6.871414 -0.418775,-0.634389 -0.544592,-0.906515 -0.274918,-0.927076 z m -4.55476,1.22628 c 0.158885,-0.02522 0.517517,0.194016 0.860928,0.537438 0.81874,0.81874 0.516535,0.947925 -0.460954,0.196887 -0.361609,-0.27786 -0.566637,-0.596588 -0.455269,-0.70797 0.01392,-0.01392 0.0326,-0.02275 0.0553,-0.02635 z m 23.647651,0.591696 c 0.04953,1.16e-4 0.09726,0.0088 0.143143,0.02635 0.551,0.211442 1.651981,2.90712 2.117701,5.18573 0.485111,2.373501 0.516607,3.411781 0.144177,4.752682 -0.148329,0.534061 -0.49647,1.248431 -0.773079,1.5875 -0.54887,0.672819 -0.487812,0.742047 -1.087273,-1.235583 -0.42277,-1.394741 -1.469139,-3.489325 -2.288749,-4.581115 -0.539059,-0.718021 -0.625533,-1.053264 -0.478523,-1.852083 0.364398,-1.980208 1.479682,-3.885232 2.222603,-3.883486 z m -8.267713,1.982308 c 1.390902,0 4.923936,3.616034 6.347418,6.496246 0.95123,1.924669 1.106307,3.250258 0.358116,3.063378 -0.21482,-0.05367 -0.890566,-0.157912 -1.501717,-0.231511 -1.050859,-0.126529 -1.120455,-0.0924 -1.280025,0.626835 -0.09281,0.41828 -0.194643,0.869709 -0.226343,1.003041 -0.107669,0.452649 -1.482532,-1.291066 -2.380734,-3.019454 -1.552138,-2.986791 -2.373355,-7.938535 -1.316715,-7.938535 z m -6.087999,5.067909 c 0.07227,0.0088 0.172091,0.04007 0.298173,0.09147 0.254669,0.10381 1.236921,0.280689 2.182812,0.393258 2.44493,0.290971 3.044216,0.639292 3.587377,2.085661 0.5799,1.54419 1.212448,2.490448 2.702679,4.044198 0.64961,0.677299 1.099989,1.361914 1.001487,1.521354 -0.24489,0.396259 -0.325358,0.375661 -2.132168,-0.54157 C 63.726483,89.133855 62.44954,88.052971 60.18599,85.74464 57.578569,83.085639 56.736122,82.064479 57.241984,82.126257 Z m 18.936311,3.000848 c 0.477817,-0.03536 0.845508,0.537681 1.23765,1.814362 0.87917,2.862289 0.944673,3.758398 0.318844,4.384228 -0.877811,0.877811 -1.626378,0.679916 -2.665987,-0.705385 -0.50932,-0.678688 -1.019728,-1.38594 -1.134298,-1.571479 -0.271729,-0.44006 0.735875,-2.776522 1.511536,-3.505213 0.275206,-0.258546 0.515064,-0.400439 0.732255,-0.416513 z m -21.15168,0.137978 c 0.31623,0.0045 4.167187,3.540273 4.167187,3.826124 0,0.204599 -0.01373,0.195416 -1.5875,-1.068152 -0.80037,-0.642612 -1.782632,-1.416847 -2.182812,-1.720827 -0.770581,-0.58534 -0.946404,-1.045146 -0.396875,-1.037145 z m 13.758333,2.113566 c 1.502611,0.0044 5.754687,4.057584 5.754687,5.485452 0,0.20311 -0.386955,0.7493 -0.859895,1.21388 -0.472951,0.464582 -1.062625,1.230693 -1.310516,1.702223 -0.247899,0.471538 -0.554691,0.857311 -0.681612,0.857311 -1.084979,0 -3.396054,-4.897927 -3.498492,-7.414017 -0.07215,-1.77238 -0.04846,-1.84685 0.595828,-1.844849 z m -6.323645,4.343405 c 0.0089,-0.0016 0.02204,0.0013 0.03979,0.0088 0.291039,0.12306 1.541195,0.376502 2.778125,0.563272 1.236919,0.186782 2.285174,0.347085 2.329574,0.357084 0.288369,0.06229 1.387599,3.133008 1.322398,3.694348 -0.09657,0.831641 -1.08689,1.030562 -1.978689,0.397393 -0.930137,-0.660378 -4.76867,-4.970539 -4.491199,-5.020881 z m 2.415874,6.270934 c 0.215458,-0.01146 0.418684,0.06935 0.664559,0.224793 0.343498,0.21717 0.329819,0.358704 -0.106971,1.098124 -0.493271,0.834199 -0.493154,0.844919 0.0021,0.606682 0.784731,-0.377521 5.245987,-0.302287 5.726266,0.09664 0.557512,0.46305 0.744093,1.96201 0.758092,6.10143 0.008,2.35311 -0.09287,3.63835 -0.30489,3.89382 -0.482086,0.57936 -4.461277,0.46864 -6.530866,-0.1819 -2.095399,-0.65865 -4.609005,-4.8291 -4.161504,-6.90449 0.27246,-1.26361 1.325472,-2.945597 2.519743,-4.024549 0.681551,-0.615736 1.074407,-0.891429 1.433505,-0.910538 z m 9.867614,8.441866 c 0.394504,-0.0298 0.823171,0.0677 1.065051,0.30954 0.586401,0.58639 0.274219,5.42147 -0.389641,6.03529 -0.12046,0.11137 -0.470332,0.27812 -0.777214,0.37052 -1.017069,0.30624 -1.252421,-0.39071 -1.090372,-3.22409 0.08093,-1.41505 0.229619,-2.78133 0.330729,-3.036 0.106479,-0.26819 0.466942,-0.42546 0.861447,-0.45526 z m -8.949841,5.6565 c 0.606835,0.005 1.309719,0.0329 2.130102,0.078 l 3.828706,0.21084 0.162782,1.00562 c 0.213749,1.31999 0.378953,1.45284 2.238621,1.80093 3.116112,0.58325 5.240089,0.12571 8.730218,-1.87999 1.425229,-0.81904 2.349818,-0.60324 2.761589,0.6444 0.599451,1.81636 -0.380003,3.86332 -2.460831,5.14439 -1.203212,0.74076 -6.97584,2.36184 -9.951331,2.79466 -3.601659,0.52392 -6.130883,0.68513 -6.897254,0.43925 -2.21307,-0.71004 -5.069435,-3.1503 -5.446696,-4.65346 -0.258641,-1.0305 0.07751,-2.99102 0.679545,-3.96513 0.76899,-1.24421 1.594927,-1.64282 4.224549,-1.61954 z m 19.264974,10.47429 c 1.312891,-0.0218 2.050301,0.16785 2.436026,0.58188 1.675652,1.79859 1.294853,5.38469 -0.714168,6.72621 -1.439061,0.9609 -5.546556,2.47582 -9.297107,3.42873 -4.10198,1.04219 -5.309547,1.10045 -6.776846,0.32711 -1.685801,-0.8885 -3.7895,-2.58272 -4.36666,-3.51658 -0.885089,-1.43211 -0.52488,-3.57821 0.802018,-4.77904 0.751401,-0.68 4.03369,-1.36823 8.763289,-1.83761 2.318051,-0.23004 5.071911,-0.52942 6.12004,-0.6656 1.25055,-0.16247 2.245672,-0.25203 3.033408,-0.2651 z m 3.896402,10.58437 c 2.132441,0 2.780329,0.47102 2.970879,2.16163 0.37719,3.34636 -1.888667,5.23411 -8.964829,7.46931 -3.47698,1.0983 -3.53667,1.13065 -4.142899,2.22415 -0.384849,0.69418 -0.80205,1.10949 -1.11466,1.10949 -0.68761,0 -3.878617,-3.0387 -4.528405,-4.3124 -1.154602,-2.2632 -0.626073,-4.69413 1.258837,-5.79086 1.53474,-0.89297 11.524277,-2.86132 14.521077,-2.86132 z m 3.589446,8.24859 c 0.34785,0.0398 0.777266,0.67803 1.41025,2.00401 1.71227,3.58691 4.091326,7.4668 5.082376,8.28839 0.63763,0.52859 3.282492,3.87169 3.282492,4.1491 0,0.12592 -0.35223,0.48982 -0.7829,0.80822 -0.43067,0.31841 -0.95565,0.57877 -1.16634,0.57877 -1.923066,0 -9.262036,-13.35947 -8.390187,-15.27297 0.176544,-0.38747 0.355598,-0.57938 0.564309,-0.55552 z"
       id="path971"
       inkscape:connector-curvature="0"
       sodipodi:nodetypes="ccccscssccccscsscsccsssccccscsccccscsccscccccccccccssccccccccccccccscccccccccccccccsscccccccccscccccscccccccsccccccccsccccccccssscccccccscsccsccccscccsssccccccsssccsccccccccscssccscscccccsccsccscccsccccccscccccccccccccccccccccccccscccccccssccccscsccscsccsccsscccccscscssccsccccccccccccccccccccccccsccscccscccccccscsccscscccscsssssscscscsccscscsc" />
    <rect
       style="fill:#313536;fill-opacity:1;stroke:none;stroke-width:0.252341;stroke-miterlimit:4;stroke-dasharray:none"
       id="rect1123"
       width="107.20328"
       height="28.149488"
       x="36.078522"
       y="169.2951" />
    <g
       style="fill:#ffffff"
       transform="matrix(0.96783588,0,0,0.96783588,0.97305886,-102.14897)"
       id="g1141">
      <path
         id="path1125"
         d="m 48.154469,283.7794 c -7.30644,0 -8.52761,0.14454 -9.02219,1.06868 -0.54845,1.02478 -0.29538,1.6864 1.125,2.94245 l 1.39423,1.23299 0.0868,5.21517 c 0.0477,2.86838 0.0191,5.48519 -0.0636,5.81465 -0.0937,0.37351 -0.58044,0.80118 -1.29243,1.13585 -1.30482,0.61333 -1.63151,0.95473 -1.87017,1.9549 -0.12723,0.53322 -0.0103,0.8981 0.46923,1.45521 0.78985,0.91863 1.38647,0.97563 11.41273,1.08934 6.96199,0.079 7.17445,0.0661 7.87136,-0.48212 0.52308,-0.41145 0.71623,-0.80134 0.71623,-1.44642 0,-0.88681 -0.31233,-1.25048 -2.23242,-2.59676 l -0.67799,-0.47543 v -8.03825 c 0,-6.955 -0.0557,-8.09453 -0.41548,-8.45426 -0.35728,-0.35729 -1.41289,-0.416 -7.50135,-0.416 z"
         style="fill:#ffffff;fill-opacity:1;stroke-width:0.264583"
         inkscape:connector-curvature="0" />
      <path
         id="path1127"
         d="m 61.532459,284.01247 c -2.16685,0.17137 -3.07553,0.12176 -3.56877,0.48834 -1.58619,1.17885 -0.72001,3.10388 1.51722,3.37241 4.81179,0.5775 6.29371,1.20205 7.52874,3.17291 0.41348,0.65984 1.05459,1.43795 1.42472,1.7291 0.9435,0.74216 2.31747,0.68958 3.12694,-0.11988 0.62733,-0.62733 0.64957,-0.77518 0.64957,-4.33359 0,-2.68779 -0.0922,-3.76025 -0.34158,-3.96721 -0.21895,-0.18172 -2.65284,-0.30038 -6.77271,-0.3297 -1.5065,-0.0109 -2.66435,-0.0169 -3.56413,-0.0124 z"
         style="fill:#ffffff;fill-opacity:1;stroke-width:0.264583"
         inkscape:connector-curvature="0"
         sodipodi:nodetypes="ccccccscccc" />
      <path
         id="path1129"
         d="m 86.491659,284.06983 c -0.43466,0.003 -0.92444,0.0111 -1.47536,0.0222 -3.82601,0.0772 -4.35339,0.14684 -5.83478,0.77152 -2.72306,1.14821 -4.04686,2.53312 -4.76612,4.98676 -0.34805,1.18732 -0.34561,1.48984 0.0202,2.74815 0.67243,2.31312 2.11997,3.4503 10.15855,7.98248 0.2581,0.14552 1.14841,0.71686 1.97869,1.26968 1.51416,1.00817 1.70108,1.32194 1.83865,3.0856 0.0568,0.72851 0.20651,0.94872 0.73277,1.07796 0.92361,0.22686 9.19157,-0.006 10.32288,-0.29093 2.820771,-0.71022 4.758371,-3.18035 4.758371,-6.06579 0,-1.93728 -1.15912,-3.94142 -3.04271,-5.26065 -1.13971,-0.79823 -5.507321,-3.17101 -8.995831,-4.88704 -1.63961,-0.80653 -3.04271,-2.26111 -3.04271,-3.15484 0,-0.41662 0.11061,-0.96457 0.24598,-1.21751 0.47425,-0.88614 0.14407,-1.09008 -2.89853,-1.06762 z"
         style="fill:#ffffff;fill-opacity:1;stroke-width:0.264583"
         inkscape:connector-curvature="0" />
      <path
         id="path1131"
         d="m 99.891879,284.07565 c -0.73807,-0.003 -1.60972,0.006 -2.6293,0.0201 -5.15067,0.0733 -5.73465,0.12814 -6.23889,0.58497 -0.60189,0.5453 -0.71795,1.47833 -0.28422,2.28875 0.39975,0.74694 1.54489,1.25008 3.58582,1.57612 2.24864,0.35923 3.66588,1.13289 4.22197,2.30479 0.49872,1.05098 1.792131,1.92249 2.854601,1.92389 0.47483,0 1.03039,-0.28107 1.52136,-0.77203 0.77202,-0.77203 0.77308,-0.77967 0.77308,-4.069 0,-2.52344 -0.0881,-3.3678 -0.37569,-3.60651 -0.20218,-0.1678 -1.21451,-0.24683 -3.428731,-0.25114 z"
         style="fill:#ffffff;fill-opacity:1;stroke-width:0.264583"
         inkscape:connector-curvature="0" />
      <path
         id="path1133"
         d="m 119.11138,284.35884 c -0.931,-0.003 -1.95229,0 -3.02669,0.01 -7.23557,0.069 -7.62261,0.0984 -8.33438,0.62839 -1.36214,1.01407 -1.15307,2.73016 0.43099,3.53827 1.82051,0.92877 1.865,1.09257 1.865,6.8244 0,4.99862 -0.0135,5.12601 -0.61185,5.69629 -0.33659,0.32081 -0.9927,0.78643 -1.45779,1.03508 -1.62711,0.8699 -1.68732,2.87245 -0.11059,3.67522 0.70617,0.35954 2.11949,0.42842 9.41338,0.45837 8.28611,0.0341 8.60655,0.0164 9.27385,-0.50848 0.4908,-0.38608 0.69091,-0.7919 0.69091,-1.39994 0,-1.01621 -0.33087,-1.47338 -1.62574,-2.2443 -0.57075,-0.3398 -1.03658,-0.86026 -1.1405,-1.27434 -0.0966,-0.38491 -0.15225,-4.14573 -0.1235,-8.35763 0.0429,-6.28166 -0.0135,-7.70165 -0.31471,-7.9008 -0.15598,-0.10314 -2.1354,-0.17042 -4.92838,-0.18034 z"
         style="fill:#ffffff;fill-opacity:1;stroke-width:0.264583"
         inkscape:connector-curvature="0" />
      <path
         id="path1135"
         d="m 126.6458,284.46837 -0.62684,0.72864 c -1.14557,1.33183 -0.55595,2.64615 1.48984,3.32073 1.79735,0.59267 1.97508,0.87747 2.07739,3.33108 0.0886,2.12413 0.0606,2.25499 -0.60927,2.87578 -0.386,0.35774 -1.2933,0.79238 -2.01641,0.96584 -1.40742,0.33763 -1.83544,0.81266 -1.82883,2.02882 0.006,1.07918 0.3403,1.45534 1.48983,1.67741 1.60959,0.31091 10.41583,0.28855 12.14449,-0.031 2.6314,-0.48644 4.74623,-1.91027 5.57847,-3.75584 0.67852,-1.50469 0.66668,-4.2045 -0.0248,-5.61258 -0.76071,-1.54898 -3.09051,-3.76597 -4.70101,-4.47363 -1.82043,-0.79989 -2.86697,-0.92398 -8.37417,-0.99528 z"
         style="fill:#ffffff;fill-opacity:1;stroke-width:0.264583"
         inkscape:connector-curvature="0" />
      <path
         id="path1137"
         d="m 63.348369,292.46995 c -0.71172,0.0135 -1.44822,0.27993 -2.04225,0.79582 -0.55018,0.47784 -1.2895,0.80912 -2.01435,0.90331 -1.51731,0.19722 -2.16214,0.81029 -2.16214,2.05465 0,1.20092 0.30456,1.47627 1.89549,1.71307 0.87297,0.12994 1.52187,0.44699 2.2164,1.08315 0.79547,0.72864 1.19607,0.89916 2.10995,0.89916 0.70761,0 1.35572,-0.18423 1.73891,-0.49453 0.54374,-0.44029 0.62295,-0.77287 0.72141,-3.02411 0.10644,-2.4335 0.085,-2.55521 -0.56948,-3.20963 -0.49525,-0.49525 -1.18222,-0.73438 -1.89394,-0.72089 z"
         style="fill:#ffffff;fill-opacity:1;stroke-width:0.264583"
         inkscape:connector-curvature="0" />
      <path
         id="path1139"
         d="m 76.269549,297.35959 c -0.61695,-0.0225 -1.23553,0.17933 -1.74357,0.63717 -0.39484,0.35583 -0.46302,0.91321 -0.46302,3.78375 0,2.40652 0.0961,3.44599 0.33745,3.64628 0.38139,0.31652 9.01714,0.84195 10.64276,0.64751 0.58208,-0.0696 1.2667,-0.31088 1.52136,-0.53589 0.56668,-0.50067 0.59738,-1.68187 0.0698,-2.70216 -0.34521,-0.66757 -0.58109,-0.78065 -1.91823,-0.92088 -2.73333,-0.2866 -4.3851,-0.66511 -4.88756,-1.11982 -0.27121,-0.24546 -0.72173,-0.96335 -1.00149,-1.59576 -0.5047,-1.14099 -1.52922,-1.80263 -2.55746,-1.8402 z"
         style="fill:#ffffff;fill-opacity:1;stroke-width:0.264583"
         inkscape:connector-curvature="0" />
    </g>
  </g>
</svg>
