<?xml version="1.0" encoding="UTF-8" standalone="no"?>
<svg
   width="112.42969pt"
   height="38.964844pt"
   viewBox="0 0 112.42969 38.964844"
   version="1.2"
   id="svg1320"
   sodipodi:docname="md-pas.svg"
   inkscape:version="1.1.2 (b8e25be833, 2022-02-05)"
   xmlns:inkscape="http://www.inkscape.org/namespaces/inkscape"
   xmlns:sodipodi="http://sodipodi.sourceforge.net/DTD/sodipodi-0.dtd"
   xmlns:xlink="http://www.w3.org/1999/xlink"
   xmlns="http://www.w3.org/2000/svg"
   xmlns:svg="http://www.w3.org/2000/svg">
  <sodipodi:namedview
     id="namedview1322"
     pagecolor="#505050"
     bordercolor="#eeeeee"
     borderopacity="1"
     inkscape:pageshadow="0"
     inkscape:pageopacity="0"
     inkscape:pagecheckerboard="0"
     inkscape:document-units="pt"
     showgrid="false"
     fit-margin-top="0"
     fit-margin-left="0"
     fit-margin-right="0"
     fit-margin-bottom="0"
     inkscape:zoom="0.66441927"
     inkscape:cx="364.22785"
     inkscape:cy="526.77581"
     inkscape:window-width="1920"
     inkscape:window-height="1017"
     inkscape:window-x="-8"
     inkscape:window-y="-8"
     inkscape:window-maximized="1"
     inkscape:current-layer="svg1320" />
  <defs
     id="defs373">
    <g
       id="g332">
      <symbol
         overflow="visible"
         id="glyph0-0">
        <path
           style="stroke:none"
           d="M 2.3125,0 V -19.453125 H 16.09375 V 0 Z M 4.375,-2.0625 h 9.65625 V -17.390625 H 4.375 Z m 0,0"
           id="path2" />
      </symbol>
      <symbol
         overflow="visible"
         id="glyph0-1">
        <path
           style="stroke:none"
           d="M 25.359375,0 H 2.46875 v -19.953125 h 3.3125 v 17.0625 h 6.484375 v -17.0625 H 15.5625 v 17.0625 h 6.484375 v -17.0625 h 3.3125 z m 0,0"
           id="path5" />
      </symbol>
      <symbol
         overflow="visible"
         id="glyph0-2">
        <path
           style="stroke:none"
           d="M 18.859375,0 H 15.21875 L 13.421875,-5.078125 H 5.578125 L 3.859375,0 h -3.625 l 7.46875,-19.953125 H 11.4375 Z m -6.3125,-7.78125 -2.765625,-7.953125 c -0.085938,-0.257813 -0.171875,-0.675781 -0.265625,-1.25 H 9.46875 c -0.085938,0.523437 -0.179688,0.9375 -0.28125,1.25 l -2.75,7.953125 z m 0,0"
           id="path8" />
      </symbol>
      <symbol
         overflow="visible"
         id="glyph0-3">
        <path
           style="stroke:none"
           d="M 13.515625,-17.09375 H 5.78125 V 0 h -3.3125 v -19.953125 h 11.046875 z m 0,0"
           id="path11" />
      </symbol>
      <symbol
         overflow="visible"
         id="glyph0-4">
        <path
           style="stroke:none"
           d="M 5.125,-3.328125 2.96875,3.625 H 0.546875 l 1.53125,-6.953125 z m 0,0"
           id="path14" />
      </symbol>
      <symbol
         overflow="visible"
         id="glyph0-5">
        <path
           style="stroke:none"
           d="m 2.09375,0 v -14.25 h 6.8125 c 1.53125,0 2.738281,0.3125 3.625,0.9375 0.894531,0.617188 1.34375,1.464844 1.34375,2.546875 0,1.8125 -0.933594,2.917969 -2.796875,3.3125 2.21875,0.273437 3.328125,1.367187 3.328125,3.28125 0,1.179687 -0.46875,2.167969 -1.40625,2.96875 C 12.0625,-0.398438 10.894531,0 9.5,0 Z m 3.234375,-11.96875 v 3.546875 H 8.1875 c 1.613281,0 2.421875,-0.625 2.421875,-1.875 0,-1.113281 -0.710937,-1.671875 -2.125,-1.671875 z m 0,5.796875 v 3.875 h 3.3125 c 1.65625,0 2.484375,-0.664063 2.484375,-2 0,-1.25 -0.898438,-1.875 -2.6875,-1.875 z m 0,0"
           id="path17" />
      </symbol>
      <symbol
         overflow="visible"
         id="glyph0-6">
        <path
           style="stroke:none"
           d="m 14.4375,0 h -3.21875 v -5.375 c -1.625,0.886719 -3.121094,1.328125 -4.484375,1.328125 -3.210937,0 -4.8125,-1.742187 -4.8125,-5.234375 V -14.25 h 3.15625 v 4.515625 c 0,2.023437 0.785156,3.03125 2.359375,3.03125 1.175781,0 2.4375,-0.347656 3.78125,-1.046875 v -6.5 h 3.21875 z m 0,0"
           id="path20" />
      </symbol>
      <symbol
         overflow="visible"
         id="glyph0-7">
        <path
           style="stroke:none"
           d="M 13.046875,0 H 9.90625 V -2.234375 H 9.859375 c -0.992187,1.710937 -2.433594,2.5625 -4.328125,2.5625 -1.40625,0 -2.507812,-0.3789062 -3.296875,-1.140625 -0.792969,-0.757812 -1.1875,-1.765625 -1.1875,-3.015625 0,-2.6875 1.546875,-4.253906 4.640625,-4.703125 L 9.921875,-9.125 c 0,-2.03125 -0.964844,-3.046875 -2.890625,-3.046875 -1.699219,0 -3.230469,0.585937 -4.59375,1.75 V -13.25 c 1.5,-0.882812 3.234375,-1.328125 5.203125,-1.328125 3.601563,0 5.40625,1.773437 5.40625,5.3125 z M 9.921875,-7 6.9375,-6.578125 C 6,-6.460938 5.296875,-6.238281 4.828125,-5.90625 c -0.460937,0.335938 -0.6875,0.914062 -0.6875,1.734375 0,0.605469 0.210937,1.101563 0.640625,1.484375 0.425781,0.386719 1.003906,0.578125 1.734375,0.578125 0.976563,0 1.789063,-0.34375 2.4375,-1.03125 0.644531,-0.695313 0.96875,-1.570313 0.96875,-2.625 z m 0,0"
           id="path23" />
      </symbol>
      <symbol
         overflow="visible"
         id="glyph0-8">
        <path
           style="stroke:none"
           d="M 12.296875,-0.65625 C 11.160156,0 9.8125,0.328125 8.25,0.328125 c -2.117188,0 -3.824219,-0.65625 -5.125,-1.96875 -1.292969,-1.320313 -1.9375,-3.039063 -1.9375,-5.15625 0,-2.34375 0.695312,-4.222656 2.09375,-5.640625 1.394531,-1.425781 3.257812,-2.140625 5.59375,-2.140625 1.300781,0 2.445312,0.226563 3.4375,0.671875 v 3.015625 c -0.992188,-0.75 -2.046875,-1.125 -3.171875,-1.125 -1.367187,0 -2.484375,0.464844 -3.359375,1.390625 -0.867188,0.929688 -1.296875,2.136719 -1.296875,3.625 0,1.480469 0.40625,2.648438 1.21875,3.5 0.820313,0.84375 1.925781,1.265625 3.3125,1.265625 1.15625,0 2.25,-0.410156 3.28125,-1.234375 z m 0,0"
           id="path26" />
      </symbol>
      <symbol
         overflow="visible"
         id="glyph0-9">
        <path
           style="stroke:none"
           d="M 11.8125,-11.671875 H 7.75 V 0 H 4.515625 V -11.671875 H 0.421875 V -14.25 H 11.8125 Z m 0,0"
           id="path29" />
      </symbol>
      <symbol
         overflow="visible"
         id="glyph0-10">
        <path
           style="stroke:none"
           d="m 14.796875,0 h -3.25 V -6.234375 H 5.34375 V 0 h -3.25 v -14.25 h 3.25 v 5.59375 h 6.203125 V -14.25 h 3.25 z m 0,0"
           id="path32" />
      </symbol>
      <symbol
         overflow="visible"
         id="glyph0-11">
        <path
           style="stroke:none"
           d="M 8.421875,0.328125 C 6.222656,0.328125 4.46875,-0.332031 3.15625,-1.65625 1.84375,-2.988281 1.1875,-4.753906 1.1875,-6.953125 c 0,-2.394531 0.679688,-4.265625 2.046875,-5.609375 1.363281,-1.34375 3.207031,-2.015625 5.53125,-2.015625 2.226563,0 3.960937,0.65625 5.203125,1.96875 1.25,1.304687 1.875,3.109375 1.875,5.421875 0,2.28125 -0.671875,4.105469 -2.015625,5.46875 -1.34375,1.367188 -3.148437,2.046875 -5.40625,2.046875 z m 0.15625,-12.34375 c -1.261719,0 -2.261719,0.445313 -3,1.328125 -0.730469,0.886719 -1.09375,2.101562 -1.09375,3.640625 0,1.5 0.367187,2.679687 1.109375,3.53125 0.738281,0.855469 1.734375,1.28125 2.984375,1.28125 1.269531,0 2.242187,-0.421875 2.921875,-1.265625 0.6875,-0.84375 1.03125,-2.039062 1.03125,-3.59375 0,-1.570312 -0.34375,-2.785156 -1.03125,-3.640625 -0.679688,-0.851563 -1.652344,-1.28125 -2.921875,-1.28125 z m 0,0"
           id="path35" />
      </symbol>
      <symbol
         overflow="visible"
         id="glyph0-12">
        <path
           style="stroke:none"
           d="M 15.046875,0 H 12.125 v -10.453125 c -0.1875,0.375 -0.476562,0.890625 -0.859375,1.546875 L 5.28125,0 H 2.09375 V -14.25 H 5.0625 v 10.234375 c 0.101562,-0.238281 0.320312,-0.65625 0.65625,-1.25 L 11.796875,-14.25 h 3.25 z m 0,0"
           id="path38" />
      </symbol>
      <symbol
         overflow="visible"
         id="glyph0-13">
        <path
           style="stroke:none"
           d="M 14.4375,-14.25 8.015625,2.28125 c -1.335937,2.945312 -3.210937,4.421875 -5.625,4.421875 -0.679687,0 -1.242187,-0.058594 -1.6875,-0.171875 v -2.6875 c 0.507813,0.164062 0.972656,0.25 1.390625,0.25 1.195312,0 2.09375,-0.59375 2.6875,-1.78125 L 5.75,-0.03125 0.078125,-14.25 H 3.65625 L 7.0625,-3.890625 c 0.03125,0.125 0.113281,0.46875 0.25,1.03125 H 7.375 C 7.414062,-3.078125 7.5,-3.414062 7.625,-3.875 l 3.5625,-10.375 z m 0,0"
           id="path41" />
      </symbol>
      <symbol
         overflow="visible"
         id="glyph0-14">
        <path
           style="stroke:none"
           d="m 14.796875,0 h -3.25 V -11.78125 H 5.34375 V 0 h -3.25 v -14.25 h 12.703125 z m 0,0"
           id="path44" />
      </symbol>
      <symbol
         overflow="visible"
         id="glyph0-15">
        <path
           style="stroke:none"
           d="m 5.390625,-2.09375 h -0.0625 V 6.546875 H 2.09375 V -14.25 h 3.234375 v 2.5 h 0.0625 c 1.101563,-1.882812 2.71875,-2.828125 4.84375,-2.828125 1.800781,0 3.207031,0.636719 4.21875,1.90625 1.007813,1.273437 1.515625,2.976563 1.515625,5.109375 0,2.375 -0.574219,4.28125 -1.71875,5.71875 -1.136719,1.429688 -2.6875,2.140625 -4.65625,2.140625 -1.824219,0 -3.226562,-0.796875 -4.203125,-2.390625 z m -0.09375,-5.625 v 1.765625 c 0,1.042969 0.332031,1.921875 1,2.640625 0.664063,0.71875 1.507813,1.078125 2.53125,1.078125 1.195313,0 2.132813,-0.460937 2.8125,-1.390625 0.675781,-0.9375 1.015625,-2.238281 1.015625,-3.90625 0,-1.394531 -0.320312,-2.488281 -0.953125,-3.28125 -0.636719,-0.800781 -1.496094,-1.203125 -2.578125,-1.203125 -1.148438,0 -2.074219,0.414063 -2.78125,1.234375 -0.699219,0.8125 -1.046875,1.835938 -1.046875,3.0625 z m 0,0"
           id="path47" />
      </symbol>
      <symbol
         overflow="visible"
         id="glyph0-16">
        <path
           style="stroke:none"
           d="m 13.890625,0 h -3.25 V -11.78125 H 7.734375 C 7.328125,-7.375 6.628906,-4.273438 5.640625,-2.484375 4.648438,-0.703125 3.320312,0.1875 1.65625,0.1875 c -0.554688,0 -1.03125,-0.085938 -1.4375,-0.25 v -2.40625 c 0.320312,0.15625 0.671875,0.234375 1.046875,0.234375 2,0 3.28125,-4.003906 3.84375,-12.015625 h 8.78125 z m 0,0"
           id="path50" />
      </symbol>
      <symbol
         overflow="visible"
         id="glyph0-17">
        <path
           style="stroke:none"
           d="m 14.171875,-6.25 h -9.71875 c 0.039063,1.324219 0.445313,2.34375 1.21875,3.0625 0.769531,0.710938 1.832031,1.0625 3.1875,1.0625 1.519531,0 2.914063,-0.457031 4.1875,-1.375 v 2.609375 c -1.292969,0.8125 -3.007813,1.21875 -5.140625,1.21875 -2.09375,0 -3.742188,-0.644531 -4.9375,-1.9375 C 1.78125,-2.898438 1.1875,-4.71875 1.1875,-7.0625 c 0,-2.21875 0.65625,-4.023438 1.96875,-5.421875 1.3125,-1.394531 2.941406,-2.09375 4.890625,-2.09375 1.945313,0 3.453125,0.625 4.515625,1.875 1.070312,1.25 1.609375,2.992187 1.609375,5.21875 z m -3.125,-2.28125 C 11.035156,-9.6875 10.757812,-10.585938 10.21875,-11.234375 9.6875,-11.878906 8.945312,-12.203125 8,-12.203125 c -0.929688,0 -1.714844,0.339844 -2.359375,1.015625 -0.648437,0.679688 -1.042969,1.5625 -1.1875,2.65625 z m 0,0"
           id="path53" />
      </symbol>
      <symbol
         overflow="visible"
         id="glyph0-18">
        <path
           style="stroke:none"
           d=""
           id="path56" />
      </symbol>
      <symbol
         overflow="visible"
         id="glyph0-19">
        <path
           style="stroke:none"
           d="m 13.828125,-21.328125 v 2.734375 c -0.367187,0.25 -0.964844,0.4375 -1.796875,0.5625 -2.042969,0.28125 -3.46875,0.558594 -4.28125,0.828125 -0.804688,0.261719 -1.464844,0.824219 -1.984375,1.6875 -0.523437,0.855469 -0.855469,2.105469 -1,3.75 H 4.8125 c 1.0625,-1.425781 2.578125,-2.140625 4.546875,-2.140625 1.894531,0 3.421875,0.636719 4.578125,1.90625 1.164062,1.261719 1.75,2.933594 1.75,5.015625 0,2.210937 -0.648438,3.980469 -1.9375,5.3125 -1.28125,1.335937 -3.011719,2 -5.1875,2 -2.304688,0 -4.074219,-0.78125 -5.3125,-2.34375 -1.242188,-1.570313 -1.859375,-3.8125 -1.859375,-6.71875 0,-2.25 0.222656,-4.148437 0.671875,-5.703125 0.457031,-1.5625 1.085938,-2.738281 1.890625,-3.53125 0.8125,-0.789062 1.707031,-1.332031 2.6875,-1.625 0.988281,-0.300781 2.679687,-0.648438 5.078125,-1.046875 0.945312,-0.195313 1.648438,-0.425781 2.109375,-0.6875 z M 4.71875,-9.125 v 1.78125 C 4.726562,-6.6875 4.820312,-6.035156 5,-5.390625 c 0.1875,0.648437 0.453125,1.214844 0.796875,1.703125 0.34375,0.492188 0.75,0.855469 1.21875,1.09375 0.476563,0.242188 1.019531,0.359375 1.625,0.359375 1.113281,0 2.015625,-0.421875 2.703125,-1.265625 0.695312,-0.84375 1.046875,-1.929688 1.046875,-3.265625 0,-1.414063 -0.355469,-2.539063 -1.0625,-3.375 -0.699219,-0.84375 -1.648437,-1.265625 -2.84375,-1.265625 -1.667969,0 -2.921875,0.761719 -3.765625,2.28125 z m 0,0"
           id="path59" />
      </symbol>
      <symbol
         overflow="visible"
         id="glyph0-20">
        <path
           style="stroke:none"
           d="m 22.515625,0 h -4.03125 l -5.5625,-7.078125 h -0.0625 V 0 H 9.71875 V -7.078125 H 9.671875 L 4.09375,0 H 0.078125 L 6.40625,-7.40625 0.375,-14.25 h 3.921875 l 5.359375,6.703125 h 0.0625 V -14.25 h 3.140625 v 6.703125 h 0.0625 L 18.265625,-14.25 h 3.9375 l -6.046875,6.84375 z m 0,0"
           id="path62" />
      </symbol>
      <symbol
         overflow="visible"
         id="glyph0-21">
        <path
           style="stroke:none"
           d="M 15.046875,0 H 12.125 v -10.453125 c -0.1875,0.375 -0.476562,0.890625 -0.859375,1.546875 L 5.28125,0 H 2.09375 V -14.25 H 5.0625 v 10.234375 c 0.101562,-0.238281 0.320312,-0.65625 0.65625,-1.25 L 11.796875,-14.25 h 3.25 z m -0.9375,-21.109375 c -0.148437,1.398437 -0.71875,2.496094 -1.71875,3.296875 -0.992187,0.804688 -2.242187,1.203125 -3.75,1.203125 -1.53125,0 -2.789063,-0.398437 -3.765625,-1.203125 -0.96875,-0.800781 -1.5,-1.898438 -1.59375,-3.296875 h 2.6875 c 0.132812,1.6875 1.039062,2.53125 2.71875,2.53125 0.738281,0 1.351562,-0.21875 1.84375,-0.65625 0.488281,-0.445313 0.785156,-1.070313 0.890625,-1.875 z m 0,0"
           id="path65" />
      </symbol>
      <symbol
         overflow="visible"
         id="glyph0-22">
        <path
           style="stroke:none"
           d="M 21.484375,0 H 2.09375 v -14.25 h 3.25 v 11.78125 h 4.828125 V -14.25 h 3.25 V -2.46875 H 18.25 V -14.25 h 3.234375 z m 0,0"
           id="path68" />
      </symbol>
      <symbol
         overflow="visible"
         id="glyph0-23">
        <path
           style="stroke:none"
           d="m 14.015625,-14.25 -4.75,7.203125 L 13.953125,0 H 10.21875 L 7.703125,-4.40625 C 7.546875,-4.675781 7.363281,-5.019531 7.15625,-5.4375 H 7.09375 C 7.0625,-5.351562 6.867188,-5.007812 6.515625,-4.40625 L 3.96875,0 H 0.234375 L 5.078125,-6.984375 0.484375,-14.25 H 4.25 l 2.453125,4.640625 c 0.1875,0.34375 0.367187,0.695313 0.546875,1.046875 h 0.046875 l 3.1875,-5.6875 z m 0,0"
           id="path71" />
      </symbol>
      <symbol
         overflow="visible"
         id="glyph0-24">
        <path
           style="stroke:none"
           d="M 12.890625,-19.953125 V -7.0625 h 2.953125 v 2.671875 H 12.890625 V 0 H 9.75 V -4.390625 H 0.71875 V -7.09375 c 0.820312,-0.914062 1.660156,-1.910156 2.515625,-2.984375 0.851563,-1.070313 1.675781,-2.164063 2.46875,-3.28125 0.800781,-1.125 1.539063,-2.242187 2.21875,-3.359375 0.675781,-1.125 1.242187,-2.203125 1.703125,-3.234375 z M 9.75,-7.0625 v -8.390625 c -1.011719,1.824219 -2.011719,3.414063 -3,4.765625 -0.980469,1.355469 -1.902344,2.5625 -2.765625,3.625 z m 0,0"
           id="path74" />
      </symbol>
      <symbol
         overflow="visible"
         id="glyph0-25">
        <path
           style="stroke:none"
           d="M 9.609375,-6.59375 H 2 v -2.375 h 7.609375 z m 0,0"
           id="path77" />
      </symbol>
      <symbol
         overflow="visible"
         id="glyph3-0">
        <path
           style="stroke:none"
           d="m 0.90625,0 v -7.671875 h 5.4375 V 0 Z m 0.8125,-0.8125 h 3.8125 v -6.046875 h -3.8125 z m 0,0"
           id="path80" />
      </symbol>
      <symbol
         overflow="visible"
         id="glyph3-1">
        <path
           style="stroke:none"
           d="m 7.328125,0 h -1.3125 V -6.703125 H 2.28125 V 0 h -1.3125 v -7.875 h 6.359375 z m 0,0"
           id="path83" />
      </symbol>
      <symbol
         overflow="visible"
         id="glyph3-2">
        <path
           style="stroke:none"
           d="M 5.140625,0 H 3.90625 V -0.875 H 3.890625 c -0.386719,0.667969 -0.953125,1 -1.703125,1 -0.5625,0 -1,-0.1445312 -1.3125,-0.4375 -0.3125,-0.300781 -0.46875,-0.703125 -0.46875,-1.203125 0,-1.0625 0.613281,-1.679687 1.84375,-1.859375 l 1.671875,-0.234375 c 0,-0.800781 -0.382813,-1.203125 -1.140625,-1.203125 -0.679688,0 -1.28125,0.234375 -1.8125,0.703125 v -1.125 C 1.550781,-5.578125 2.234375,-5.75 3.015625,-5.75 c 1.414063,0 2.125,0.699219 2.125,2.09375 z m -1.21875,-2.765625 -1.1875,0.171875 c -0.367187,0.042969 -0.640625,0.132812 -0.828125,0.265625 -0.1875,0.125 -0.28125,0.355469 -0.28125,0.6875 0,0.230469 0.082031,0.421875 0.25,0.578125 0.175781,0.15625 0.410156,0.234375 0.703125,0.234375 0.382813,0 0.703125,-0.132813 0.953125,-0.40625 0.257812,-0.28125 0.390625,-0.628906 0.390625,-1.046875 z m 0,0"
           id="path86" />
      </symbol>
      <symbol
         overflow="visible"
         id="glyph3-3">
        <path
           style="stroke:none"
           d="M 2.125,-0.828125 H 2.109375 V 2.59375 H 0.828125 V -5.625 h 1.28125 v 0.984375 H 2.125 C 2.5625,-5.378906 3.195312,-5.75 4.03125,-5.75 4.75,-5.75 5.304688,-5.5 5.703125,-5 c 0.40625,0.5 0.609375,1.171875 0.609375,2.015625 0,0.9375 -0.230469,1.6875 -0.6875,2.25 -0.449219,0.5625 -1.0625,0.84375 -1.84375,0.84375 -0.71875,0 -1.273438,-0.3125 -1.65625,-0.9375 z m -0.03125,-2.21875 v 0.703125 c 0,0.40625 0.128906,0.757812 0.390625,1.046875 0.257813,0.28125 0.59375,0.421875 1,0.421875 0.46875,0 0.835937,-0.179688 1.109375,-0.546875 C 4.863281,-1.796875 5,-2.3125 5,-2.96875 5,-3.519531 4.875,-3.953125 4.625,-4.265625 4.375,-4.578125 4.035156,-4.734375 3.609375,-4.734375 3.148438,-4.734375 2.78125,-4.570312 2.5,-4.25 2.226562,-3.9375 2.09375,-3.535156 2.09375,-3.046875 Z m 0,0"
           id="path89" />
      </symbol>
      <symbol
         overflow="visible"
         id="glyph3-4">
        <path
           style="stroke:none"
           d="M 4.65625,-4.609375 H 3.0625 V 0 H 1.78125 V -4.609375 H 0.171875 V -5.625 H 4.65625 Z m 0,0"
           id="path92" />
      </symbol>
      <symbol
         overflow="visible"
         id="glyph3-5">
        <path
           style="stroke:none"
           d="M 5.9375,0 H 4.78125 V -4.125 C 4.707031,-3.976562 4.597656,-3.773438 4.453125,-3.515625 L 2.078125,0 h -1.25 V -5.625 H 2 v 4.046875 c 0.039062,-0.09375 0.125,-0.257813 0.25,-0.5 L 4.65625,-5.625 H 5.9375 Z m 0,0"
           id="path95" />
      </symbol>
      <symbol
         overflow="visible"
         id="glyph3-6">
        <path
           style="stroke:none"
           d="M 5.15625,0 H 3.890625 v -2.21875 h -0.65625 c -0.3125,0 -0.59375,0.28125 -0.84375,0.84375 L 1.71875,0 H 0.265625 L 1.15625,-1.671875 C 1.40625,-2.097656 1.710938,-2.382812 2.078125,-2.53125 1.628906,-2.582031 1.285156,-2.738281 1.046875,-3 0.804688,-3.269531 0.6875,-3.601562 0.6875,-4 c 0,-0.5 0.195312,-0.894531 0.59375,-1.1875 0.40625,-0.289062 0.945312,-0.4375 1.625,-0.4375 h 2.25 z M 3.890625,-3.109375 v -1.59375 h -0.875 c -0.6875,0 -1.03125,0.261719 -1.03125,0.78125 0,0.542969 0.335937,0.8125 1.015625,0.8125 z m 0,0"
           id="path98" />
      </symbol>
      <symbol
         overflow="visible"
         id="glyph3-7">
        <path
           style="stroke:none"
           d=""
           id="path101" />
      </symbol>
      <symbol
         overflow="visible"
         id="glyph3-8">
        <path
           style="stroke:none"
           d="m 1.96875,-7.921875 v 2.453125 h -1 v -2.453125 z m 1.984375,0 V -5.46875 H 2.9375 v -2.453125 z m 0,0"
           id="path104" />
      </symbol>
      <symbol
         overflow="visible"
         id="glyph3-9">
        <path
           style="stroke:none"
           d="M 7.828125,2.125 H 6.65625 V 0 H 1.296875 v 2.125 h -1.15625 v -3.234375 h 0.65625 C 1.296875,-2.035156 1.71875,-3.113281 2.0625,-4.34375 2.40625,-5.582031 2.597656,-6.757812 2.640625,-7.875 h 4.09375 v 6.765625 h 1.09375 z M 5.421875,-1.109375 V -6.75 H 3.71875 c -0.054688,0.824219 -0.230469,1.789062 -0.53125,2.890625 -0.304688,1.09375 -0.640625,2.011719 -1.015625,2.75 z m 0,0"
           id="path107" />
      </symbol>
      <symbol
         overflow="visible"
         id="glyph3-10">
        <path
           style="stroke:none"
           d="M 5.59375,-2.46875 H 1.765625 c 0.00781,0.523438 0.164063,0.921875 0.46875,1.203125 0.3125,0.28125 0.734375,0.421875 1.265625,0.421875 0.601562,0 1.15625,-0.175781 1.65625,-0.53125 v 1.015625 C 4.644531,-0.0351562 3.96875,0.125 3.125,0.125 2.289062,0.125 1.640625,-0.128906 1.171875,-0.640625 0.703125,-1.148438 0.46875,-1.867188 0.46875,-2.796875 c 0,-0.875 0.253906,-1.582031 0.765625,-2.125 C 1.753906,-5.472656 2.398438,-5.75 3.171875,-5.75 c 0.769531,0 1.363281,0.246094 1.78125,0.734375 0.425781,0.492187 0.640625,1.179687 0.640625,2.0625 z M 4.359375,-3.375 c 0,-0.445312 -0.109375,-0.796875 -0.328125,-1.046875 -0.210938,-0.257813 -0.5,-0.390625 -0.875,-0.390625 -0.367188,0 -0.679688,0.136719 -0.9375,0.40625 -0.25,0.261719 -0.402344,0.605469 -0.453125,1.03125 z m 0,0"
           id="path110" />
      </symbol>
      <symbol
         overflow="visible"
         id="glyph3-11">
        <path
           style="stroke:none"
           d="M 5.9375,0 H 4.78125 V -4.125 C 4.707031,-3.976562 4.597656,-3.773438 4.453125,-3.515625 L 2.078125,0 h -1.25 V -5.625 H 2 v 4.046875 c 0.039062,-0.09375 0.125,-0.257813 0.25,-0.5 L 4.65625,-5.625 H 5.9375 Z M 5.5625,-8.328125 C 5.507812,-7.785156 5.285156,-7.351562 4.890625,-7.03125 4.492188,-6.71875 4,-6.5625 3.40625,-6.5625 c -0.605469,0 -1.101562,-0.15625 -1.484375,-0.46875 -0.386719,-0.320312 -0.59375,-0.753906 -0.625,-1.296875 h 1.0625 c 0.050781,0.667969 0.40625,1 1.0625,1 0.289063,0 0.53125,-0.085937 0.71875,-0.265625 0.195313,-0.175781 0.320313,-0.421875 0.375,-0.734375 z m 0,0"
           id="path113" />
      </symbol>
      <symbol
         overflow="visible"
         id="glyph3-12">
        <path
           style="stroke:none"
           d="M 4.859375,-0.265625 C 4.410156,-0.00390625 3.875,0.125 3.25,0.125 2.414062,0.125 1.742188,-0.132812 1.234375,-0.65625 0.722656,-1.175781 0.46875,-1.851562 0.46875,-2.6875 c 0,-0.925781 0.273438,-1.664062 0.828125,-2.21875 C 1.847656,-5.46875 2.582031,-5.75 3.5,-5.75 c 0.519531,0 0.972656,0.089844 1.359375,0.265625 v 1.1875 c -0.386719,-0.289063 -0.804687,-0.4375 -1.25,-0.4375 -0.542969,0 -0.984375,0.183594 -1.328125,0.546875 -0.34375,0.367188 -0.515625,0.839844 -0.515625,1.421875 0,0.585937 0.160156,1.046875 0.484375,1.390625 0.320312,0.335938 0.757812,0.5 1.3125,0.5 0.457031,0 0.890625,-0.164062 1.296875,-0.5 z m 0,0"
           id="path116" />
      </symbol>
      <symbol
         overflow="visible"
         id="glyph3-13">
        <path
           style="stroke:none"
           d="m 0.828125,0 v -5.625 h 2.6875 c 0.601563,0 1.082031,0.125 1.4375,0.375 0.351563,0.242188 0.53125,0.574219 0.53125,1 0,0.71875 -0.371094,1.15625 -1.109375,1.3125 0.875,0.105469 1.3125,0.539062 1.3125,1.296875 0,0.460937 -0.1875,0.851563 -0.5625,1.171875 C 4.757812,-0.15625 4.300781,0 3.75,0 Z m 1.28125,-4.71875 v 1.390625 h 1.125 c 0.632813,0 0.953125,-0.242187 0.953125,-0.734375 0,-0.4375 -0.28125,-0.65625 -0.84375,-0.65625 z m 0,2.28125 v 1.53125 H 3.40625 c 0.65625,0 0.984375,-0.265625 0.984375,-0.796875 0,-0.488281 -0.355469,-0.734375 -1.0625,-0.734375 z m 0,0"
           id="path119" />
      </symbol>
      <symbol
         overflow="visible"
         id="glyph3-14">
        <path
           style="stroke:none"
           d="M 6.46875,-0.328125 C 5.875,-0.0234375 5.132812,0.125 4.25,0.125 3.101562,0.125 2.1875,-0.234375 1.5,-0.953125 0.8125,-1.671875 0.46875,-2.617188 0.46875,-3.796875 c 0,-1.257813 0.382812,-2.273437 1.15625,-3.046875 0.78125,-0.78125 1.765625,-1.171875 2.953125,-1.171875 0.757813,0 1.390625,0.109375 1.890625,0.328125 v 1.296875 c -0.53125,-0.3125 -1.121094,-0.46875 -1.765625,-0.46875 -0.855469,0 -1.546875,0.277344 -2.078125,0.828125 -0.523438,0.542969 -0.78125,1.265625 -0.78125,2.171875 0,0.875 0.242188,1.570313 0.734375,2.078125 0.5,0.511719 1.148437,0.765625 1.953125,0.765625 0.738281,0 1.382812,-0.171875 1.9375,-0.515625 z m 0,0"
           id="path122" />
      </symbol>
      <symbol
         overflow="visible"
         id="glyph3-15">
        <path
           style="stroke:none"
           d="m 3.328125,0.125 c -0.875,0 -1.574219,-0.257812 -2.09375,-0.78125 C 0.722656,-1.175781 0.46875,-1.875 0.46875,-2.75 c 0,-0.9375 0.269531,-1.671875 0.8125,-2.203125 C 1.820312,-5.484375 2.546875,-5.75 3.453125,-5.75 c 0.882813,0 1.570313,0.261719 2.0625,0.78125 C 6.003906,-4.457031 6.25,-3.742188 6.25,-2.828125 c 0,0.898437 -0.265625,1.617187 -0.796875,2.15625 C 4.921875,-0.140625 4.210938,0.125 3.328125,0.125 Z m 0.0625,-4.859375 c -0.5,0 -0.898437,0.171875 -1.1875,0.515625 -0.292969,0.34375 -0.4375,0.824219 -0.4375,1.4375 0,0.59375 0.144531,1.0625 0.4375,1.40625 0.289063,0.335938 0.6875,0.5 1.1875,0.5 0.5,0 0.878906,-0.164062 1.140625,-0.5 0.269531,-0.332031 0.40625,-0.804688 0.40625,-1.421875 0,-0.625 -0.136719,-1.101563 -0.40625,-1.4375 -0.261719,-0.332031 -0.640625,-0.5 -1.140625,-0.5 z m 0,0"
           id="path125" />
      </symbol>
      <symbol
         overflow="visible"
         id="glyph3-16">
        <path
           style="stroke:none"
           d="m 5.484375,0 h -1.28125 v -4.65625 h -1.15625 c -0.15625,1.742188 -0.433594,2.964844 -0.828125,3.671875 -0.386719,0.710937 -0.90625,1.0625 -1.5625,1.0625 -0.21875,0 -0.40625,-0.03125 -0.5625,-0.09375 V -0.96875 c 0.125,0.0625 0.257812,0.09375 0.40625,0.09375 0.789062,0 1.296875,-1.582031 1.515625,-4.75 h 3.46875 z m 0,0"
           id="path128" />
      </symbol>
      <symbol
         overflow="visible"
         id="glyph3-17">
        <path
           style="stroke:none"
           d="M 6.21875,2.046875 H 5.15625 V 0 H 1.140625 V 2.046875 H 0.09375 V -0.96875 h 0.5 c 0.894531,-1.320312 1.351562,-2.875 1.375,-4.65625 h 3.375 v 4.65625 h 0.875 z M 4.078125,-0.96875 v -3.6875 H 3 c -0.085938,1.367188 -0.453125,2.59375 -1.109375,3.6875 z m 0,0"
           id="path131" />
      </symbol>
      <symbol
         overflow="visible"
         id="glyph3-18">
        <path
           style="stroke:none"
           d="M 5.84375,0 H 4.5625 V -2.46875 H 2.109375 V 0 h -1.28125 v -5.625 h 1.28125 v 2.203125 H 4.5625 V -5.625 h 1.28125 z m 0,0"
           id="path134" />
      </symbol>
      <symbol
         overflow="visible"
         id="glyph3-19">
        <path
           style="stroke:none"
           d="m 0.828125,0 v -5.625 h 1.28125 v 2.078125 h 1.5 c 0.59375,0 1.0625,0.15625 1.40625,0.46875 0.351563,0.304687 0.53125,0.726563 0.53125,1.265625 0,0.5625 -0.179687,1.007812 -0.53125,1.328125 C 4.671875,-0.160156 4.234375,0 3.703125,0 Z m 1.28125,-2.625 v 1.703125 h 1.15625 c 0.644531,0 0.96875,-0.289063 0.96875,-0.875 C 4.234375,-2.347656 3.90625,-2.625 3.25,-2.625 Z m 0,0"
           id="path137" />
      </symbol>
      <symbol
         overflow="visible"
         id="glyph4-0">
        <path
           style="stroke:none"
           d="m 0.90625,0 v -7.671875 h 5.4375 V 0 Z m 0.8125,-0.8125 h 3.8125 v -6.046875 h -3.8125 z m 0,0"
           id="path140" />
      </symbol>
      <symbol
         overflow="visible"
         id="glyph4-1">
        <path
           style="stroke:none"
           d="m 7.015625,0 h -0.9375 V -7.015625 H 1.96875 V 0 h -0.9375 v -7.875 h 5.984375 z m 0,0"
           id="path143" />
      </symbol>
      <symbol
         overflow="visible"
         id="glyph4-2">
        <path
           style="stroke:none"
           d="M 4.9375,0 H 4.03125 V -0.875 H 4.015625 c -0.398437,0.667969 -0.976563,1 -1.734375,1 -0.5625,0 -1,-0.1445312 -1.3125,-0.4375 C 0.65625,-0.613281 0.5,-1.007812 0.5,-1.5 0.5,-2.550781 1.113281,-3.160156 2.34375,-3.328125 L 4.03125,-3.5625 C 4.03125,-4.519531 3.644531,-5 2.875,-5 2.195312,-5 1.585938,-4.769531 1.046875,-4.3125 V -5.234375 C 1.597656,-5.578125 2.234375,-5.75 2.953125,-5.75 4.273438,-5.75 4.9375,-5.050781 4.9375,-3.65625 Z M 4.03125,-2.84375 2.6875,-2.65625 C 2.257812,-2.601562 1.941406,-2.5 1.734375,-2.34375 c -0.210937,0.148438 -0.3125,0.40625 -0.3125,0.78125 0,0.28125 0.09375,0.511719 0.28125,0.6875 0.195313,0.167969 0.460937,0.25 0.796875,0.25 0.445312,0 0.8125,-0.15625 1.09375,-0.46875 0.289062,-0.3125 0.4375,-0.707031 0.4375,-1.1875 z m 0,0"
           id="path146" />
      </symbol>
      <symbol
         overflow="visible"
         id="glyph4-3">
        <path
           style="stroke:none"
           d="M 1.828125,-0.8125 H 1.8125 V 2.59375 H 0.90625 V -5.625 H 1.8125 v 0.984375 H 1.828125 C 2.273438,-5.378906 2.925781,-5.75 3.78125,-5.75 4.5,-5.75 5.0625,-5.5 5.46875,-5 c 0.414062,0.5 0.625,1.171875 0.625,2.015625 0,0.949219 -0.230469,1.703125 -0.6875,2.265625 C 4.945312,-0.15625 4.316406,0.125 3.515625,0.125 c -0.730469,0 -1.292969,-0.3125 -1.6875,-0.9375 z M 1.8125,-3.078125 v 0.78125 c 0,0.46875 0.148438,0.867187 0.453125,1.1875 0.300781,0.324219 0.6875,0.484375 1.15625,0.484375 0.539063,0 0.960937,-0.207031 1.265625,-0.625 C 5,-1.664062 5.15625,-2.25 5.15625,-3 c 0,-0.625 -0.148438,-1.113281 -0.4375,-1.46875 C 4.4375,-4.820312 4.046875,-5 3.546875,-5 3.023438,-5 2.601562,-4.816406 2.28125,-4.453125 c -0.3125,0.367187 -0.46875,0.824219 -0.46875,1.375 z m 0,0"
           id="path149" />
      </symbol>
      <symbol
         overflow="visible"
         id="glyph4-4">
        <path
           style="stroke:none"
           d="M 4.4375,-4.859375 H 2.75 V 0 H 1.859375 v -4.859375 h -1.6875 V -5.625 H 4.4375 Z m 0,0"
           id="path152" />
      </symbol>
      <symbol
         overflow="visible"
         id="glyph4-5">
        <path
           style="stroke:none"
           d="M 5.625,0 H 4.8125 v -4.484375 c -0.085938,0.15625 -0.210938,0.375 -0.375,0.65625 L 1.84375,0 h -0.9375 v -5.625 h 0.828125 v 4.4375 c 0.039063,-0.101562 0.132813,-0.285156 0.28125,-0.546875 L 4.6875,-5.625 H 5.625 Z m 0,0"
           id="path155" />
      </symbol>
      <symbol
         overflow="visible"
         id="glyph4-6">
        <path
           style="stroke:none"
           d="M 4.75,0 H 3.859375 v -2.328125 h -0.75 c -0.367187,0 -0.699219,0.292969 -1,0.875 L 1.390625,0 H 0.34375 l 0.9375,-1.734375 C 1.5,-2.140625 1.765625,-2.40625 2.078125,-2.53125 c -0.4375,-0.0625 -0.773437,-0.222656 -1,-0.484375 C 0.847656,-3.273438 0.734375,-3.601562 0.734375,-4 c 0,-0.5 0.175781,-0.894531 0.53125,-1.1875 0.363281,-0.289062 0.875,-0.4375 1.53125,-0.4375 H 4.75 Z M 3.859375,-3.078125 v -1.78125 h -1.0625 c -0.761719,0 -1.140625,0.289063 -1.140625,0.859375 0,0.617188 0.363281,0.921875 1.09375,0.921875 z m 0,0"
           id="path158" />
      </symbol>
      <symbol
         overflow="visible"
         id="glyph4-7">
        <path
           style="stroke:none"
           d=""
           id="path161" />
      </symbol>
      <symbol
         overflow="visible"
         id="glyph4-8">
        <path
           style="stroke:none"
           d="m 1.6875,-7.875 v 2.453125 H 0.890625 V -7.875 Z m 1.828125,0 v 2.453125 H 2.71875 V -7.875 Z m 0,0"
           id="path164" />
      </symbol>
      <symbol
         overflow="visible"
         id="glyph4-9">
        <path
           style="stroke:none"
           d="M 7.421875,2.109375 H 6.578125 V 0 H 0.9375 V 2.109375 H 0.078125 v -2.9375 H 0.6875 c 0.53125,-0.96875 0.976562,-2.09375 1.34375,-3.375 0.375,-1.289063 0.582031,-2.515625 0.625,-3.671875 h 3.703125 v 7.046875 h 1.0625 z M 5.4375,-0.828125 v -6.21875 h -2 c -0.054688,0.90625 -0.25,1.96875 -0.59375,3.1875 C 2.5,-2.648438 2.113281,-1.640625 1.6875,-0.828125 Z m 0,0"
           id="path167" />
      </symbol>
      <symbol
         overflow="visible"
         id="glyph4-10">
        <path
           style="stroke:none"
           d="M 5.4375,-2.59375 H 1.46875 c 0.00781,0.636719 0.175781,1.125 0.5,1.46875 0.320312,0.335938 0.765625,0.5 1.328125,0.5 0.632813,0 1.21875,-0.207031 1.75,-0.625 v 0.84375 c -0.5,0.3554688 -1.15625,0.53125 -1.96875,0.53125 -0.792969,0 -1.417969,-0.253906 -1.875,-0.765625 -0.449219,-0.507813 -0.671875,-1.226563 -0.671875,-2.15625 0,-0.875 0.242188,-1.582031 0.734375,-2.125 C 1.765625,-5.472656 2.382812,-5.75 3.125,-5.75 c 0.726562,0 1.296875,0.242188 1.703125,0.71875 0.40625,0.46875 0.609375,1.125 0.609375,1.96875 z m -0.921875,-0.75 C 4.503906,-3.863281 4.375,-4.269531 4.125,-4.5625 3.882812,-4.851562 3.546875,-5 3.109375,-5 2.679688,-5 2.316406,-4.847656 2.015625,-4.546875 1.722656,-4.242188 1.539062,-3.84375 1.46875,-3.34375 Z m 0,0"
           id="path170" />
      </symbol>
      <symbol
         overflow="visible"
         id="glyph4-11">
        <path
           style="stroke:none"
           d="M 5.625,0 H 4.8125 v -4.484375 c -0.085938,0.15625 -0.210938,0.375 -0.375,0.65625 L 1.84375,0 h -0.9375 v -5.625 h 0.828125 v 4.4375 c 0.039063,-0.101562 0.132813,-0.285156 0.28125,-0.546875 L 4.6875,-5.625 H 5.625 Z M 5.296875,-8.359375 c -0.054687,0.511719 -0.261719,0.917969 -0.625,1.21875 C 4.304688,-6.835938 3.851562,-6.6875 3.3125,-6.6875 c -0.554688,0 -1.007812,-0.148438 -1.359375,-0.453125 -0.34375,-0.300781 -0.53125,-0.707031 -0.5625,-1.21875 H 2.28125 c 0.039062,0.6875 0.390625,1.03125 1.046875,1.03125 0.289063,0 0.53125,-0.085937 0.71875,-0.265625 0.195313,-0.1875 0.316406,-0.441406 0.359375,-0.765625 z m 0,0"
           id="path173" />
      </symbol>
      <symbol
         overflow="visible"
         id="glyph4-12">
        <path
           style="stroke:none"
           d="M 4.75,-0.265625 C 4.3125,-0.00390625 3.796875,0.125 3.203125,0.125 2.398438,0.125 1.753906,-0.132812 1.265625,-0.65625 0.773438,-1.175781 0.53125,-1.851562 0.53125,-2.6875 c 0,-0.925781 0.265625,-1.664062 0.796875,-2.21875 C 1.859375,-5.46875 2.566406,-5.75 3.453125,-5.75 3.941406,-5.75 4.375,-5.660156 4.75,-5.484375 V -4.5625 C 4.332031,-4.851562 3.890625,-5 3.421875,-5 2.835938,-5 2.363281,-4.789062 2,-4.375 1.632812,-3.96875 1.453125,-3.425781 1.453125,-2.75 c 0,0.65625 0.171875,1.179688 0.515625,1.5625 0.34375,0.375 0.804688,0.5625 1.390625,0.5625 0.488281,0 0.953125,-0.160156 1.390625,-0.484375 z m 0,0"
           id="path176" />
      </symbol>
      <symbol
         overflow="visible"
         id="glyph4-13">
        <path
           style="stroke:none"
           d="m 0.90625,0 v -5.625 h 2.453125 c 0.550781,0 0.988281,0.125 1.3125,0.375 0.320313,0.242188 0.484375,0.574219 0.484375,1 0,0.730469 -0.359375,1.171875 -1.078125,1.328125 0.851563,0.117187 1.28125,0.546875 1.28125,1.296875 0,0.460938 -0.179687,0.84375 -0.53125,1.15625 C 4.484375,-0.15625 4.046875,0 3.515625,0 Z M 1.8125,-4.859375 V -3.28125 H 3.171875 C 3.890625,-3.28125 4.25,-3.5625 4.25,-4.125 4.25,-4.613281 3.925781,-4.859375 3.28125,-4.859375 Z m 0,2.359375 v 1.734375 H 3.375 c 0.726562,0 1.09375,-0.296875 1.09375,-0.890625 C 4.46875,-2.21875 4.054688,-2.5 3.234375,-2.5 Z m 0,0"
           id="path179" />
      </symbol>
      <symbol
         overflow="visible"
         id="glyph4-14">
        <path
           style="stroke:none"
           d="M 6.390625,-0.328125 C 5.804688,-0.0234375 5.082031,0.125 4.21875,0.125 c -1.125,0 -2.027344,-0.359375 -2.703125,-1.078125 -0.667969,-0.71875 -1,-1.664063 -1,-2.84375 0,-1.257813 0.378906,-2.273437 1.140625,-3.046875 0.757812,-0.78125 1.71875,-1.171875 2.875,-1.171875 0.75,0 1.367188,0.109375 1.859375,0.328125 v 0.984375 c -0.5625,-0.3125 -1.183594,-0.46875 -1.859375,-0.46875 -0.90625,0 -1.640625,0.304687 -2.203125,0.90625 -0.5625,0.605469 -0.84375,1.414063 -0.84375,2.421875 0,0.960938 0.257813,1.726562 0.78125,2.296875 0.53125,0.5625 1.222656,0.84375 2.078125,0.84375 0.789062,0 1.472656,-0.171875 2.046875,-0.515625 z m 0,0"
           id="path182" />
      </symbol>
      <symbol
         overflow="visible"
         id="glyph4-15">
        <path
           style="stroke:none"
           d="m 3.265625,0.125 c -0.835937,0 -1.5,-0.257812 -2,-0.78125 C 0.773438,-1.175781 0.53125,-1.875 0.53125,-2.75 c 0,-0.9375 0.253906,-1.671875 0.765625,-2.203125 C 1.816406,-5.484375 2.515625,-5.75 3.390625,-5.75 c 0.84375,0 1.5,0.261719 1.96875,0.78125 0.46875,0.511719 0.703125,1.226562 0.703125,2.140625 0,0.898437 -0.257812,1.617187 -0.765625,2.15625 -0.5,0.53125 -1.179687,0.796875 -2.03125,0.796875 z M 3.328125,-5 c -0.574219,0 -1.03125,0.199219 -1.375,0.59375 -0.335937,0.398438 -0.5,0.9375 -0.5,1.625 0,0.667969 0.164063,1.195312 0.5,1.578125 0.34375,0.386719 0.800781,0.578125 1.375,0.578125 0.582031,0 1.03125,-0.1875 1.34375,-0.5625 0.3125,-0.382812 0.46875,-0.921875 0.46875,-1.609375 0,-0.707031 -0.15625,-1.25 -0.46875,-1.625 C 4.359375,-4.804688 3.910156,-5 3.328125,-5 Z m 0,0"
           id="path185" />
      </symbol>
      <symbol
         overflow="visible"
         id="glyph4-16">
        <path
           style="stroke:none"
           d="M 5.015625,0 H 4.125 V -4.859375 H 2.8125 C 2.664062,-3.035156 2.410156,-1.753906 2.046875,-1.015625 1.679688,-0.285156 1.191406,0.078125 0.578125,0.078125 0.390625,0.078125 0.226562,0.0507812 0.09375,0 v -0.78125 c 0.125,0.074219 0.257812,0.109375 0.40625,0.109375 0.8125,0 1.332031,-1.648437 1.5625,-4.953125 h 2.953125 z m 0,0"
           id="path188" />
      </symbol>
      <symbol
         overflow="visible"
         id="glyph4-17">
        <path
           style="stroke:none"
           d="M 5.8125,2.046875 H 5.046875 V 0 H 0.875 V 2.046875 H 0.09375 v -2.8125 h 0.5 C 1.550781,-2.148438 2.039062,-3.769531 2.0625,-5.625 h 2.921875 v 4.859375 H 5.8125 Z m -1.734375,-2.8125 v -4.09375 h -1.25 c -0.09375,1.511719 -0.523437,2.875 -1.28125,4.09375 z m 0,0"
           id="path191" />
      </symbol>
      <symbol
         overflow="visible"
         id="glyph4-18">
        <path
           style="stroke:none"
           d="M 5.578125,0 H 4.6875 V -2.546875 H 1.8125 V 0 H 0.90625 V -5.625 H 1.8125 v 2.3125 h 2.875 V -5.625 h 0.890625 z m 0,0"
           id="path194" />
      </symbol>
      <symbol
         overflow="visible"
         id="glyph4-19">
        <path
           style="stroke:none"
           d="M 0.90625,0 V -5.625 H 1.8125 v 2.15625 h 1.515625 c 0.570313,0 1.023437,0.152344 1.359375,0.453125 0.34375,0.304687 0.515625,0.71875 0.515625,1.25 0,0.554687 -0.171875,0.984375 -0.515625,1.296875 C 4.351562,-0.15625 3.925781,0 3.40625,0 Z M 1.8125,-2.6875 v 1.921875 h 1.359375 c 0.738281,0 1.109375,-0.332031 1.109375,-1 0,-0.613281 -0.375,-0.921875 -1.125,-0.921875 z m 0,0"
           id="path197" />
      </symbol>
      <symbol
         overflow="visible"
         id="glyph4-20">
        <path
           style="stroke:none"
           d="m 0.53125,-0.328125 v -1 c 0.613281,0.449219 1.3125,0.671875 2.09375,0.671875 0.5625,0 1.007812,-0.132812 1.34375,-0.40625 0.34375,-0.28125 0.515625,-0.648438 0.515625,-1.109375 0,-1.007813 -0.6875,-1.515625 -2.0625,-1.515625 h -0.8125 v -0.765625 h 0.75 c 0.582031,0 1.035156,-0.125 1.359375,-0.375 0.320312,-0.257813 0.484375,-0.617187 0.484375,-1.078125 0,-0.394531 -0.136719,-0.710938 -0.40625,-0.953125 -0.261719,-0.238281 -0.625,-0.359375 -1.09375,-0.359375 -0.65625,0 -1.296875,0.210938 -1.921875,0.625 v -0.9375 c 0.570312,-0.320312 1.238281,-0.484375 2,-0.484375 0.75,0 1.335938,0.183594 1.765625,0.546875 0.425781,0.355469 0.640625,0.820312 0.640625,1.390625 0,1.023437 -0.5,1.667969 -1.5,1.9375 V -4.125 c 0.539062,0.0625 0.96875,0.265625 1.28125,0.609375 0.320312,0.34375 0.484375,0.773437 0.484375,1.28125 0,0.730469 -0.257813,1.308594 -0.765625,1.734375 -0.511719,0.4179688 -1.210938,0.625 -2.09375,0.625 -0.898438,0 -1.585938,-0.1484375 -2.0625,-0.453125 z m 0,0"
           id="path200" />
      </symbol>
      <symbol
         overflow="visible"
         id="glyph4-21">
        <path
           style="stroke:none"
           d="M 7.0625,0 H 6.171875 V -5.625 H 7.0625 Z M 0.90625,0 V -5.625 H 1.8125 v 2.15625 h 1.515625 c 0.570313,0 1.023437,0.152344 1.359375,0.453125 0.34375,0.304687 0.515625,0.71875 0.515625,1.25 0,0.554687 -0.171875,0.984375 -0.515625,1.296875 C 4.351562,-0.15625 3.925781,0 3.40625,0 Z M 1.8125,-2.6875 v 1.921875 h 1.359375 c 0.738281,0 1.109375,-0.332031 1.109375,-1 0,-0.613281 -0.375,-0.921875 -1.125,-0.921875 z m 0,0"
           id="path203" />
      </symbol>
      <symbol
         overflow="visible"
         id="glyph4-22">
        <path
           style="stroke:none"
           d="M 6.984375,0 H 6.09375 v -4.640625 c -0.074219,0.242187 -0.199219,0.585937 -0.375,1.03125 L 4.3125,0 H 3.515625 L 2.0625,-3.609375 c -0.085938,-0.1875 -0.210938,-0.53125 -0.375,-1.03125 V 0 H 0.90625 V -5.625 H 2.0625 l 1.484375,3.671875 c 0.101563,0.273437 0.238281,0.640625 0.40625,1.109375 L 4.34375,-1.9375 5.796875,-5.625 h 1.1875 z m 0,0"
           id="path206" />
      </symbol>
      <symbol
         overflow="visible"
         id="glyph4-23">
        <path
           style="stroke:none"
           d="M 8.375,0 H 7.15625 L 4.640625,-2.78125 H 4.625 V 0 H 3.765625 V -2.78125 H 3.75 L 1.21875,0 H 0.015625 L 2.8125,-2.90625 0.1875,-5.625 H 1.34375 L 3.75,-3 H 3.765625 V -5.625 H 4.625 V -3 h 0.015625 l 2.40625,-2.625 H 8.21875 l -2.640625,2.71875 z m 0,0"
           id="path209" />
      </symbol>
      <symbol
         overflow="visible"
         id="glyph4-24">
        <path
           style="stroke:none"
           d="M 5.578125,0 H 4.6875 V -4.859375 H 1.8125 V 0 H 0.90625 v -5.625 h 4.671875 z m 0,0"
           id="path212" />
      </symbol>
      <symbol
         overflow="visible"
         id="glyph4-25">
        <path
           style="stroke:none"
           d="M 5.578125,0 H 4.3125 L 1.828125,-2.703125 H 1.8125 V 0 H 0.90625 V -5.625 H 1.8125 v 2.578125 H 1.828125 L 4.203125,-5.625 H 5.375 l -2.609375,2.71875 z m 0,0"
           id="path215" />
      </symbol>
      <symbol
         overflow="visible"
         id="glyph4-26">
        <path
           style="stroke:none"
           d="m 5.390625,-5.625 -2.59375,6.53125 c -0.460937,1.15625 -1.105469,1.734375 -1.9375,1.734375 -0.242187,0 -0.4375,-0.023437 -0.59375,-0.0625 v -0.8125 c 0.195313,0.070313 0.375,0.109375 0.53125,0.109375 0.457031,0 0.800781,-0.273438 1.03125,-0.8125 L 2.28125,-0.015625 0.078125,-5.625 h 1 l 1.515625,4.328125 c 0.019531,0.054687 0.0625,0.195313 0.125,0.421875 H 2.75 C 2.769531,-0.957031 2.804688,-1.09375 2.859375,-1.28125 L 4.453125,-5.625 Z m 0,0"
           id="path218" />
      </symbol>
      <symbol
         overflow="visible"
         id="glyph4-27">
        <path
           style="stroke:none"
           d="M 3.40625,-2.546875 H 1.8125 V 0 H 0.90625 V -5.625 H 1.8125 v 2.3125 h 1.609375 c 0.09375,-0.769531 0.375,-1.367188 0.84375,-1.796875 C 4.734375,-5.535156 5.335938,-5.75 6.078125,-5.75 6.878906,-5.75 7.5,-5.492188 7.9375,-4.984375 c 0.445312,0.5 0.671875,1.21875 0.671875,2.15625 0,0.90625 -0.242187,1.625 -0.71875,2.15625 C 7.421875,-0.140625 6.769531,0.125 5.9375,0.125 5.164062,0.125 4.554688,-0.109375 4.109375,-0.578125 3.671875,-1.046875 3.4375,-1.703125 3.40625,-2.546875 Z M 6,-5 c -1.125,0 -1.6875,0.734375 -1.6875,2.203125 0,1.449219 0.566406,2.171875 1.703125,2.171875 1.113281,0 1.671875,-0.722656 1.671875,-2.171875 C 7.6875,-4.265625 7.125,-5 6,-5 Z m 0,0"
           id="path221" />
      </symbol>
      <symbol
         overflow="visible"
         id="glyph4-28">
        <path
           style="stroke:none"
           d="M 5.4375,0 H 4.546875 V -2.265625 C 3.890625,-1.898438 3.28125,-1.71875 2.71875,-1.71875 c -1.261719,0 -1.890625,-0.664062 -1.890625,-2 V -5.625 h 0.90625 v 1.859375 c 0,0.824219 0.351563,1.234375 1.0625,1.234375 0.539063,0 1.125,-0.15625 1.75,-0.46875 V -5.625 H 5.4375 Z m 0,0"
           id="path224" />
      </symbol>
      <symbol
         overflow="visible"
         id="glyph4-29">
        <path
           style="stroke:none"
           d="M 0.578125,-0.328125 V -1.21875 c 0.570313,0.34375 1.269531,0.515625 2.09375,0.515625 0.78125,0 1.421875,-0.242187 1.921875,-0.734375 0.5,-0.5 0.78125,-1.191406 0.84375,-2.078125 h -3.5 V -4.34375 H 5.421875 C 5.328125,-5.238281 5.03125,-5.929688 4.53125,-6.421875 c -0.492188,-0.5 -1.136719,-0.75 -1.9375,-0.75 -0.742188,0 -1.414062,0.15625 -2.015625,0.46875 v -0.96875 c 0.5625,-0.226563 1.234375,-0.34375 2.015625,-0.34375 1.132812,0 2.054688,0.382813 2.765625,1.140625 0.707031,0.761719 1.0625,1.777344 1.0625,3.046875 0,1.167969 -0.34375,2.121094 -1.03125,2.859375 C 4.710938,-0.238281 3.820312,0.125 2.71875,0.125 1.863281,0.125 1.148438,-0.0234375 0.578125,-0.328125 Z m 0,0"
           id="path227" />
      </symbol>
      <symbol
         overflow="visible"
         id="glyph4-30">
        <path
           style="stroke:none"
           d="M 5.6875,-7.046875 H 3.421875 V 0 H 2.5 V -7.046875 H 0.21875 V -7.875 H 5.6875 Z m 0,0"
           id="path230" />
      </symbol>
      <symbol
         overflow="visible"
         id="glyph4-31">
        <path
           style="stroke:none"
           d="M 7.125,0 H 6.109375 L 5.28125,-2.203125 H 1.9375 L 1.140625,0 H 0.125 L 3.140625,-7.875 H 4.09375 Z M 4.96875,-3.03125 3.734375,-6.390625 c -0.042969,-0.113281 -0.085937,-0.289063 -0.125,-0.53125 H 3.59375 c -0.042969,0.21875 -0.085938,0.398437 -0.125,0.53125 L 2.234375,-3.03125 Z m 0,0"
           id="path233" />
      </symbol>
      <symbol
         overflow="visible"
         id="glyph4-32">
        <path
           style="stroke:none"
           d="M 5.203125,0 H 1.03125 v -7.875 h 4 v 0.828125 H 1.953125 v 2.625 h 2.84375 v 0.828125 h -2.84375 v 2.765625 h 3.25 z m 0,0"
           id="path236" />
      </symbol>
      <symbol
         overflow="visible"
         id="glyph4-33">
        <path
           style="stroke:none"
           d="M 4.03125,-4.859375 H 1.8125 V 0 H 0.90625 v -5.625 h 3.125 z m 0,0"
           id="path239" />
      </symbol>
      <symbol
         overflow="visible"
         id="glyph4-34">
        <path
           style="stroke:none"
           d="M 0.4375,-0.15625 V -1.046875 C 0.925781,-0.765625 1.5,-0.625 2.15625,-0.625 c 0.988281,0 1.484375,-0.316406 1.484375,-0.953125 0,-0.625 -0.542969,-0.9375 -1.625,-0.9375 H 1.46875 V -3.28125 h 0.515625 c 0.957031,0 1.4375,-0.289062 1.4375,-0.875 0,-0.257812 -0.109375,-0.460938 -0.328125,-0.609375 C 2.875,-4.921875 2.570312,-5 2.1875,-5 1.644531,-5 1.097656,-4.859375 0.546875,-4.578125 v -0.84375 c 0.625,-0.226563 1.195313,-0.34375 1.71875,-0.34375 1.363281,0 2.046875,0.507813 2.046875,1.515625 0,0.324219 -0.105469,0.605469 -0.3125,0.84375 -0.199219,0.242188 -0.480469,0.398438 -0.84375,0.46875 v 0.03125 c 0.414062,0.03125 0.75,0.171875 1,0.421875 0.257812,0.25 0.390625,0.5625 0.390625,0.9375 0,0.511719 -0.210937,0.921875 -0.625,1.234375 C 3.503906,-0.0078125 2.9375,0.140625 2.21875,0.140625 1.445312,0.140625 0.851562,0.0390625 0.4375,-0.15625 Z m 0,0"
           id="path242" />
      </symbol>
      <symbol
         overflow="visible"
         id="glyph5-0">
        <path
           style="stroke:none"
           d="M 1.453125,0 V -12.28125 H 10.15625 V 0 Z m 1.3125,-1.296875 h 6.09375 v -9.6875 h -6.09375 z m 0,0"
           id="path245" />
      </symbol>
      <symbol
         overflow="visible"
         id="glyph5-1">
        <path
           style="stroke:none"
           d="m 12.515625,3.40625 h -1.875 V 0 h -8.5625 V 3.40625 H 0.21875 v -5.1875 h 1.0625 c 0.789062,-1.476562 1.460938,-3.207031 2.015625,-5.1875 0.550781,-1.976562 0.863281,-3.859375 0.9375,-5.640625 H 10.78125 V -1.78125 h 1.734375 z M 8.6875,-1.78125 v -9.015625 H 5.953125 c -0.074219,1.3125 -0.355469,2.851563 -0.84375,4.609375 -0.492187,1.761719 -1.03125,3.230469 -1.625,4.40625 z m 0,0"
           id="path248" />
      </symbol>
      <symbol
         overflow="visible"
         id="glyph5-2">
        <path
           style="stroke:none"
           d="M 8.234375,0 H 6.265625 V -1.40625 H 6.21875 c -0.617188,1.085938 -1.527344,1.625 -2.734375,1.625 -0.886719,0 -1.578125,-0.2382812 -2.078125,-0.71875 -0.5,-0.488281 -0.75,-1.128906 -0.75,-1.921875 0,-1.695313 0.976562,-2.6875 2.9375,-2.96875 l 2.671875,-0.375 c 0,-1.28125 -0.609375,-1.921875 -1.828125,-1.921875 -1.074219,0 -2.042969,0.371094 -2.90625,1.109375 V -8.375 c 0.957031,-0.5625 2.054688,-0.84375 3.296875,-0.84375 2.269531,0 3.40625,1.121094 3.40625,3.359375 z M 6.265625,-4.421875 4.375,-4.15625 c -0.585938,0.074219 -1.027344,0.214844 -1.328125,0.421875 -0.292969,0.210937 -0.4375,0.574219 -0.4375,1.09375 0,0.386719 0.132813,0.699219 0.40625,0.9375 0.269531,0.242187 0.632813,0.359375 1.09375,0.359375 0.625,0 1.140625,-0.210938 1.546875,-0.640625 0.40625,-0.4375 0.609375,-0.988281 0.609375,-1.65625 z m 0,0"
           id="path251" />
      </symbol>
      <symbol
         overflow="visible"
         id="glyph5-3">
        <path
           style="stroke:none"
           d="M 3.40625,-1.328125 H 3.359375 v 5.46875 H 1.328125 V -9 h 2.03125 v 1.578125 H 3.40625 C 4.101562,-8.617188 5.117188,-9.21875 6.453125,-9.21875 7.597656,-9.21875 8.488281,-8.8125 9.125,-8 c 0.644531,0.804688 0.96875,1.882812 0.96875,3.234375 0,1.5 -0.367188,2.703125 -1.09375,3.609375 C 8.28125,-0.257812 7.300781,0.1875 6.0625,0.1875 4.90625,0.1875 4.019531,-0.316406 3.40625,-1.328125 Z M 3.34375,-4.875 v 1.109375 c 0,0.65625 0.207031,1.214844 0.625,1.671875 0.425781,0.460938 0.960938,0.6875 1.609375,0.6875 0.75,0 1.335937,-0.289062 1.765625,-0.875 C 7.78125,-2.875 8,-3.695312 8,-4.75 8,-5.632812 7.796875,-6.328125 7.390625,-6.828125 c -0.398437,-0.5 -0.9375,-0.75 -1.625,-0.75 -0.730469,0 -1.320313,0.261719 -1.765625,0.78125 C 3.5625,-6.285156 3.34375,-5.644531 3.34375,-4.875 Z m 0,0"
           id="path254" />
      </symbol>
      <symbol
         overflow="visible"
         id="glyph5-4">
        <path
           style="stroke:none"
           d="M 8.953125,-3.953125 H 2.8125 c 0.019531,0.835937 0.273438,1.480469 0.765625,1.9375 0.488281,0.449219 1.160156,0.671875 2.015625,0.671875 0.96875,0 1.851562,-0.285156 2.65625,-0.859375 V -0.5625 C 7.425781,-0.0390625 6.34375,0.21875 5,0.21875 3.664062,0.21875 2.625,-0.1875 1.875,-1 1.125,-1.820312 0.75,-2.976562 0.75,-4.46875 c 0,-1.394531 0.410156,-2.535156 1.234375,-3.421875 0.832031,-0.882813 1.863281,-1.328125 3.09375,-1.328125 1.226563,0 2.179687,0.398438 2.859375,1.1875 0.675781,0.792969 1.015625,1.890625 1.015625,3.296875 z m -1.96875,-1.4375 C 6.972656,-6.117188 6.796875,-6.6875 6.453125,-7.09375 6.117188,-7.5 5.648438,-7.703125 5.046875,-7.703125 c -0.585937,0 -1.078125,0.214844 -1.484375,0.640625 -0.40625,0.429688 -0.65625,0.984375 -0.75,1.671875 z m 0,0"
           id="path257" />
      </symbol>
      <symbol
         overflow="visible"
         id="glyph5-5">
        <path
           style="stroke:none"
           d="M 9.34375,0 H 7.296875 V -3.9375 H 3.375 V 0 H 1.328125 V -9 H 3.375 v 3.53125 H 7.296875 V -9 H 9.34375 Z m 0,0"
           id="path260" />
      </symbol>
      <symbol
         overflow="visible"
         id="glyph5-6">
        <path
           style="stroke:none"
           d="M 9.5,0 H 7.65625 V -6.59375 C 7.539062,-6.363281 7.363281,-6.039062 7.125,-5.625 L 3.328125,0 h -2 v -9 h 1.875 v 6.46875 c 0.0625,-0.15625 0.195313,-0.421875 0.40625,-0.796875 L 7.453125,-9 H 9.5 Z m 0,0"
           id="path263" />
      </symbol>
      <symbol
         overflow="visible"
         id="glyph5-7">
        <path
           style="stroke:none"
           d="M 11.71875,0 H 9.625 V -10.734375 H 3.640625 V 0 H 1.5625 v -12.609375 h 10.15625 z m 0,0"
           id="path266" />
      </symbol>
      <symbol
         overflow="visible"
         id="glyph5-8">
        <path
           style="stroke:none"
           d="M 8.765625,0 H 6.71875 V -7.4375 H 4.890625 C 4.628906,-4.65625 4.1875,-2.703125 3.5625,-1.578125 c -0.625,1.125 -1.464844,1.6875 -2.515625,1.6875 -0.355469,0 -0.65625,-0.046875 -0.90625,-0.140625 V -1.5625 c 0.207031,0.105469 0.425781,0.15625 0.65625,0.15625 1.257813,0 2.066406,-2.53125 2.421875,-7.59375 h 5.546875 z m 0,0"
           id="path269" />
      </symbol>
      <symbol
         overflow="visible"
         id="glyph5-9">
        <path
           style="stroke:none"
           d="M 7.46875,-7.375 H 4.890625 V 0 H 2.84375 V -7.375 H 0.265625 V -9 H 7.46875 Z m 0,0"
           id="path272" />
      </symbol>
      <symbol
         overflow="visible"
         id="glyph5-10">
        <path
           style="stroke:none"
           d=""
           id="path275" />
      </symbol>
      <symbol
         overflow="visible"
         id="glyph5-11">
        <path
           style="stroke:none"
           d="m 1.5625,0 v -12.609375 h 4 c 1.21875,0 2.179688,0.273437 2.890625,0.8125 0.707031,0.53125 1.0625,1.226563 1.0625,2.078125 0,0.710938 -0.203125,1.328125 -0.609375,1.859375 -0.398438,0.53125 -0.953125,0.90625 -1.671875,1.125 v 0.03125 c 0.863281,0.105469 1.554687,0.429687 2.078125,0.96875 0.519531,0.542969 0.78125,1.246094 0.78125,2.109375 0,1.085938 -0.429688,1.960938 -1.28125,2.625 C 7.96875,-0.332031 6.894531,0 5.59375,0 Z M 3.640625,-10.921875 V -7.34375 H 5 c 0.71875,0 1.285156,-0.171875 1.703125,-0.515625 0.414063,-0.34375 0.625,-0.828125 0.625,-1.453125 0,-1.070312 -0.726563,-1.609375 -2.171875,-1.609375 z m 0,5.265625 v 3.984375 h 1.78125 c 0.78125,0 1.378906,-0.175781 1.796875,-0.53125 0.425781,-0.363281 0.640625,-0.863281 0.640625,-1.5 0,-1.300781 -0.902344,-1.953125 -2.703125,-1.953125 z m 0,0"
           id="path278" />
      </symbol>
      <symbol
         overflow="visible"
         id="glyph5-12">
        <path
           style="stroke:none"
           d="m 0.703125,-0.25 v -1.671875 c 0.757813,0.417969 1.648437,0.625 2.671875,0.625 1.4375,0 2.15625,-0.429687 2.15625,-1.296875 0,-0.863281 -0.851562,-1.296875 -2.546875,-1.296875 H 2.125 v -1.4375 h 0.828125 c 1.507813,0 2.265625,-0.414063 2.265625,-1.25 0,-0.34375 -0.164062,-0.613281 -0.484375,-0.8125 -0.324219,-0.207031 -0.761719,-0.3125 -1.3125,-0.3125 -0.835937,0 -1.667969,0.199219 -2.5,0.59375 v -1.59375 c 1.007813,-0.34375 1.9375,-0.515625 2.78125,-0.515625 2.382813,0 3.578125,0.808594 3.578125,2.421875 0,0.523437 -0.171875,0.96875 -0.515625,1.34375 -0.335937,0.375 -0.8125,0.625 -1.4375,0.75 v 0.046875 c 0.6875,0.054688 1.238281,0.277344 1.65625,0.671875 0.414063,0.386719 0.625,0.882813 0.625,1.484375 0,0.824219 -0.359375,1.480469 -1.078125,1.96875 C 5.8125,-0.0507812 4.828125,0.1875 3.578125,0.1875 c -1.25,0 -2.210937,-0.1484375 -2.875,-0.4375 z m 0,0"
           id="path281" />
      </symbol>
      <symbol
         overflow="visible"
         id="glyph5-13">
        <path
           style="stroke:none"
           d="m 5.3125,0.21875 c -1.386719,0 -2.496094,-0.421875 -3.328125,-1.265625 C 1.160156,-1.890625 0.75,-3.003906 0.75,-4.390625 c 0,-1.507813 0.429688,-2.691406 1.296875,-3.546875 0.863281,-0.851562 2.023437,-1.28125 3.484375,-1.28125 1.40625,0 2.5,0.417969 3.28125,1.25 C 9.601562,-7.144531 10,-6 10,-4.53125 10,-3.09375 9.578125,-1.941406 8.734375,-1.078125 7.890625,-0.210938 6.75,0.21875 5.3125,0.21875 Z m 0.109375,-7.796875 c -0.804687,0 -1.4375,0.277344 -1.90625,0.828125 -0.460937,0.554688 -0.6875,1.320312 -0.6875,2.296875 0,0.949219 0.234375,1.695313 0.703125,2.234375 0.46875,0.542969 1.097656,0.8125 1.890625,0.8125 0.800781,0 1.414063,-0.265625 1.84375,-0.796875 0.425781,-0.53125 0.640625,-1.289063 0.640625,-2.28125 0,-0.988281 -0.214844,-1.75 -0.640625,-2.28125 -0.429687,-0.539063 -1.042969,-0.8125 -1.84375,-0.8125 z m 0,0"
           id="path284" />
      </symbol>
      <symbol
         overflow="visible"
         id="glyph5-14">
        <path
           style="stroke:none"
           d="m 7.765625,-0.40625 c -0.71875,0.4140625 -1.570313,0.625 -2.546875,0.625 -1.34375,0 -2.429688,-0.414062 -3.25,-1.25 C 1.15625,-1.875 0.75,-2.960938 0.75,-4.296875 c 0,-1.476563 0.4375,-2.664063 1.3125,-3.5625 0.882812,-0.90625 2.066406,-1.359375 3.546875,-1.359375 0.820313,0 1.546875,0.148438 2.171875,0.4375 V -6.875 c -0.625,-0.46875 -1.292969,-0.703125 -2,-0.703125 -0.867188,0 -1.574219,0.292969 -2.125,0.875 -0.554688,0.574219 -0.828125,1.335937 -0.828125,2.28125 0,0.929687 0.257813,1.664063 0.78125,2.203125 0.519531,0.542969 1.21875,0.8125 2.09375,0.8125 0.726563,0 1.414063,-0.257812 2.0625,-0.78125 z m 0,0"
           id="path287" />
      </symbol>
      <symbol
         overflow="visible"
         id="glyph5-15">
        <path
           style="stroke:none"
           d="M 9.125,-9 5.0625,1.4375 C 4.21875,3.300781 3.035156,4.234375 1.515625,4.234375 1.085938,4.234375 0.726562,4.195312 0.4375,4.125 V 2.421875 c 0.320312,0.101563 0.613281,0.15625 0.875,0.15625 0.769531,0 1.34375,-0.375 1.71875,-1.125 L 3.625,-0.015625 0.046875,-9 H 2.3125 l 2.140625,6.53125 c 0.019531,0.085938 0.070313,0.304688 0.15625,0.65625 H 4.65625 C 4.6875,-1.945312 4.738281,-2.15625 4.8125,-2.4375 L 7.0625,-9 Z m 0,0"
           id="path290" />
      </symbol>
      <symbol
         overflow="visible"
         id="glyph5-16">
        <path
           style="stroke:none"
           d="M 9.34375,0 H 7.296875 V -7.4375 H 3.375 V 0 H 1.328125 V -9 H 9.34375 Z m 0,0"
           id="path293" />
      </symbol>
      <symbol
         overflow="visible"
         id="glyph5-17">
        <path
           style="stroke:none"
           d="m 1.328125,0 v -9 h 2.03125 v 3.328125 h 2.40625 c 0.957031,0 1.710937,0.246094 2.265625,0.734375 0.5625,0.492188 0.84375,1.167969 0.84375,2.03125 0,0.898438 -0.28125,1.605469 -0.84375,2.125 C 7.476562,-0.257812 6.773438,0 5.921875,0 Z m 2.03125,-4.203125 v 2.734375 h 1.875 c 1.03125,0 1.546875,-0.472656 1.546875,-1.421875 0,-0.875 -0.523438,-1.3125 -1.5625,-1.3125 z m 0,0"
           id="path296" />
      </symbol>
      <symbol
         overflow="visible"
         id="glyph5-18">
        <path
           style="stroke:none"
           d="M 10.78125,0 H 8.6875 V -5.375 C 7.363281,-4.6875 6.140625,-4.34375 5.015625,-4.34375 3.847656,-4.34375 2.945312,-4.640625 2.3125,-5.234375 1.675781,-5.828125 1.359375,-6.65625 1.359375,-7.71875 v -4.890625 H 3.4375 v 4.515625 c 0,1.304688 0.664062,1.953125 2,1.953125 0.945312,0 2.03125,-0.300781 3.25,-0.90625 v -5.5625 h 2.09375 z m 0,0"
           id="path299" />
      </symbol>
      <symbol
         overflow="visible"
         id="glyph5-19">
        <path
           style="stroke:none"
           d="M 1.328125,0 V -9 H 5.625 c 0.96875,0 1.734375,0.199219 2.296875,0.59375 0.5625,0.386719 0.84375,0.921875 0.84375,1.609375 0,1.148437 -0.589844,1.839844 -1.765625,2.078125 1.394531,0.179688 2.09375,0.871094 2.09375,2.078125 0,0.75 -0.296875,1.382813 -0.890625,1.890625 C 7.617188,-0.25 6.882812,0 6,0 Z m 2.03125,-7.5625 v 2.25 h 1.8125 c 1.019531,0 1.53125,-0.394531 1.53125,-1.1875 0,-0.707031 -0.449219,-1.0625 -1.34375,-1.0625 z m 0,3.65625 v 2.453125 h 2.09375 c 1.039063,0 1.5625,-0.421875 1.5625,-1.265625 0,-0.789062 -0.5625,-1.1875 -1.6875,-1.1875 z m 0,0"
           id="path302" />
      </symbol>
      <symbol
         overflow="visible"
         id="glyph1-0">
        <path
           style="stroke:none"
           d="M 5.265625,0 V -3.09375 H 5.207031 c -0.199219,0.074219 -0.453125,0.136719 -0.753906,0.1875 -0.296875,0.046875 -0.625,0.070312 -0.976563,0.070312 -0.96875,0 -1.679687,-0.226562 -2.136718,-0.683593 C 0.882812,-3.980469 0.652344,-4.679688 0.652344,-5.625 V -7.851562 H 1.597656 V -5.625 c 0,0.683594 0.160156,1.179688 0.476563,1.492188 0.320312,0.308593 0.796875,0.464843 1.4375,0.464843 0.375,0 0.710937,-0.023437 1.015625,-0.074219 0.304687,-0.046874 0.550781,-0.109374 0.738281,-0.183593 V -7.851562 H 6.210938 V 0 Z m 0,0"
           id="path305" />
      </symbol>
      <symbol
         overflow="visible"
         id="glyph1-1">
        <path
           style="stroke:none"
           d="m 0.957031,0 v -5.804688 h 0.875 v 3.21875 l -0.089843,1.394532 h 0.046874 l 0.71875,-1.238282 2.320313,-3.375 H 5.660156 V 0 H 4.78125 V -3.21875 L 4.871094,-4.613281 H 4.828125 L 4.105469,-3.375 1.789062,0 Z m 0,0"
           id="path308" />
      </symbol>
      <symbol
         overflow="visible"
         id="glyph1-2">
        <path
           style="stroke:none"
           d="M 2.203125,0 V -5.015625 H 0.226562 v -0.789063 h 4.859376 v 0.789063 H 3.105469 V 0 Z m 0,0"
           id="path311" />
      </symbol>
      <symbol
         overflow="visible"
         id="glyph1-3">
        <path
           style="stroke:none"
           d="M 5.679688,0 H 5.175781 C 4.933594,0 4.738281,-0.0507812 4.589844,-0.152344 4.441406,-0.253906 4.332031,-0.394531 4.265625,-0.574219 4.195312,-0.753906 4.164062,-0.960938 4.164062,-1.191406 v -0.078125 l 0.347657,0.324219 H 4.117188 c -0.121094,0.351562 -0.328126,0.621093 -0.625,0.804687 -0.296876,0.1835938 -0.644532,0.277344 -1.050782,0.277344 -0.613281,0 -1.09375,-0.1601565 -1.433594,-0.472657 -0.34375,-0.316406 -0.511718,-0.742187 -0.511718,-1.285156 0,-0.367187 0.089844,-0.675781 0.269531,-0.925781 C 0.945312,-2.800781 1.21875,-2.992188 1.582031,-3.121094 1.945312,-3.253906 2.40625,-3.320312 2.96875,-3.320312 h 1.148438 v -0.570313 c 0,-0.414063 -0.113282,-0.730469 -0.335938,-0.945313 -0.226562,-0.21875 -0.570312,-0.328124 -1.035156,-0.328124 -0.347656,0 -0.636719,0.078124 -0.878906,0.238281 -0.238282,0.15625 -0.4375,0.367187 -0.597657,0.628906 L 0.730469,-4.804688 c 0.160156,-0.304687 0.410156,-0.574218 0.753906,-0.796874 0.34375,-0.226563 0.78125,-0.339844 1.304687,-0.339844 0.699219,0 1.242188,0.175781 1.636719,0.519531 0.394531,0.34375 0.589844,0.824219 0.589844,1.4375 v 3.195313 h 0.664063 z m -1.5625,-2.644531 H 2.925781 c -0.511719,0 -0.886719,0.074219 -1.125,0.226562 -0.242187,0.148438 -0.359375,0.367188 -0.359375,0.652344 v 0.234375 c 0,0.285156 0.105469,0.507812 0.3125,0.664062 0.210938,0.160157 0.488282,0.238282 0.832032,0.238282 0.300781,0 0.566406,-0.046875 0.792968,-0.140625 0.230469,-0.09375 0.410156,-0.222657 0.542969,-0.382813 C 4.050781,-1.3125 4.117188,-1.492188 4.117188,-1.6875 Z m 0,0"
           id="path314" />
      </symbol>
      <symbol
         overflow="visible"
         id="glyph1-4">
        <path
           style="stroke:none"
           d="m 0.957031,0 v -5.804688 h 0.875 v 3.21875 l -0.089843,1.394532 h 0.046874 l 0.71875,-1.238282 2.320313,-3.375 H 5.660156 V 0 H 4.78125 V -3.21875 L 4.871094,-4.613281 H 4.828125 L 4.105469,-3.375 1.789062,0 Z m 2.363281,-6.703125 c -0.40625,0 -0.730468,-0.082031 -0.96875,-0.242187 -0.242187,-0.164063 -0.429687,-0.375 -0.574218,-0.636719 L 1.550781,-8.011719 2.339844,-8.359375 2.734375,-7.4375 c 0.089844,0.023438 0.1875,0.039062 0.292969,0.050781 0.105468,0.011719 0.203125,0.019531 0.292968,0.019531 0.089844,0 0.1875,-0.00781 0.289063,-0.019531 C 3.714844,-7.398438 3.8125,-7.414062 3.902344,-7.4375 l 0.394531,-0.921875 0.789063,0.347656 -0.226563,0.429688 c -0.140625,0.261719 -0.332031,0.472656 -0.574219,0.636719 -0.238281,0.160156 -0.5625,0.242187 -0.964844,0.242187 z m 0,0"
           id="path317" />
      </symbol>
      <symbol
         overflow="visible"
         id="glyph1-5">
        <path
           style="stroke:none"
           d="m 3.140625,0.136719 c -0.527344,0 -0.984375,-0.1289065 -1.375,-0.378907 C 1.375,-0.492188 1.074219,-0.84375 0.855469,-1.300781 0.636719,-1.753906 0.527344,-2.289062 0.527344,-2.902344 c 0,-0.613281 0.109375,-1.148437 0.328125,-1.601562 C 1.074219,-4.960938 1.375,-5.3125 1.765625,-5.5625 c 0.390625,-0.25 0.847656,-0.378906 1.375,-0.378906 0.515625,0 0.960937,0.125 1.335937,0.367187 0.375,0.242188 0.664063,0.578125 0.867188,1.007813 0.203125,0.425781 0.304688,0.914062 0.304688,1.460937 v 0.429688 H 1.472656 v 0.269531 c 0,0.5 0.152344,0.917969 0.457032,1.253906 0.304687,0.332032 0.726562,0.5 1.265624,0.5 0.367188,0 0.6875,-0.085937 0.960938,-0.257812 0.273438,-0.171875 0.484375,-0.421875 0.636719,-0.742188 l 0.640625,0.460938 C 5.246094,-0.800781 4.953125,-0.484375 4.554688,-0.234375 4.160156,0.0117188 3.6875,0.136719 3.140625,0.136719 Z m 0,-5.324219 c -0.324219,0 -0.609375,0.078125 -0.863281,0.226562 -0.25,0.148438 -0.449219,0.359376 -0.589844,0.625 -0.140625,0.265626 -0.214844,0.566407 -0.214844,0.90625 v 0.078126 h 3.207032 v -0.125 c 0,-0.34375 -0.0625,-0.644532 -0.191407,-0.898438 C 4.359375,-4.632812 4.179688,-4.828125 3.949219,-4.972656 3.714844,-5.113281 3.445312,-5.1875 3.140625,-5.1875 Z m 0,0"
           id="path320" />
      </symbol>
      <symbol
         overflow="visible"
         id="glyph1-6">
        <path
           style="stroke:none"
           d="M 0.957031,0 V -5.804688 H 1.855469 V -3.375 h 1.160156 l 1.125,-1.777344 C 4.3125,-5.421875 4.46875,-5.597656 4.605469,-5.679688 c 0.140625,-0.085937 0.3125,-0.125 0.511719,-0.125 h 0.53125 v 0.789063 H 4.949219 l -0.910157,1.4375 c -0.121093,0.1875 -0.21875,0.316406 -0.292968,0.390625 -0.074219,0.070312 -0.1875,0.128906 -0.335938,0.171875 v 0.046875 c 0.15625,0.019531 0.292969,0.070312 0.414063,0.152344 0.121093,0.078125 0.242187,0.230468 0.359375,0.453125 l 0.890625,1.574219 H 5.738281 V 0 H 5.085938 C 4.898438,0 4.722656,-0.0507812 4.554688,-0.152344 4.390625,-0.253906 4.234375,-0.4375 4.082031,-0.707031 L 3.015625,-2.609375 H 1.855469 V 0 Z m 0,0"
           id="path323" />
      </symbol>
      <symbol
         overflow="visible"
         id="glyph1-7">
        <path
           style="stroke:none"
           d="M 0.449219,0 V -0.789062 H 1.125 l 0.652344,-1.5625 c 0.082031,-0.195313 0.1875,-0.339844 0.308594,-0.4375 0.125,-0.097657 0.257812,-0.160157 0.398437,-0.179688 V -3.015625 C 2.34375,-3.058594 2.214844,-3.136719 2.097656,-3.238281 1.980469,-3.34375 1.882812,-3.492188 1.800781,-3.679688 L 1.203125,-5.015625 H 0.527344 v -0.789063 h 0.53125 c 0.222656,0 0.421875,0.054688 0.589844,0.167969 0.167968,0.113281 0.308593,0.292969 0.421874,0.539063 L 2.847656,-3.375 H 3.882812 V -5.804688 H 4.78125 V -3.375 H 5.816406 L 6.59375,-5.097656 C 6.703125,-5.34375 6.84375,-5.523438 7.015625,-5.636719 7.183594,-5.75 7.378906,-5.804688 7.605469,-5.804688 h 0.527343 v 0.789063 H 7.457031 l -0.59375,1.335937 c -0.082031,0.1875 -0.179687,0.335938 -0.292969,0.441407 -0.113281,0.101562 -0.242187,0.179687 -0.394531,0.222656 v 0.046875 c 0.152344,0.019531 0.289063,0.082031 0.410157,0.179688 0.125,0.097656 0.222656,0.242187 0.300781,0.4375 l 0.652343,1.5625 H 8.210938 V 0 H 7.570312 C 7.367188,0 7.183594,-0.0546875 7.019531,-0.167969 6.855469,-0.28125 6.707031,-0.488281 6.582031,-0.789062 L 5.816406,-2.609375 H 4.78125 V 0 H 3.882812 V -2.609375 H 2.847656 L 2.082031,-0.789062 C 1.953125,-0.488281 1.808594,-0.28125 1.640625,-0.167969 1.476562,-0.0546875 1.292969,0 1.089844,0 Z m 0,0"
           id="path326" />
      </symbol>
      <symbol
         overflow="visible"
         id="glyph2-0">
        <path
           style="stroke:none"
           d=""
           id="path329" />
      </symbol>
    </g>
    <clipPath
       id="clip1">
      <path
         d="m 465,447 h 103.5 v 75.75 H 465 Z m 0,0"
         id="path334" />
    </clipPath>
    <clipPath
       id="clip2">
      <path
         d="M 465,542.25 H 568.5 V 618 H 465 Z m 0,0"
         id="path337" />
    </clipPath>
    <clipPath
       id="clip3">
      <path
         d="m 465,637.5 h 103.5 v 75.75 H 465 Z m 0,0"
         id="path340" />
    </clipPath>
    <clipPath
       id="clip4">
      <path
         d="m 0,84 h 594.96094 v 31 H 0 Z m 0,0"
         id="path343" />
    </clipPath>
    <clipPath
       id="clip5">
      <path
         d="M 0,730 H 594.96094 V 840.96094 H 0 Z m 0,0"
         id="path346" />
    </clipPath>
    <clipPath
       id="clip6">
      <path
         d="M 24.75,24.75 H 48 V 61 H 24.75 Z m 0,0"
         id="path349" />
    </clipPath>
    <clipPath
       id="clip7">
      <path
         d="m 114,24.75 h 23.25 V 61 H 114 Z m 0,0"
         id="path352" />
    </clipPath>
    <clipPath
       id="clip8">
      <path
         d="M 48,31 H 72 V 63.75 H 48 Z m 0,0"
         id="path355" />
    </clipPath>
    <clipPath
       id="clip9">
      <path
         d="M 39,466.5 H 58 V 485 H 39 Z m 0,0"
         id="path358" />
    </clipPath>
    <clipPath
       id="clip10">
      <path
         d="M 40.5,563.25 H 49 V 575 h -8.5 z m 0,0"
         id="path361" />
    </clipPath>
    <clipPath
       id="clip11">
      <path
         d="M 47,563.25 H 58.5 V 572 H 47 Z m 0,0"
         id="path364" />
    </clipPath>
    <clipPath
       id="clip12">
      <path
         d="m 50,570 h 8.5 v 11.25 H 50 Z m 0,0"
         id="path367" />
    </clipPath>
    <clipPath
       id="clip13">
      <path
         d="M 40.5,572 H 52 v 9.25 H 40.5 Z m 0,0"
         id="path370" />
    </clipPath>
  </defs>
  <g
     style="fill:#ababab;fill-opacity:1"
     id="g533"
     transform="translate(-24.816406,-24.785156)">
    <use
       xlink:href="#glyph0-18"
       x="146.59523"
       y="361.5"
       id="use531"
       width="100%"
       height="100%" />
  </g>
  <g
     style="fill:#ababab;fill-opacity:1"
     id="g573"
     transform="translate(-24.816406,-24.785156)">
    <use
       xlink:href="#glyph0-18"
       x="308.38843"
       y="361.5"
       id="use571"
       width="100%"
       height="100%" />
  </g>
  <g
     style="fill:#ababab;fill-opacity:1"
     id="g589"
     transform="translate(-24.816406,-24.785156)">
    <use
       xlink:href="#glyph0-18"
       x="356.09476"
       y="361.5"
       id="use587"
       width="100%"
       height="100%" />
  </g>
  <g
     style="fill:#000000;fill-opacity:1"
     id="g635"
     transform="translate(-24.816406,-24.785156)">
    <use
       xlink:href="#glyph2-0"
       x="104.49743"
       y="401.24997"
       id="use633"
       width="100%"
       height="100%" />
  </g>
  <g
     clip-path="url(#clip6)"
     clip-rule="nonzero"
     id="g725"
     transform="translate(-24.816406,-24.785156)">
    <path
       style="fill:#000000;fill-opacity:1;fill-rule:nonzero;stroke:none"
       d="M 47.5625,24.785156 31.789062,60.253906 H 24.816406 L 40.53125,24.785156 Z m 0,0"
       id="path723" />
  </g>
  <g
     clip-path="url(#clip7)"
     clip-rule="nonzero"
     id="g729"
     transform="translate(-24.816406,-24.785156)">
    <path
       style="fill:#000000;fill-opacity:1;fill-rule:nonzero;stroke:none"
       d="m 137.24609,24.785156 -15.77734,35.46875 h -6.97266 l 15.71485,-35.46875 z m 0,0"
       id="path727" />
  </g>
  <g
     clip-path="url(#clip8)"
     clip-rule="nonzero"
     id="g733"
     transform="translate(-24.816406,-24.785156)">
    <path
       style="fill:#000000;fill-opacity:1;fill-rule:nonzero;stroke:none"
       d="m 71.464844,43.328125 c 0,3.714844 -0.941406,6.710937 -2.828125,8.988281 -1.882813,2.277344 -4.207031,3.417969 -6.972657,3.421875 -1.160156,0 -2.167968,-0.132812 -3.023437,-0.398437 C 57.6875,55.035156 56.769531,54.625 55.90625,54.117188 v 9.699218 H 48.652344 V 32.015625 H 55.90625 V 34.4375 c 0.992188,-0.863281 2.082031,-1.609375 3.25,-2.214844 1.105469,-0.566406 2.382812,-0.851562 3.835938,-0.851562 2.691406,0 4.777343,1.070312 6.257812,3.210937 1.476562,2.144531 2.214844,5.058594 2.214844,8.746094 m -7.417969,0.144531 c 0,-2.265625 -0.347656,-3.910156 -1.042969,-4.933594 -0.699218,-1.023437 -1.785156,-1.53125 -3.261718,-1.53125 -0.660157,0 -1.316407,0.105469 -1.941407,0.3125 -0.671875,0.21875 -1.308593,0.535157 -1.894531,0.933594 v 11.707032 c 0.40625,0.167968 0.832031,0.289062 1.269531,0.351562 0.546875,0.07422 1.097657,0.109375 1.648438,0.101562 1.769531,0 3.082031,-0.578124 3.9375,-1.730468 0.855469,-1.152344 1.285156,-2.890625 1.285156,-5.210938"
       id="path731" />
  </g>
  <path
     style="fill:#000000;fill-opacity:1;fill-rule:nonzero;stroke:none"
     d="m 61.671875,28.03125 c -0.496093,0.417969 -0.941406,0.789063 -1.335937,1.121094 -0.488282,0.390625 -1.019532,0.722656 -1.585938,0.992188 -0.605468,0.304687 -1.242187,0.546874 -1.894531,0.726562 -0.617187,0.167969 -1.476563,0.25 -2.582031,0.25 -2.058594,0 -3.765625,-0.691406 -5.128906,-2.074219 -1.359376,-1.378906 -2.039063,-3.121093 -2.039063,-5.21875 0,-1.730469 0.34375,-3.125 1.035156,-4.1875 0.6875,-1.0625 1.683594,-1.90625 2.984375,-2.527343 1.3125,-0.636719 2.878906,-1.078126 4.703125,-1.328126 1.820313,-0.246093 3.785157,-0.4375 5.886719,-0.578124 v -0.125 c 0,-1.285157 -0.472656,-2.171876 -1.421875,-2.664063 -0.945313,-0.492187 -2.363281,-0.738281 -4.257813,-0.738281 -0.855468,0 -1.855468,0.15625 -3.003906,0.46875 -1.148437,0.3125 -2.269531,0.710937 -3.355468,1.191406 H 49.054688 V 7.726563 c 0.71875,-0.207031 1.878906,-0.453125 3.480468,-0.734375 1.601563,-0.285156 3.226563,-0.429688 4.855469,-0.425782 4.003907,0 6.921875,0.664063 8.75,2 1.828125,1.332032 2.742188,3.367188 2.746094,6.101563 V 30.5 h -7.214844 z m 0,-3.605468 v -4.851563 c -1.230469,0.125 -2.222656,0.230469 -2.984375,0.316406 -0.761718,0.09375 -1.511718,0.269531 -2.238281,0.53125 -0.632813,0.21875 -1.128906,0.554688 -1.480469,1.003907 -0.351562,0.449218 -0.527344,1.046874 -0.527344,1.792968 0,1.089844 0.292969,1.839844 0.878907,2.246094 0.589843,0.410156 1.453125,0.613281 2.601562,0.613281 0.671875,-0.0078 1.335938,-0.15625 1.949219,-0.4375 0.667969,-0.289062 1.28125,-0.703125 1.800781,-1.214843"
     id="path735" />
  <path
     style="fill:#000000;fill-opacity:1;fill-rule:nonzero;stroke:none"
     d="m 78.921874,31.140625 c -1.63672,0.01172 -3.26953,-0.175781 -4.859374,-0.554687 -1.527344,-0.371094 -2.789062,-0.808594 -3.785156,-1.304688 v -6.136718 h 0.601562 c 0.347657,0.265624 0.738282,0.558593 1.183594,0.871093 0.441406,0.3125 1.054688,0.648438 1.84375,0.996094 0.738282,0.339844 1.503904,0.613281 2.289064,0.816406 0.90234,0.234375 1.83203,0.351563 2.76562,0.34375 1.02344,0 1.92579,-0.160156 2.70704,-0.476562 0.77734,-0.320313 1.16796,-0.824219 1.16796,-1.511719 0,-0.539062 -0.17968,-0.945312 -0.53906,-1.222656 -0.35547,-0.277344 -1.05469,-0.539063 -2.08984,-0.789063 -0.55469,-0.136719 -1.25,-0.285156 -2.09375,-0.445312 -0.75781,-0.136719 -1.50391,-0.320313 -2.23828,-0.546875 -1.824222,-0.566406 -3.195316,-1.40625 -4.113285,-2.519532 -0.917969,-1.113281 -1.378906,-2.574218 -1.378906,-4.382812 0,-1.019531 0.242187,-2.027344 0.71875,-2.929688 0.476562,-0.917968 1.175781,-1.738281 2.101562,-2.457031 0.925781,-0.707031 2.066409,-1.269531 3.425779,-1.6875 1.35938,-0.414062 2.89844,-0.621093 4.61328,-0.621093 1.51172,-0.01172 3.02344,0.152343 4.4961,0.488281 1.36719,0.324219 2.52344,0.714843 3.46094,1.167969 v 5.890624 h -0.58204 c -0.3789,-0.28125 -0.76953,-0.542968 -1.17968,-0.777343 -0.50782,-0.308594 -1.03516,-0.589844 -1.57422,-0.839844 -0.65625,-0.292969 -1.33985,-0.523437 -2.03906,-0.683594 -0.75782,-0.183593 -1.53516,-0.273437 -2.3125,-0.269531 -1.05079,0 -1.9375,0.175781 -2.66407,0.535156 -0.72265,0.359375 -1.08593,0.835938 -1.08593,1.433594 0,0.523438 0.17968,0.9375 0.53906,1.242188 0.35937,0.304687 1.14062,0.601562 2.33984,0.890624 0.625,0.152344 1.33985,0.300782 2.14844,0.445313 0.78906,0.140625 1.57031,0.339844 2.33203,0.59375 1.67188,0.535156 2.9375,1.328125 3.80078,2.371094 0.86719,1.042969 1.29688,2.425781 1.29688,4.15625 0,1.085937 -0.26172,2.15625 -0.76953,3.117187 -0.51172,0.992188 -1.25782,1.847656 -2.17188,2.496094 -0.99609,0.734375 -2.16797,1.300781 -3.51562,1.699219 -1.34375,0.402343 -2.95704,0.601562 -4.83594,0.601562"
     id="path737" />
</svg>
