<?xml version="1.0" encoding="UTF-8" standalone="no"?>
<svg
   height="356.98129"
   preserveAspectRatio="xMidYMid meet"
   viewBox="0 0 529.22652 729.95333"
   width="258.90717"
   version="1.1"
   id="svg52"
   sodipodi:docname="md-pdm.svg"
   inkscape:version="1.1.2 (b8e25be833, 2022-02-05)"
   xmlns:inkscape="http://www.inkscape.org/namespaces/inkscape"
   xmlns:sodipodi="http://sodipodi.sourceforge.net/DTD/sodipodi-0.dtd"
   xmlns="http://www.w3.org/2000/svg"
   xmlns:svg="http://www.w3.org/2000/svg">
  <defs
     id="defs56" />
  <sodipodi:namedview
     id="namedview54"
     pagecolor="#505050"
     bordercolor="#eeeeee"
     borderopacity="1"
     inkscape:pageshadow="0"
     inkscape:pageopacity="0"
     inkscape:pagecheckerboard="0"
     showgrid="false"
     fit-margin-top="0"
     fit-margin-left="0"
     fit-margin-right="0"
     fit-margin-bottom="0"
     inkscape:zoom="2.081109"
     inkscape:cx="126.85544"
     inkscape:cy="178.27033"
     inkscape:window-width="1920"
     inkscape:window-height="1017"
     inkscape:window-x="-8"
     inkscape:window-y="-8"
     inkscape:window-maximized="1"
     inkscape:current-layer="svg52" />
  <g
     transform="matrix(0.1,0,0,-0.1,-26.525012,730.85332)"
     id="g50">
    <g
       fill="#254b9c"
       id="g10">
      <path
         d="M 2598,7295 C 1818,7200 1122,6767 688,6105 477,5783 349,5444 283,5035 c -25,-157 -25,-592 0,-755 103,-662 426,-1241 927,-1662 274,-230 656,-429 994,-519 243,-64 467,-88 512,-55 19,15 19,15 -1,35 -27,28 -109,56 -254,86 -554,117 -1041,402 -1396,817 -307,358 -493,754 -577,1223 -25,144 -36,518 -19,678 44,405 197,818 429,1152 179,258 440,512 697,677 564,364 1248,487 1905,342 353,-78 711,-249 1012,-484 194,-151 427,-413 568,-640 133,-212 259,-522 314,-770 45,-206 51,-272 51,-545 0,-374 -20,-481 -176,-955 -89,-271 -124,-400 -106,-400 11,0 119,199 167,308 96,215 168,457 205,692 23,141 31,525 15,673 -108,1004 -763,1852 -1705,2210 -203,77 -453,135 -674,157 -139,13 -441,11 -573,-5 z"
         id="path2" />
      <path
         d="m 2690,4777 c 0,-63 28,-205 83,-417 120,-462 154,-775 118,-1065 -13,-101 -22,-125 -47,-125 -31,0 -103,83 -200,230 -100,152 -230,315 -251,315 -6,0 -31,-26 -57,-57 -25,-31 -77,-80 -116,-109 -66,-49 -79,-69 -44,-69 27,0 146,-51 219,-94 196,-115 283,-271 347,-622 21,-118 23,-154 21,-416 l -1,-288 h 172 173 l 6,198 c 10,297 38,473 97,598 16,33 69,114 118,180 108,146 164,193 285,238 59,23 60,24 37,36 -38,20 -130,111 -159,156 l -27,41 -87,-141 c -160,-257 -189,-289 -274,-303 l -31,-5 5,238 c 7,288 -5,440 -53,688 -34,170 -36,196 -40,431 -3,138 -7,269 -10,292 -5,42 -5,43 -29,27 -34,-22 -92,-11 -182,37 l -73,38 z"
         id="path4" />
      <path
         d="m 1658,3123 c -21,-2 -38,-8 -38,-13 0,-22 45,-110 85,-165 152,-214 402,-335 691,-335 67,0 125,4 128,9 11,17 -148,163 -242,224 -51,33 -91,61 -89,63 7,7 180,-56 227,-83 25,-14 73,-45 108,-69 l 62,-43 v 26 c 0,50 -31,138 -68,193 -68,100 -167,155 -338,185 -74,13 -425,18 -526,8 z"
         id="path6" />
      <path
         d="m 3743,3060 c -165,-18 -274,-62 -357,-145 -51,-51 -98,-129 -111,-187 l -7,-27 113,51 c 109,49 241,88 344,103 28,4 48,5 45,2 -3,-3 -60,-30 -127,-60 -108,-48 -313,-171 -313,-188 0,-9 131,-29 215,-33 155,-8 380,28 518,84 167,68 346,210 401,318 20,39 29,36 -139,56 -275,34 -434,41 -582,26 z"
         id="path8" />
    </g>
    <g
       fill="#df0025"
       id="g48">
      <path
         d="m 2627,6694 c -240,-43 -462,-195 -552,-378 -35,-69 -39,-88 -43,-168 -3,-51 1,-115 8,-147 35,-162 155,-313 313,-391 48,-24 89,-41 92,-38 3,3 -6,41 -21,84 -35,105 -44,259 -20,365 54,245 224,389 461,393 105,1 168,-18 242,-74 98,-74 153,-176 176,-325 l 12,-80 47,47 c 149,148 134,363 -38,533 -163,162 -411,227 -677,179 z"
         id="path12" />
      <path
         d="m 3315,6649 c 67,-50 145,-142 180,-212 111,-226 39,-465 -176,-582 -126,-68 -408,-105 -552,-71 -89,21 -159,57 -213,112 -55,55 -59,49 -59,-96 1,-146 26,-213 154,-403 38,-57 83,-131 100,-166 l 32,-63 32,49 c 86,130 246,249 470,350 78,35 169,77 202,95 207,108 339,263 367,431 45,271 -201,557 -492,574 l -75,4 z"
         id="path14" />
      <path
         d="m 2789,6327 c -128,-37 -193,-113 -193,-226 1,-160 118,-250 313,-239 177,10 264,83 246,204 l -6,45 -44,-40 c -52,-47 -135,-76 -204,-69 -131,13 -204,116 -133,188 60,59 178,64 265,10 26,-16 51,-30 54,-30 3,0 3,18 0,41 -6,44 -35,82 -81,106 -39,20 -160,26 -217,10 z"
         id="path16" />
      <path
         d="m 3700,5689 c -52,-45 -143,-94 -287,-154 -199,-82 -217,-91 -286,-134 -114,-73 -193,-174 -234,-300 -8,-25 -17,-94 -20,-152 l -6,-107 105,19 c 266,47 480,155 595,298 58,72 117,195 143,296 19,70 40,266 29,265 -2,-1 -20,-14 -39,-31 z"
         id="path18" />
      <path
         d="m 2236,5552 c 34,-149 67,-234 125,-319 73,-106 179,-198 297,-257 64,-32 66,-29 60,87 -6,108 -44,193 -125,279 -81,84 -236,190 -336,227 -26,10 -27,10 -21,-17 z"
         id="path20" />
      <path
         d="m 1636,5215 c -63,-16 -165,-67 -190,-94 -13,-15 -8,-16 62,-17 180,-2 329,-90 400,-234 34,-69 42,-181 18,-262 -38,-131 -211,-325 -351,-394 -75,-37 -84,-39 -172,-39 -51,0 -93,-1 -93,-3 0,-2 16,-28 35,-57 78,-116 165,-171 366,-231 68,-20 146,-47 173,-61 l 48,-24 -7,59 c -15,133 29,296 144,532 85,174 107,237 123,345 31,219 -72,397 -270,466 -76,27 -209,33 -286,14 z"
         id="path22" />
      <path
         d="m 3941,5075 c -206,-58 -323,-225 -308,-440 8,-106 41,-204 132,-386 42,-83 90,-192 107,-242 29,-84 32,-103 33,-218 v -126 l 53,24 c 29,12 107,39 175,59 153,44 231,81 295,139 41,37 112,129 112,146 0,2 -42,4 -93,4 -90,0 -97,2 -178,42 -138,69 -279,215 -346,359 -23,50 -28,72 -28,144 0,71 5,94 27,142 68,147 209,234 398,247 l 95,6 -44,32 c -74,55 -142,75 -266,79 -77,3 -126,-1 -164,-11 z"
         id="path24" />
      <path
         d="m 1324,4992 c -197,-59 -385,-226 -471,-420 -77,-175 -82,-348 -12,-484 69,-135 256,-238 434,-238 62,0 170,20 196,36 5,3 -25,28 -66,55 -96,64 -165,143 -218,248 -41,83 -42,86 -42,190 0,99 2,111 32,174 38,80 116,162 188,197 42,21 65,25 145,25 86,0 101,-3 160,-31 36,-17 91,-54 122,-83 l 57,-52 7,46 c 9,66 -2,129 -33,187 -33,61 -69,92 -153,132 -59,28 -76,31 -175,33 -82,2 -125,-2 -171,-15 z"
         id="path26" />
      <path
         d="m 4253,4865 c -168,-38 -273,-154 -273,-299 0,-28 3,-61 6,-73 6,-22 8,-21 49,20 214,209 518,162 647,-100 31,-63 33,-74 33,-169 0,-98 -1,-103 -42,-185 -52,-104 -131,-193 -229,-258 -42,-27 -71,-52 -66,-55 5,-3 38,-12 73,-21 177,-41 361,5 491,124 154,141 177,362 63,596 -93,192 -259,341 -448,400 -99,32 -221,40 -304,20 z"
         id="path28" />
      <path
         d="m 1392,4689 c -93,-46 -172,-179 -157,-263 25,-132 170,-205 297,-148 58,26 152,113 177,165 33,69 27,121 -22,175 -27,29 -37,28 -37,-5 0,-42 -43,-125 -81,-157 -65,-55 -142,-72 -187,-40 -84,59 -4,198 130,226 32,7 58,15 58,19 0,4 -12,17 -26,28 -35,27 -96,27 -152,0 z"
         id="path30" />
      <path
         d="m 2261,4649 c -8,-40 -48,-131 -115,-264 -118,-231 -142,-306 -133,-419 3,-39 15,-97 27,-128 22,-58 118,-203 134,-203 16,0 153,176 196,252 116,202 131,395 47,603 -23,55 -125,220 -137,220 -3,0 -12,-27 -19,-61 z"
         id="path32" />
      <path
         d="m 4323,4566 c -17,-8 -36,-23 -42,-34 -10,-18 -6,-20 39,-24 71,-7 138,-51 168,-110 17,-32 22,-55 18,-73 -8,-31 -60,-65 -99,-65 -93,0 -207,112 -207,205 0,41 -17,46 -47,13 -68,-75 -52,-162 48,-258 103,-99 215,-127 310,-77 95,51 135,167 90,261 -57,117 -196,198 -278,162 z"
         id="path34" />
      <path
         d="m 3506,4523 c -135,-184 -184,-390 -137,-575 33,-127 90,-228 215,-377 l 70,-84 38,44 c 54,61 116,191 127,267 19,123 -9,217 -139,459 -76,140 -120,246 -120,284 0,35 -20,29 -54,-18 z"
         id="path36" />
      <path
         d="m 1451,3805 c -40,-8 -85,-18 -99,-23 l -25,-8 44,-36 c 155,-127 370,-179 571,-139 l 68,13 -18,30 c -29,52 -116,123 -178,147 -75,30 -252,37 -363,16 z"
         id="path38" />
      <path
         d="m 4072,3665 c -61,-17 -104,-38 -151,-74 -34,-25 -91,-96 -91,-112 0,-15 116,-32 215,-32 103,0 184,16 272,54 51,21 203,119 203,131 0,15 -154,41 -270,44 -90,3 -140,0 -178,-11 z"
         id="path40" />
      <path
         d="M 290,876 V 10 h 265 265 v 309 308 l 208,6 c 300,7 417,43 537,162 126,126 181,322 144,521 -27,147 -129,279 -269,347 -134,66 -161,69 -682,74 l -468,5 z m 807,469 c 51,-22 70,-40 89,-91 24,-63 12,-125 -33,-175 -45,-49 -80,-59 -220,-59 H 820 v 170 170 h 120 c 86,0 131,-4 157,-15 z"
         id="path42" />
      <path
         d="M 1920,874 V 9 l 428,4 c 362,3 437,6 492,21 274,72 474,291 553,606 25,101 30,337 9,435 -42,195 -106,320 -221,436 -98,97 -159,135 -286,178 -127,42 -237,51 -630,51 h -345 z m 770,428 c 103,-51 157,-172 167,-372 11,-231 -56,-417 -176,-488 -38,-22 -60,-27 -138,-30 l -93,-4 v 467 468 l 93,-7 c 71,-5 105,-13 147,-34 z"
         id="path44" />
      <path
         d="M 3650,875 V 10 h 200 200 l 1,618 c 0,399 4,609 10,593 9,-22 319,-1195 319,-1206 0,-3 74,-5 164,-5 h 164 l 14,57 c 9,32 75,292 147,578 73,286 138,538 146,560 12,35 14,-43 14,-577 l 1,-618 h 250 250 v 865 865 h -344 -343 l -92,-342 C 4604,853 4597,830 4590,830 c -3,0 -62,204 -131,453 l -125,452 -342,3 -342,2 z"
         id="path46" />
    </g>
  </g>
</svg>
