<?xml version="1.0" encoding="UTF-8" standalone="no"?>
<svg
   width="30.999685"
   height="31.000999"
   fill="none"
   version="1.1"
   id="svg4"
   sodipodi:docname="md-pcrm.svg"
   inkscape:version="1.1.2 (b8e25be833, 2022-02-05)"
   xmlns:inkscape="http://www.inkscape.org/namespaces/inkscape"
   xmlns:sodipodi="http://sodipodi.sourceforge.net/DTD/sodipodi-0.dtd"
   xmlns="http://www.w3.org/2000/svg"
   xmlns:svg="http://www.w3.org/2000/svg">
  <defs
     id="defs8" />
  <sodipodi:namedview
     id="namedview6"
     pagecolor="#505050"
     bordercolor="#eeeeee"
     borderopacity="1"
     inkscape:pageshadow="0"
     inkscape:pageopacity="0"
     inkscape:pagecheckerboard="0"
     showgrid="false"
     fit-margin-top="0"
     fit-margin-left="0"
     fit-margin-right="0"
     fit-margin-bottom="0"
     inkscape:zoom="12.016129"
     inkscape:cx="1.1651007"
     inkscape:cy="14.896644"
     inkscape:window-width="1920"
     inkscape:window-height="1017"
     inkscape:window-x="-8"
     inkscape:window-y="-8"
     inkscape:window-maximized="1"
     inkscape:current-layer="svg4" />
  <path
     fill-rule="evenodd"
     clip-rule="evenodd"
     d="M 0,3.42 V 6.84 H 5.97 L 5.962,4.015 5.955,1.189 5.895,1.027 A 1.566,1.566 0 0 0 4.957,0.085 L 4.767,0.015 2.383,0.007 0,0 Z M 7.656,0.04 C 7.339,0.11 7.016,0.31 6.82,0.556 6.69,0.718 6.554,1.004 6.514,1.197 6.494,1.294 6.484,2.167 6.484,4.087 V 6.84 h 5.97 V 0.001 L 10.135,0.004 C 8.295,0.005 7.782,0.013 7.656,0.04 Z M 5.038,1.778 V 1.96 H 0.93 V 1.795 A 0.59,0.59 0 0 1 0.947,1.612 C 0.957,1.602 1.881,1.595 3.001,1.595 h 2.037 z m 6.48,0.006 0.007,0.176 H 7.415 V 1.594 l 2.048,0.007 2.047,0.007 z m -6.48,0.842 v 0.17 H 0.93 v -0.34 h 4.108 z m 6.485,0 v 0.17 H 7.415 v -0.34 h 4.108 z M 5.038,3.474 V 3.657 H 0.93 V 3.29 h 4.108 v 0.183 z m 6.485,0 V 3.657 H 7.415 V 3.29 h 4.108 v 0.183 z m 3.14,0.02 c 0.013,0.013 0.159,0.116 0.322,0.229 2.197,1.515 4.451,3.558 6.032,5.468 1.228,1.483 2.28,3.28 2.903,4.961 0.34,0.914 0.587,1.964 0.674,2.854 0.04,0.411 0.035,1.352 -0.01,1.738 a 6.768,6.768 0 0 1 -0.68,2.338 6.317,6.317 0 0 1 -0.19,0.358 c -0.032,0.041 -0.2,-0.09 -1.882,-1.463 a 22217.332,22217.332 0 0 0 -6.98,-5.699 l -0.276,-0.226 2.063,-2.463 a 453.364,453.364 0 0 0 2.058,-2.467 c -0.018,-0.016 -6.13,-0.297 -6.448,-0.297 -0.47,0 -0.83,0.098 -1.027,0.278 -0.045,0.04 -1.271,1.496 -2.726,3.233 -1.662,1.985 -2.67,3.21 -2.715,3.299 a 0.755,0.755 0 0 0 0.072,0.777 c 0.091,0.12 3.32,2.877 3.476,2.968 a 0.729,0.729 0 0 0 0.806,-0.064 c 0.053,-0.044 0.504,-0.566 1.001,-1.16 a 69.72,69.72 0 0 1 0.925,-1.093 c 0.012,-0.007 0.642,0.54 1.401,1.216 5.89,5.242 6.923,6.164 6.923,6.18 0,0.01 -0.16,0.092 -0.355,0.183 -1.115,0.52 -2.053,0.809 -3.06,0.946 -0.345,0.047 -0.549,0.057 -1.12,0.058 -0.405,0 -0.821,-0.014 -0.994,-0.033 C 13.252,25.43 11.78,24.963 10.164,24.123 9.239,23.643 8.219,22.986 7.537,22.433 7.44,22.354 7.352,22.294 7.34,22.299 7.328,22.303 7.048,22.601 6.717,22.959 l -0.694,0.754 -0.094,0.1 0.386,0.375 c 0.213,0.206 0.476,0.455 0.586,0.552 0.11,0.098 0.198,0.186 0.196,0.196 -0.003,0.01 -0.673,0.56 -1.49,1.22 -0.818,0.662 -1.534,1.256 -1.593,1.322 -0.418,0.467 -0.425,1.243 -0.018,1.869 0.2,0.307 0.495,0.53 0.874,0.663 0.18,0.063 0.247,0.073 0.517,0.074 0.26,0.001 0.338,-0.008 0.483,-0.059 A 1.56,1.56 0 0 0 6.411,29.691 C 6.449,29.65 6.994,28.911 7.623,28.049 A 578.84,578.84 0 0 1 8.81,26.426 l 0.044,-0.057 0.217,0.158 c 2.823,2.05 5.621,3.075 8.394,3.075 2.09,0 4.538,-0.65 6.308,-1.678 0.166,-0.096 0.307,-0.175 0.315,-0.175 0.008,0 0.715,0.625 1.572,1.388 0.857,0.763 1.637,1.44 1.734,1.503 0.222,0.146 0.4,0.225 0.67,0.298 0.306,0.084 0.844,0.084 1.155,0 a 2.408,2.408 0 0 0 1.695,-1.623 c 0.06,-0.19 0.073,-0.28 0.083,-0.62 0.016,-0.5 -0.037,-0.768 -0.227,-1.15 -0.234,-0.471 -0.185,-0.426 -2.311,-2.157 a 89.635,89.635 0 0 1 -1.146,-0.94 l -0.06,-0.058 0.12,-0.242 c 0.163,-0.328 0.32,-0.726 0.461,-1.162 C 28.572,20.684 28.53,18.19 27.708,15.639 26.706,12.527 24.575,9.485 21.78,7.179 19.802,5.545 17.15,4.164 14.688,3.483 14.655,3.473 14.645,3.477 14.662,3.493 Z M 5.038,4.27 V 4.44 H 0.93 V 4.1 h 4.108 z m 6.485,0 V 4.44 H 7.415 V 4.1 h 4.108 z M 3.178,5.08 V 5.25 H 0.93 V 4.91 h 2.248 z m 6.485,0 V 5.25 H 7.415 V 4.91 h 2.248 z"
     fill="#d2222a"
     id="path2" />
</svg>
