<?xml version="1.0" encoding="UTF-8" standalone="no"?>
<svg
   width="718.66602"
   height="785.70905"
   viewBox="0 0 718.66602 785.70905"
   fill="none"
   version="1.1"
   id="svg12"
   sodipodi:docname="md-psrm.svg"
   inkscape:version="1.1.2 (b8e25be833, 2022-02-05)"
   xmlns:inkscape="http://www.inkscape.org/namespaces/inkscape"
   xmlns:sodipodi="http://sodipodi.sourceforge.net/DTD/sodipodi-0.dtd"
   xmlns="http://www.w3.org/2000/svg"
   xmlns:svg="http://www.w3.org/2000/svg">
  <defs
     id="defs16" />
  <sodipodi:namedview
     id="namedview14"
     pagecolor="#505050"
     bordercolor="#eeeeee"
     borderopacity="1"
     inkscape:pageshadow="0"
     inkscape:pageopacity="0"
     inkscape:pagecheckerboard="0"
     showgrid="false"
     fit-margin-top="0"
     fit-margin-left="0"
     fit-margin-right="0"
     fit-margin-bottom="0"
     inkscape:zoom="0.94783715"
     inkscape:cx="359.76644"
     inkscape:cy="392.47248"
     inkscape:window-width="1920"
     inkscape:window-height="1017"
     inkscape:window-x="-8"
     inkscape:window-y="-8"
     inkscape:window-maximized="1"
     inkscape:current-layer="svg12" />
  <path
     d="M 631.706,196.296 H 424.954 L 361.006,0 297.125,196.296 H 90.3057 L 257.394,317.717 193.513,514.013 361.006,392.593 528.499,514.013 464.618,317.717 Z M 492.275,464.433 361.006,284.259 v 84.927 L 229.737,464.433 361.006,284.259 279.789,310.432 148.453,215.117 361.006,284.259 310.954,215.117 361.006,61.4522 V 284.259 l 50.052,-69.142 h 162.501 l -212.553,69.142 81.284,26.173 z"
     fill="#d12c26"
     id="path2" />
  <path
     d="m 228.667,598.501 c -19.733,3.2 -40.8,13.733 -49.6,24.933 -8,10 -10.133,16.133 -10.8,29.333 -1.6,33.867 15.867,49.6 67.067,60.4 30.266,6.4 38,10.934 38,22.534 0,18.133 -39.734,23.2 -74.4,9.333 -5.467,-2.133 -14,-6.533 -19.067,-9.867 -5.067,-3.333 -10.133,-6 -11.2,-6 -1.733,0 -2,3.6 -2,22 v 21.867 l 14.4,4.533 c 21.467,6.8 31.467,8.267 56.267,8.134 17.866,-0.134 24,-0.667 32.4,-2.934 34.266,-9.333 53.733,-32.933 51.066,-62.266 -1.066,-11.6 -6.8,-24.134 -13.866,-30 -2.667,-2.267 -9.734,-6.534 -15.6,-9.334 -9.6,-4.666 -17.6,-6.933 -53.467,-15.2 -16.8,-4 -22.533,-8.533 -22.267,-17.733 0.534,-18 38.534,-23.6 70.667,-10.4 8.933,3.6 20,9.6 21.067,11.467 0.533,0.666 2,1.2 3.466,1.2 2.534,0 2.534,-0.934 2.267,-20.934 l -0.4,-20.8 -7.333,-2.533 c -20.534,-6.933 -57.467,-10.667 -76.667,-7.733 z"
     fill="#d12c26"
     id="path4" />
  <path
     d="m 0,691.7 v 90.8 h 23.3333 23.3334 v -29.2 -29.2 l 24.4,-0.533 c 27.7333,-0.8 36.2663,-2.8 49.7333,-11.467 19.467,-12.666 28.533,-29.733 28.533,-53.6 0,-23.466 -8.933,-39.066 -28,-48.666 -14.4,-7.334 -18.133,-7.734 -71.5997,-8.4 L 0,600.9 Z m 88.2667,-52.266 c 4,1.866 7.4666,4.666 9.7333,8.266 3.333,4.934 3.6,6.267 3.067,15.334 -0.267,7.466 -1.2003,10.933 -3.2003,13.733 -6.8,9.2 -16.6667,12.4 -37.8667,12.4 H 46.6667 v -26.8 -26.8 L 64.4,636.1 c 14.4,0.4 18.6667,0.934 23.8667,3.334 z"
     fill="#d12c26"
     id="path6" />
  <path
     d="m 346.667,691.7 v 90.8 H 370 393.334 V 749.167 715.7 l 10.933,0.4 10.933,0.4 24.267,32.667 24.133,32.667 28.267,0.4 c 15.467,0.133 28.133,0 28.133,-0.4 0,-0.267 -13.2,-17.6 -29.333,-38.267 -16.133,-20.8 -29.333,-38.133 -29.333,-38.667 0,-0.533 2.4,-2.266 5.2,-3.733 9.333,-4.667 20.666,-16.4 24.8,-25.6 4.933,-10.8 6.133,-28.667 2.8,-40 -3.867,-13.467 -16.8,-24.933 -34.534,-30.8 -7.6,-2.533 -12.266,-2.8 -60.533,-3.333 l -52.4,-0.534 z M 432.8,636.5 c 10,2.934 14.267,8.134 14.934,18 0.666,9.734 -1.067,14.534 -7.734,20.534 -6.266,5.6 -14.133,7.466 -32.666,7.466 h -14 v -24 -24 h 16.4 c 10.666,0 18.8,0.667 23.066,2 z"
     fill="#d12c26"
     id="path8" />
  <path
     d="M 529.333,691.834 V 782.5 h 22 22 l 0.267,-60 0.4,-60.133 16.4,38.8 16.533,38.8 16.133,-0.4 16.267,-0.4 16,-37.6 c 8.8,-20.667 16.4,-38 17.067,-38.533 0.533,-0.534 0.933,26.133 0.933,59.2 V 782.5 H 696 718.666 v -90.666 -90.667 l -26.933,0.267 -27.067,0.4 -20.266,45.2 -20.134,45.2 L 620.4,683.7 C 618.266,679.034 609.066,658.5 600,638.1 L 583.333,601.167 H 556.4 529.333 Z"
     fill="#d12c26"
     id="path10" />
</svg>
