<?xml version="1.0" encoding="UTF-8" standalone="no"?>
<svg
   enable-background="new 0 0 323.712 411.094"
   height="356.17462"
   viewBox="0 0 323.44083 411.10777"
   width="280.53537"
   version="1.1"
   id="svg70"
   sodipodi:docname="United_Russia_Logos.svg"
   inkscape:version="1.1.2 (b8e25be833, 2022-02-05)"
   xmlns:inkscape="http://www.inkscape.org/namespaces/inkscape"
   xmlns:sodipodi="http://sodipodi.sourceforge.net/DTD/sodipodi-0.dtd"
   xmlns="http://www.w3.org/2000/svg"
   xmlns:svg="http://www.w3.org/2000/svg">
  <defs
     id="defs74" />
  <sodipodi:namedview
     id="namedview72"
     pagecolor="#505050"
     bordercolor="#eeeeee"
     borderopacity="1"
     inkscape:pageshadow="0"
     inkscape:pageopacity="0"
     inkscape:pagecheckerboard="0"
     showgrid="false"
     fit-margin-top="0"
     fit-margin-left="0"
     fit-margin-right="0"
     fit-margin-bottom="0"
     inkscape:zoom="2.0917407"
     inkscape:cx="188.83794"
     inkscape:cy="177.84231"
     inkscape:window-width="1920"
     inkscape:window-height="1017"
     inkscape:window-x="-8"
     inkscape:window-y="-8"
     inkscape:window-maximized="1"
     inkscape:current-layer="svg70" />
  <path
     d="m 56.879959,317.60014 h -19.597 v 5.187 h 15.563 c 0,5.765 -0.577,9.801 -2.306,9.801 -1.152,0 -13.257,0 -13.257,0 v 5.187 h 19.597 v 10.951 h -34.006 v -41.499 h 34.006 z"
     fill="none"
     stroke="#ffffff"
     stroke-miterlimit="2.6131"
     stroke-width="1.4173"
     id="path2" />
  <path
     clip-rule="evenodd"
     d="m 56.879959,317.60014 h -19.597 v 5.187 h 15.563 c 0,5.765 -0.577,9.801 -2.306,9.801 -1.152,0 -13.257,0 -13.257,0 v 5.187 h 19.597 v 10.951 h -34.006 v -41.499 h 34.006 z"
     fill="#2056ae"
     fill-rule="evenodd"
     id="path4"
     style="fill:#004f9f;fill-opacity:1" />
  <path
     d="m 94.921959,355.06814 v -6.343 h -21.327 v 6.343 h -12.68 v -17.867 c 0,0 0.577,0 2.882,-0.578 2.882,-1.155 5.188,-4.613 6.34,-9.8 1.729,-6.916 2.306,-14.409 2.306,-19.597 h 30.548001 v 30.548 h 5.188 v 17.294 z m -11.528,-36.889 c -0.576,8.071 -2.306,14.986 -4.611,19.022 h 9.799 v -19.022 z"
     fill="none"
     stroke="#ffffff"
     stroke-miterlimit="2.6131"
     stroke-width="1.4173"
     id="path6" />
  <path
     clip-rule="evenodd"
     d="m 94.921959,355.06814 v -6.343 h -21.327 v 6.343 h -12.68 v -17.867 c 0,0 0.577,0 2.882,-0.578 2.882,-1.155 5.188,-4.613 6.34,-9.8 1.729,-6.916 2.306,-14.409 2.306,-19.597 h 30.548001 v 30.548 h 5.188 v 17.294 z m -11.528,-36.889 c -0.576,8.071 -2.306,14.986 -4.611,19.022 h 9.799 v -19.022 z"
     fill="#2056ae"
     fill-rule="evenodd"
     id="path8"
     style="fill:#004f9f;fill-opacity:1" />
  <path
     d="m 142.76196,348.72514 v -17.289 -4.036 c 0,0 -9.223,12.103 -10.952,15.561 -1.152,2.307 -3.459,5.765 -7.493,5.765 -5.187,0 -10.375,0 -10.375,0 v -41.499 h 13.257 v 18.445 6.338 c 0,0 12.104,-17.867 14.986,-21.902 1.729,-2.303 4.611,-2.881 5.765,-2.881 h 8.645 v 41.499 h -13.833 z"
     fill="none"
     stroke="#ffffff"
     stroke-miterlimit="2.6131"
     stroke-width="1.4173"
     id="path10" />
  <path
     clip-rule="evenodd"
     d="m 142.76196,348.72514 v -17.289 -4.036 c 0,0 -9.223,12.103 -10.952,15.561 -1.152,2.307 -3.459,5.765 -7.493,5.765 -5.187,0 -10.375,0 -10.375,0 v -41.499 h 13.257 v 18.445 6.338 c 0,0 12.104,-17.867 14.986,-21.902 1.729,-2.303 4.611,-2.881 5.765,-2.881 h 8.645 v 41.499 h -13.833 z"
     fill="#2056ae"
     fill-rule="evenodd"
     id="path12"
     style="fill:#004f9f;fill-opacity:1" />
  <path
     d="m 177.92096,321.63614 h 13.258 v -14.409 h 14.409 v 41.499 h -14.984 v -15.561 h -12.683 v 15.561 h -14.409 v -41.499 h 14.409 z"
     fill="none"
     stroke="#ffffff"
     stroke-miterlimit="2.6131"
     stroke-width="1.4173"
     id="path14" />
  <path
     clip-rule="evenodd"
     d="m 177.92096,321.63614 h 13.258 v -14.409 h 14.409 v 41.499 h -14.984 v -15.561 h -12.683 v 15.561 h -14.409 v -41.499 h 14.409 z"
     fill="#2056ae"
     fill-rule="evenodd"
     id="path16"
     style="fill:#004f9f;fill-opacity:1" />
  <path
     d="m 257.46296,348.72514 h -15.563 l -2.883,-8.645 h -12.681 l -2.304,8.645 h -16.139 l 14.985,-41.499 h 19.021 z m -29.396,-17.289 h 8.646 l -4.035,-14.987 z"
     fill="none"
     stroke="#ffffff"
     stroke-miterlimit="2.6131"
     stroke-width="1.4173"
     id="path18" />
  <path
     clip-rule="evenodd"
     d="m 257.46296,348.72514 h -15.563 l -2.883,-8.645 h -12.681 l -2.304,8.645 h -16.139 l 14.985,-41.499 h 19.021 z m -29.396,-17.289 h 8.646 l -4.035,-14.987 z"
     fill="#2056ae"
     fill-rule="evenodd"
     id="path20"
     style="fill:#004f9f;fill-opacity:1" />
  <path
     d="m 282.24796,348.72514 v -16.138 c -1.729,0 -4.036,0.577 -4.611,2.307 -0.576,1.729 -3.458,8.066 -4.034,10.373 -1.153,2.88 -1.73,3.458 -3.46,3.458 -2.882,0 -13.833,0 -13.833,0 l 4.035,-9.223 c 2.307,-5.187 4.036,-6.915 5.765,-8.645 1.151,-1.151 4.033,-2.307 4.033,-2.307 -1.153,0 -4.611,-0.573 -6.915,-2.302 -2.883,-2.308 -4.036,-4.614 -4.036,-8.071 0,-2.308 0.578,-4.609 3.46,-7.494 2.305,-1.729 5.763,-3.458 11.527,-3.458 h 22.479 v 41.499 h -14.41 z m -3.458,-32.854 c -1.153,0 -2.883,0 -4.036,1.156 -1.151,0.573 -1.729,1.729 -1.729,2.88 0,1.729 0.577,2.88 1.729,3.458 1.153,0.577 2.883,1.155 4.036,1.155 h 4.033 v -8.649 z"
     fill="none"
     stroke="#ffffff"
     stroke-miterlimit="2.6131"
     stroke-width="1.4173"
     id="path22" />
  <path
     clip-rule="evenodd"
     d="m 282.24796,348.72514 v -16.138 c -1.729,0 -4.036,0.577 -4.611,2.307 -0.576,1.729 -3.458,8.066 -4.034,10.373 -1.153,2.88 -1.73,3.458 -3.46,3.458 -2.882,0 -13.833,0 -13.833,0 l 4.035,-9.223 c 2.307,-5.187 4.036,-6.915 5.765,-8.645 1.151,-1.151 4.033,-2.307 4.033,-2.307 -1.153,0 -4.611,-0.573 -6.915,-2.302 -2.883,-2.308 -4.036,-4.614 -4.036,-8.071 0,-2.308 0.578,-4.609 3.46,-7.494 2.305,-1.729 5.763,-3.458 11.527,-3.458 h 22.479 v 41.499 h -14.41 z m -3.458,-32.854 c -1.153,0 -2.883,0 -4.036,1.156 -1.151,0.573 -1.729,1.729 -1.729,2.88 0,1.729 0.577,2.88 1.729,3.458 1.153,0.577 2.883,1.155 4.036,1.155 h 4.033 v -8.649 z"
     fill="#2056ae"
     fill-rule="evenodd"
     id="path24"
     style="fill:#004f9f;fill-opacity:1" />
  <path
     d="m 234.98496,409.82514 v -19.601 -4.609 c 0,0 -9.801,14.409 -12.104,17.867 -2.883,4.613 -4.611,6.343 -8.647,6.343 -5.762,0 -10.949,0 -10.949,0 v -44.961 h 14.985 v 18.444 l -0.576,6.916 c 0,0 13.834,-17.867 16.139,-21.898 1.729,-3.462 5.187,-3.462 6.916,-3.462 h 9.222 l -0.575,44.961 z"
     fill="none"
     stroke="#ffffff"
     stroke-miterlimit="2.6131"
     stroke-width="1.4173"
     id="path26" />
  <path
     clip-rule="evenodd"
     d="m 234.98496,409.82514 v -19.601 -4.609 c 0,0 -9.801,14.409 -12.104,17.867 -2.883,4.613 -4.611,6.343 -8.647,6.343 -5.762,0 -10.949,0 -10.949,0 v -44.961 h 14.985 v 18.444 l -0.576,6.916 c 0,0 13.834,-17.867 16.139,-21.898 1.729,-3.462 5.187,-3.462 6.916,-3.462 h 9.222 l -0.575,44.961 z"
     fill="#2056ae"
     fill-rule="evenodd"
     id="path28"
     style="fill:#004f9f;fill-opacity:1" />
  <path
     d="m 281.09396,409.82514 v -17.294 c -1.729,0 -4.033,0.578 -5.187,2.307 -0.575,1.729 -3.458,8.645 -4.611,11.529 -1.153,2.88 -1.729,3.458 -3.458,3.458 -3.457,0 -14.986,0 -14.986,0 l 4.611,-9.801 c 2.307,-6.338 4.035,-7.493 5.765,-9.223 1.729,-1.729 4.61,-2.88 4.61,-2.88 -1.153,0 -4.61,-0.577 -7.493,-2.307 -3.458,-2.307 -4.611,-5.187 -4.035,-8.645 0,-2.307 0,-5.187 3.46,-8.645 2.305,-1.733 6.34,-3.462 12.103,-3.462 h 24.785 v 44.961 h -15.564 z m -4.033,-35.739 c -1.153,0 -2.882,0.578 -4.035,1.156 -1.153,1.15 -1.729,1.729 -1.729,3.457 0,1.729 0.576,2.881 1.153,3.458 1.729,1.151 3.458,1.151 5.188,1.151 h 4.033 v -9.223 h -4.61 z"
     fill="none"
     stroke="#ffffff"
     stroke-miterlimit="2.6131"
     stroke-width="1.4173"
     id="path30" />
  <path
     clip-rule="evenodd"
     d="m 281.09396,409.82514 v -17.294 c -1.729,0 -4.033,0.578 -5.187,2.307 -0.575,1.729 -3.458,8.645 -4.611,11.529 -1.153,2.88 -1.729,3.458 -3.458,3.458 -3.457,0 -14.986,0 -14.986,0 l 4.611,-9.801 c 2.307,-6.338 4.035,-7.493 5.765,-9.223 1.729,-1.729 4.61,-2.88 4.61,-2.88 -1.153,0 -4.61,-0.577 -7.493,-2.307 -3.458,-2.307 -4.611,-5.187 -4.035,-8.645 0,-2.307 0,-5.187 3.46,-8.645 2.305,-1.733 6.34,-3.462 12.103,-3.462 h 24.785 v 44.961 h -15.564 z m -4.033,-35.739 c -1.153,0 -2.882,0.578 -4.035,1.156 -1.153,1.15 -1.729,1.729 -1.729,3.457 0,1.729 0.576,2.881 1.153,3.458 1.729,1.151 3.458,1.151 5.188,1.151 h 4.033 v -9.223 h -4.61 z"
     fill="#2056ae"
     fill-rule="evenodd"
     id="path32"
     style="fill:#004f9f;fill-opacity:1" />
  <path
     d="m 41.317959,364.86414 c 4.611,0 12.105,0 16.139,4.035 2.882,2.307 5.188,5.765 5.188,12.107 0,9.218 -6.917,16.138 -16.139,16.138 h -8.07 v 12.681 h -15.562 v -44.961 z m -2.883,21.329 h 4.036 c 4.035,0 5.188,-3.458 5.188,-5.187 0,-2.308 -0.577,-5.765 -5.188,-5.765 h -4.036 z"
     fill="none"
     stroke="#ffffff"
     stroke-miterlimit="2.6131"
     stroke-width="1.4173"
     id="path34" />
  <path
     clip-rule="evenodd"
     d="m 41.317959,364.86414 c 4.611,0 12.105,0 16.139,4.035 2.882,2.307 5.188,5.765 5.188,12.107 0,9.218 -6.917,16.138 -16.139,16.138 h -8.07 v 12.681 h -15.562 v -44.961 z m -2.883,21.329 h 4.036 c 4.035,0 5.188,-3.458 5.188,-5.187 0,-2.308 -0.577,-5.765 -5.188,-5.765 h -4.036 z"
     fill="#2056ae"
     fill-rule="evenodd"
     id="path36"
     style="fill:#004f9f;fill-opacity:1" />
  <path
     d="m 106.44996,371.20614 c 4.035,4.609 6.34,10.374 6.34,16.139 0,10.951 -6.34,23.054 -24.208001,23.054 -4.035,0 -10.375,-0.573 -16.139,-5.187 -4.611,-4.609 -6.916,-10.952 -6.916,-17.867 -0.578,-13.832 8.646,-23.055 23.631,-23.055 6.917,0 13.258001,1.729 17.868001,6.916 z m -17.292001,4.609 c -6.916,0 -7.493,7.493 -7.493,11.529 0,4.035 0.577,10.951 7.493,10.951 6.341,0 7.493,-6.343 7.493,-10.374 -0.577,-8.071 -4.035,-12.106 -7.493,-12.106 z"
     fill="none"
     stroke="#ffffff"
     stroke-miterlimit="2.6131"
     stroke-width="1.4173"
     id="path38" />
  <path
     clip-rule="evenodd"
     d="m 106.44996,371.20614 c 4.035,4.609 6.34,10.374 6.34,16.139 0,10.951 -6.34,23.054 -24.208001,23.054 -4.035,0 -10.375,-0.573 -16.139,-5.187 -4.611,-4.609 -6.916,-10.952 -6.916,-17.867 -0.578,-13.832 8.646,-23.055 23.631,-23.055 6.917,0 13.258001,1.729 17.868001,6.916 z m -17.292001,4.609 c -6.916,0 -7.493,7.493 -7.493,11.529 0,4.035 0.577,10.951 7.493,10.951 6.341,0 7.493,-6.343 7.493,-10.374 -0.577,-8.071 -4.035,-12.106 -7.493,-12.106 z"
     fill="#2056ae"
     fill-rule="evenodd"
     id="path40"
     style="fill:#004f9f;fill-opacity:1" />
  <path
     d="m 154.28996,378.12214 c -1.73,-0.578 -5.765,-1.151 -9.222,-1.151 -7.494,0 -12.105,4.609 -12.105,10.374 0,5.765 2.882,10.373 11.528,10.373 4.611,0 8.646,-0.573 9.799,-0.573 l 1.729,12.103 c -7.494,1.151 -13.833,1.151 -14.986,1.151 -14.41,0 -25.362,-8.645 -25.362,-23.054 0.577,-14.409 9.223,-23.055 25.938,-23.055 6.341,0 12.104,0.574 14.986,1.729 z"
     fill="none"
     stroke="#ffffff"
     stroke-miterlimit="2.6131"
     stroke-width="1.4173"
     id="path42" />
  <path
     clip-rule="evenodd"
     d="m 154.28996,378.12214 c -1.73,-0.578 -5.765,-1.151 -9.222,-1.151 -7.494,0 -12.105,4.609 -12.105,10.374 0,5.765 2.882,10.373 11.528,10.373 4.611,0 8.646,-0.573 9.799,-0.573 l 1.729,12.103 c -7.494,1.151 -13.833,1.151 -14.986,1.151 -14.41,0 -25.362,-8.645 -25.362,-23.054 0.577,-14.409 9.223,-23.055 25.938,-23.055 6.341,0 12.104,0.574 14.986,1.729 z"
     fill="#2056ae"
     fill-rule="evenodd"
     id="path44"
     style="fill:#004f9f;fill-opacity:1" />
  <path
     d="m 196.36496,378.12214 c -1.729,-0.578 -5.762,-1.151 -9.798,-1.151 -7.493,0 -12.104,4.609 -12.104,10.374 0,5.765 2.882,10.373 12.104,10.373 4.036,0 8.069,-0.573 9.798,-0.573 l 1.153,12.103 c -7.493,1.151 -13.258,1.151 -14.409,1.151 -14.986,0 -25.361,-8.645 -25.361,-23.054 0,-14.409 9.222,-23.055 25.361,-23.055 6.341,0 12.681,0.574 15.563,1.729 z"
     fill="none"
     stroke="#ffffff"
     stroke-miterlimit="2.6131"
     stroke-width="1.4173"
     id="path46" />
  <path
     d="m 196.36496,378.12214 c -1.729,-0.578 -5.762,-1.151 -9.798,-1.151 -7.493,0 -12.104,4.609 -12.104,10.374 0,5.765 2.882,10.373 12.104,10.373 4.036,0 8.069,-0.573 9.798,-0.573 l 1.153,12.103 c -7.493,1.151 -13.258,1.151 -14.409,1.151 -14.986,0 -25.361,-8.645 -25.361,-23.054 0,-14.409 9.222,-23.055 25.361,-23.055 6.341,0 12.681,0.574 15.563,1.729 z"
     fill="#2056ae"
     id="path48"
     style="clip-rule:evenodd;fill:#004f9f;fill-opacity:1;fill-rule:evenodd" />
  <path
     d="m 316.25496,164.86014 c -6.342,-25.938 -28.82,-63.403 -97.986,-63.403 -14.409,0 -52.45,4.035 -59.367,4.035 0.576,-2.306 7.492,-21.903005 8.646,-24.785005 -4.611,-2.306 -16.716,-4.611 -34.007,-5.187 -40.348001,-1.153 -89.340001,16.138 -119.888001,38.617005 -3.46,10.376 -9.7989996,26.515 -13.83399955,36.313 31.70099955,-16.715 78.38799955,-34.006 114.12400055,-37.465 24.208,-2.305 33.431,2.306 36.313,4.036 2.881,1.152 -20.75,9.222 -20.173,18.444 0,11.527 48.416,-1.153 80.117,0 54.757,1.729 78.964,20.75 87.611,47.84 10.951,33.432 -8.647,65.708 -32.854,77.811 29.971,-7.495 62.249,-50.723 51.298,-96.256 z"
     fill="#e61c38"
     id="path50"
     style="clip-rule:evenodd;fill:#df182e;fill-opacity:1;fill-rule:evenodd" />
  <path
     d="m 133.53996,75.520135 c 17.292,0.575 29.396,2.881 34.007,5.187 -1.153,2.882 -8.07,22.479005 -8.646,24.785005 6.917,0 44.958,-4.035 59.367,-4.035 69.166,0 91.645,37.464 97.986,63.403 1.729,7.492 2.305,14.409 2.305,21.326 4.035,-19.022 4.035,-42.077 1.729,-54.757 -4.033,-25.938 -27.089,-62.250005 -90.493,-63.403005 -14.409,0 -52.45,4.035 -58.79,4.035 0.575,-2.306 7.493,-21.903 8.069,-24.784 -4.033,-2.306 -14.409,-6.341 -31.701,-6.917 -40.923,-0.577 -89.917001,16.138 -120.465001,38.617 -3.458,10.375 -9.222,25.361005 -13.257,35.160005 30.549,-22.478005 79.541,-39.770005 119.889001,-38.617005 z"
     fill="#10a7e5"
     id="path52"
     style="clip-rule:evenodd;fill:#009bdc;fill-opacity:1;fill-rule:evenodd" />
  <path
     d="m 319.13796,90.505135 c -5.765,-20.75 -28.243,-54.179 -77.813,-55.333 -14.409,0 -50.721,2.882 -58.792,3.458 0.577,-1.729 6.34,-19.021 7.493,-21.902 -3.458,-4.611 -13.834,-8.6459999 -31.124,-9.2239999 -40.924,-1.151 -89.341001,17.2939999 -119.889001,40.3489999 -3.459,10.375 -12.105,32.279 -12.105,31.125 30.548,-22.479 79.542001,-39.194 120.465001,-38.617 17.292,0.575 27.668,4.611 31.701,6.917 -0.576,2.881 -7.494,22.479 -8.069,24.784 6.34,0 44.381,-4.035 58.79,-4.035 63.404,1.152 86.46,37.465005 90.493,63.403005 1.153,6.34 1.729,16.139 1.153,26.514 3.459,-21.904 2.883,-46.112 -2.303,-67.439005 z"
     fill="#ffffff"
     id="path54"
     style="clip-rule:evenodd;fill-rule:evenodd" />
  <path
     d="m 190.02596,16.729135 c 1.153,-2.882 1.729,-5.765 2.307,-6.9169999 -4.036,-3.459 -14.988,-9.22199996 -31.127,-9.79899996 -40.346,-0.576 -88.763001,17.86799986 -119.312001,40.34799986 -0.577,2.304 -1.729,4.611 -2.881,7.492 30.547,-22.478 79.541001,-41.4999999 119.888001,-40.3479999 16.715,0.578 27.089,4.6119999 31.125,9.2239999 z m 127.959,64.555 c -4.611,-19.021 -26.515,-53.604 -76.084,-53.604 -16.717,0 -47.839,2.306 -57.062,3.459 -1.153,4.035 -2.307,6.917 -2.307,7.493 8.071,-0.576 44.383,-3.458 58.792,-3.458 49.57,1.153 72.049,34.583 77.813,55.333 1.15,5.188 1.729,9.799005 2.88,14.987005 -1.151,-9.801005 -2.304,-18.446005 -4.032,-24.210005 z"
     fill="#2056ae"
     id="path56"
     style="clip-rule:evenodd;fill:#004f9f;fill-opacity:1;fill-rule:evenodd" />
  <path
     d="m 91.464959,145.83914 c -14.411,0.577 -29.396,8.646 -40.348,21.326 -8.646,10.952 -13.833,23.632 -13.833,36.89 0,2.881 0.576,5.187 0.576,8.067 l 0.576,2.307 2.307,1.151 c 1.729,0.578 2.881,1.729 3.458,2.307 l -2.306,4.609 -6.34,13.836 c -2.882,7.493 -4.611,16.138 -4.611,25.36 0,8.645 1.729,17.867 7.492,24.783 l 1.153,2.307 h 35.737 l 0.576,-3.458 c 0,-1.151 0.576,-2.307 0.576,-3.458 0,-2.885 -0.576,-6.916 -2.304,-9.223 -1.73,-2.88 -3.459,-3.458 -4.612,-4.035 -0.576,0 -1.729,-1.151 -1.729,-2.88 v -0.578 c 0.577,-2.307 4.035,-5.187 10.951,-8.067 l 0.577,-0.577 c 3.459,5.765 6.917,11.529 8.646,14.987 l 3.459,5.76 c 2.881,4.613 6.916,8.649 11.527001,10.951 l 1.153,0.578 h 37.464 v -5.187 c 0,-9.223 -2.305,-14.41 -6.916,-15.561 l -3.459,-0.578 c -4.034,-1.155 -4.034,-1.155 -4.611,-2.307 v -1.151 c 0,-1.729 0.577,-4.613 1.729,-6.916 0,0 0.577,-3.462 1.153,-6.342 4.035,-1.151 8.646,-1.729 12.681,-1.729 -1.152,5.187 -1.729,10.951 -1.729,15.56 0,5.191 0.577,9.223 0.577,11.529 v 0.578 c 1.729,4.035 8.069,9.796 14.409,11.524 l 1.152,0.578 h 37.467 v -5.187 c -1.153,-10.374 -4.036,-15.561 -9.223,-15.561 -5.189,0 -8.069,-2.307 -8.069,-2.885 0,-0.578 2.305,-4.035 9.798,-10.951 4.611,11.529 20.174,28.245 30.548,34.005 l 0.577,0.578 h 39.194 l -1.153,-5.765 c -2.307,-8.645 -6.34,-14.409 -12.68,-15.561 -7.494,-1.155 -9.799,-2.307 -11.527,-5.187 -1.153,-1.155 -2.307,-6.343 -3.46,-10.378 -1.151,-4.609 -2.305,-9.223 -3.458,-12.681 -0.575,-1.729 -1.153,-2.88 -1.729,-4.035 l 0.575,1.155 2.307,-0.578 c 6.916,-0.577 24.785,-4.608 31.125,-11.524 4.611,0.573 10.951,0.573 14.409,-1.155 2.307,-1.151 6.341,-6.338 6.916,-9.223 v -0.573 l 1.729,-0.578 c 5.189,-3.459 11.529,-11.528 11.529,-16.139 v -0.577 c 0,-2.306 -1.153,-4.035 -3.458,-4.61 l -1.153,-0.578 c -4.035,-1.729 -8.646,-3.458 -13.256,-4.61 -1.73,-8.07 -12.683,-12.105 -21.904,-15.563 -1.729,-3.459 -5.188,-6.34 -9.221,-8.07 -4.035,-1.729 -8.646,-1.152 -12.104,0.577 -12.104,-5.764 -38.041,-14.409 -52.452,-16.14 l -3.458,-0.575 -1.153,3.458 c -0.575,0.577 -1.729,4.035 -4.611,4.611 -9.797,1.152 -20.173,-1.152 -31.701,-3.458 -13.258,-2.301 -27.667,-5.759 -45.535001,-5.183 z"
     fill="#ffffff"
     id="path58"
     style="clip-rule:evenodd;fill-rule:evenodd" />
  <path
     d="m 277.63696,208.66514 c 5.765,-3.458 11.526,-12.104 9.222,-13.257 -4.61,-1.729 -12.104,-5.187 -17.869,-6.34 1.729,-5.763 -5.762,-9.221 -20.749,-14.409 -1.151,-5.764 -10.376,-12.104 -17.867,-6.34 -10.376,-5.765 -38.619,-14.986 -53.028,-16.716 -1.153,2.306 -3.457,6.341 -8.068,6.917 -21.903,3.459 -43.806,-9.221 -77.236001,-8.069 -25.938,1.152 -54.181,28.243 -49.569,61.095 3.458,1.155 7.494,4.613 5.764,8.648 -1.729,4.036 -4.611,8.067 -8.646,17.867 -3.458,9.801 -8.646,31.125 2.306,46.112 h 29.396 c 0.576,-2.307 0.576,-10.378 -2.882,-10.951 -2.881,-0.578 -5.764,-4.613 -5.187,-8.649 1.152,-4.608 5.187,-8.066 13.833,-12.103 -1.729,-6.338 -5.763,-13.258 -6.34,-15.56 3.459,-0.578 21.902,34.005 24.208,38.04 2.881,4.031 6.340001,7.494 10.375001,9.223 h 32.277 c 0,-3.458 -0.577,-10.951 -4.035,-12.106 -4.611,-1.151 -9.798,-0.573 -10.951,-5.765 -1.153,-5.187 2.306,-11.525 3.458,-19.597 6.917,-2.302 17.293,-1.729 21.327,-2.302 -3.458,10.947 -2.305,25.934 -1.73,31.121 0.578,1.729 5.188,6.342 11.528,8.648 h 32.279 c 0,-2.885 -1.153,-11.529 -4.611,-11.529 -8.069,-0.577 -12.681,-4.035 -12.681,-7.493 0.576,-4.035 5.187,-8.645 12.103,-14.987 2.883,-2.302 10.951,-13.253 14.411,-11.524 -4.035,2.88 -6.34,8.645 -8.646,12.681 3.458,10.373 19.021,27.089 28.82,32.854 h 32.276 c -0.575,-3.458 -2.882,-11.529 -8.645,-12.106 -8.069,-1.729 -12.104,-2.881 -14.987,-6.916 -2.307,-4.035 -4.035,-17.289 -6.915,-24.783 -5.189,-10.951 -5.765,-15.564 -0.578,-18.444 0.578,1.729 4.036,8.066 5.765,9.796 8.646,-1.151 27.09,-6.916 29.396,-12.103 5.762,0.577 11.526,0.577 14.409,-0.578 0.575,0 5.187,-5.76 4.035,-6.916 -0.577,-0.577 -1.73,-0.577 -3.46,-0.577 2.881,-0.576 6.339,-2.306 7.492,-2.882 z"
     fill="#2056ae"
     id="path60"
     style="clip-rule:evenodd;fill:#004f9f;fill-opacity:1;fill-rule:evenodd" />
  <path
     d="m 262.65196,194.25514 c -1.731,0 -7.493,4.035 -9.225,4.035 -1.729,-1.729 -6.916,-9.223 9.225,-7.494 2.305,0 0.576,-2.305 -1.153,-3.458 -3.46,-1.729 -9.8,-4.034 -17.869,-6.34 -1.729,-6.917 -9.798,-9.799 -12.103,-1.729 -9.223,-5.188 -29.974,-13.257 -44.383,-15.563 -1.729,1.153 -2.305,6.917 -12.103,8.646 -12.105,2.306 -36.313,-5.188 -63.979,-8.646 -27.667001,-3.458 -49.570001,10.375 -52.451001,35.735 6.339,-1.152 19.597,-1.729 28.243,9.799 26.513001,33.429 21.326001,45.535 25.937001,47.842 5.188,-11.528 13.256,-37.467 5.188,-53.028 2.881,-1.153 7.493,2.881 12.104,6.917 5.187,5.187 13.833,9.222 21.326,8.645 2.882,-10.951 15.562,-21.903 19.022,-21.326 -6.918,11.528 -10.376,18.446 -13.835,31.699 -5.187,16.143 -3.458,34.583 0,35.161 1.153,-5.187 3.459,-14.987 11.528,-28.24 12.68,-20.174 36.89,-37.468 54.757,-33.434 -5.188,1.153 -9.223,6.342 -10.376,8.646 6.918,1.729 10.376,4.614 13.258,8.071 6.34,-5.765 18.445,-4.613 26.514,-8.071 0,-2.304 0.576,-5.187 4.611,-5.763 5.188,-0.576 12.103,1.729 16.716,-0.576 1.729,-1.153 5.763,-5.763 5.763,-8.646 -1.73,-1.153 -9.224,-2.882 -16.715,-2.882 z"
     fill="#ffffff"
     id="path62"
     style="clip-rule:evenodd;fill-rule:evenodd" />
</svg>
