<?xml version="1.0" encoding="UTF-8" standalone="no"?>
<!-- Generator: Adobe Illustrator 12.0.0, SVG Export Plug-In  -->

<svg
   version="1.1"
   width="145.1187"
   height="136.24199"
   viewBox="-0.579 -0.972 219.15662 205.75113"
   enable-background="new -0.579 -0.972 1051 217"
   xml:space="preserve"
   id="svg32"
   sodipodi:docname="seJL.svg"
   inkscape:version="1.1.2 (b8e25be833, 2022-02-05)"
   xmlns:inkscape="http://www.inkscape.org/namespaces/inkscape"
   xmlns:sodipodi="http://sodipodi.sourceforge.net/DTD/sodipodi-0.dtd"
   xmlns="http://www.w3.org/2000/svg"
   xmlns:svg="http://www.w3.org/2000/svg"><sodipodi:namedview
   id="namedview34"
   pagecolor="#505050"
   bordercolor="#eeeeee"
   borderopacity="1"
   inkscape:pageshadow="0"
   inkscape:pageopacity="0"
   inkscape:pagecheckerboard="0"
   showgrid="false"
   fit-margin-top="0"
   fit-margin-left="0"
   fit-margin-right="0"
   fit-margin-bottom="0"
   inkscape:zoom="1.6495686"
   inkscape:cx="117.6065"
   inkscape:cy="80.02092"
   inkscape:window-width="1920"
   inkscape:window-height="1017"
   inkscape:window-x="-8"
   inkscape:window-y="-8"
   inkscape:window-maximized="1"
   inkscape:current-layer="svg32" />

<defs
   id="defs2">

</defs>





























<circle
   fill="#F89A1C"
   cx="109.3345"
   cy="60.161758"
   r="61.133759"
   id="circle4"
   style="fill:#f59c36;fill-opacity:1;stroke-width:0.860966" /><g
   id="g894"
   transform="matrix(0.25498538,0,0,0.25498538,-49.029792,149.84699)"><path
     fill="#F89A1C"
     d="M 248.407,165.037 V 59.436 h -30.35 v 117.27 c 0,0 0.069,8.005 -5.593,11.059 -4.985,2.686 -12.702,2.537 -12.702,2.537 h -9.748 v 24.622 c 0,0 16.472,1.755 26.651,-1.256 10.59,-3.13 20.237,-9.048 25.436,-18.062 6.775,-11.742 6.306,-30.569 6.306,-30.569 z"
     id="path6"
     style="fill:#f59c36;fill-opacity:1" /><path
     fill="#F89A1C"
     d="m 393.977,155.745 h 30.35 l -0.13,-53.95 c 0,0 0.158,-7.561 2.095,-11.058 4.733,-8.543 14.453,-10.342 21.607,-10.174 15.241,0.36 14.013,15.075 14.013,15.075 v 60.106 h 30.35 c 0,0 0,-54.269 0,-61.237 0,-13.003 -2.325,-26.141 -14.74,-32.458 -9.337,-4.75 -22.468,-4.398 -30.799,-2.575 -8.175,1.789 -13.671,4.811 -17.61,7.037 -2.775,1.57 -4.303,2.073 -4.52,0.766 -0.217,-1.307 0.214,-7.642 0.214,-7.642 h -30.83 z"
     id="path8"
     style="fill:#f59c36;fill-opacity:1" /><path
     fill="#F89A1C"
     d="m 951.213,155.745 h 30.351 l -0.133,-53.95 c 0,0 0.163,-7.561 2.098,-11.058 4.732,-8.543 14.452,-10.342 21.609,-10.174 15.239,0.36 14.009,15.075 14.009,15.075 v 60.106 h 30.354 c 0,0 0,-54.269 0,-61.237 0,-13.003 -2.328,-26.141 -14.743,-32.458 -9.338,-4.75 -22.468,-4.398 -30.799,-2.575 -8.173,1.789 -13.672,4.811 -17.608,7.037 -2.777,1.57 -4.308,2.073 -4.522,0.766 -0.214,-1.307 0.215,-7.642 0.215,-7.642 h -30.83 v 96.11 z"
     id="path10"
     style="fill:#f59c36;fill-opacity:1" /><path
     fill="#F89A1C"
     d="m 370.279,59.476 h -30.35 l 0.13,53.948 c 0,0 -0.158,7.561 -2.096,11.058 -4.732,8.546 -14.452,10.343 -21.606,10.175 -15.241,-0.363 -14.014,-15.075 -14.014,-15.075 V 59.476 h -30.35 c 0,0 0,54.265 0,61.237 0,12.999 2.326,26.139 14.741,32.459 9.337,4.748 22.467,4.396 30.799,2.572 8.175,-1.785 13.671,-4.809 17.61,-7.035 2.774,-1.571 4.303,-2.072 4.521,-0.766 0.217,1.307 -0.214,7.638 -0.214,7.638 h 30.829 z"
     id="path12"
     style="fill:#f59c36;fill-opacity:1" /><rect
     x="515.229"
     y="59.436001"
     fill="#F89A1C"
     width="30.351999"
     height="96.106003"
     id="rect14"
     style="fill:#f59c36;fill-opacity:1" /><rect
     x="625.73602"
     y="59.436001"
     fill="#F89A1C"
     width="30.344"
     height="96.106003"
     id="rect16"
     style="fill:#f59c36;fill-opacity:1" /><polygon
     fill="#F89A1C"
     points="570.005,0 570.005,155.542 600.308,155.545 600.349,0 "
     id="polygon18"
     style="fill:#f59c36;fill-opacity:1" /><circle
     fill="#F89A1C"
     cx="234.16299"
     cy="25.091999"
     r="15.872"
     id="circle20"
     style="fill:#f59c36;fill-opacity:1" /><path
     fill="#F89A1C"
     d="m 545.244,25.092 c 0,8.765 -7.106,15.872 -15.876,15.872 -8.763,0 -15.869,-7.106 -15.869,-15.872 0,-8.766 7.106,-15.872 15.869,-15.872 8.77,0 15.876,7.107 15.876,15.872 z"
     id="path22"
     style="fill:#f59c36;fill-opacity:1" /><circle
     fill="#F89A1C"
     cx="640.96399"
     cy="25.091999"
     r="15.872"
     id="circle24"
     style="fill:#f59c36;fill-opacity:1" /><path
     fill="#F89A1C"
     d="m 822.219,130.377 c -3.104,0.159 -8.04,2.522 -12.39,0.266 -3.871,-2.006 -3.251,-12.431 -3.251,-12.431 l -0.108,-37.95 h 15.749 V 59.686 H 806.47 V 36.782 h -28.604 v 22.904 h -12.859 v 20.576 h 12.859 v 31.722 c 0,0 -1.593,23.704 4.503,34.271 5.202,9.01 13.896,9.051 19.798,9.271 5.901,0.219 14.728,-1.619 20.052,-3.124 z"
     id="path26"
     style="fill:#f59c36;fill-opacity:1" /><path
     fill="#F89A1C"
     d="m 897.625,130.44 c -0.643,3.426 -13.895,8.448 -24.555,7.846 -6.213,-0.347 -10.899,-3.981 -12.773,-8.438 -2.072,-4.937 -4.079,-13.972 8.323,-18.985 11.016,-4.455 27.949,0.295 28.959,4.982 1.012,4.685 0.665,11.312 0.046,14.595 z M 919.99,67.964 c -10.455,-10.019 -24.646,-10.203 -33.652,-9.922 -10.067,0.314 -22.885,2.155 -35.765,6.491 v 18.44 c 5.799,-3.556 18.204,-7.42 31.339,-7.375 9.69,0.036 14.529,3.499 15.53,10.167 1.199,8.013 -1.267,10.314 -7.215,10.017 -5.829,-0.292 -13.783,-3.405 -27.843,-0.072 -12.476,2.959 -20.374,11.896 -22.328,26.588 -1.971,14.794 5.513,23.871 12.747,28.435 5.481,3.462 15.896,6.146 24.229,4.329 8.173,-1.792 11.945,-4.258 15.886,-6.484 2.778,-1.572 4.305,-2.072 4.524,-0.765 0.214,1.307 -0.215,7.642 -0.215,7.642 h 30.793 l 0.246,-62.222 c 0.001,-0.002 2.18,-15.25 -8.276,-25.269"
     id="path28"
     style="fill:#f59c36;fill-opacity:1" /><path
     fill="#F89A1C"
     d="M 730.272,97.586 C 711.536,91.488 702.684,91.6 704.425,82.452 c 1.648,-8.676 19.547,-6.884 27.261,-5.013 7.121,1.728 13.165,3.643 16.248,5.289 V 64.98 c -4.344,-2.19 -17.82,-8.022 -35.959,-6.601 -17.894,1.401 -35.726,11.325 -34.853,28.751 0.782,15.626 7.01,20.841 26.571,27.881 21.784,7.842 26.154,10.021 24.831,15.683 -2.067,8.857 -17.856,7.407 -29.619,4.794 -8.065,-1.797 -15.83,-5.596 -19.976,-7.832 v 21.049 c 5.054,1.592 19.858,5.937 33.479,6.82 16.771,1.088 44.21,-1.271 45.308,-26.138 0.884,-20.036 -11.981,-26.768 -27.444,-31.801 z"
     id="path30"
     style="fill:#f59c36;fill-opacity:1" /></g></svg>
